Angelica3D.ufo
<glyph name="uni000D" format="2">
  <advance width="267"/>
  <unicode hex="000D"/>
  <outline>
    <contour>
      <point x="47" y="-21" type="line"/>
      <point x="225" y="-21" type="line"/>
      <point x="225" y="-27" type="line"/>
      <point x="312" y="-114" type="line"/>
      <point x="312" y="-255" type="line"/>
      <point x="140" y="-361" type="line"/>
      <point x="52" y="-273" type="line"/>
      <point x="47" y="-277" type="line"/>
    </contour>
    <contour>
      <point x="82" y="-214" type="line"/>
      <point x="190" y="-147" type="line"/>
      <point x="190" y="-56" type="line"/>
      <point x="82" y="-56" type="line"/>
    </contour>
  </outline>
</glyph>
<glyph name="exclam" format="2">
  <advance width="390"/>
  <unicode hex="0021"/>
  <outline>
    <contour>
      <point x="384" y="730" type="line"/>
      <point x="384" y="724" type="line"/>
      <point x="471" y="637" type="line"/>
      <point x="471" y="-122" type="line"/>
      <point x="98" y="-122" type="line"/>
      <point x="11" y="-35" type="line"/>
      <point x="5" y="-35" type="line"/>
      <point x="5" y="730" type="line"/>
    </contour>
    <contour>
      <point x="40" y="695" type="line"/>
      <point x="40" y="147" type="line"/>
      <point x="349" y="147" type="line"/>
      <point x="349" y="695" type="line"/>
    </contour>
    <contour>
      <point x="40" y="91" type="line"/>
      <point x="40" y="0" type="line"/>
      <point x="349" y="0" type="line"/>
      <point x="349" y="91" type="line"/>
    </contour>
  </outline>
</glyph>
<glyph name="quotedbl" format="2">
  <advance width="635"/>
  <unicode hex="0022"/>
  <outline>
    <contour>
      <point x="526" y="730" type="line"/>
      <point x="614" y="642" type="line"/>
      <point x="555" y="286" type="line"/>
      <point x="370" y="286" type="line"/>
      <point x="329" y="326" type="line"/>
      <point x="323" y="286" type="line"/>
      <point x="138" y="286" type="line"/>
      <point x="51" y="373" type="line"/>
      <point x="45" y="373" type="line"/>
      <point x="14" y="735" type="line"/>
      <point x="527" y="735" type="line"/>
    </contour>
    <contour>
      <point x="486" y="700" type="line"/>
      <point x="284" y="700" type="line"/>
      <point x="310" y="408" type="line"/>
      <point x="437" y="408" type="line"/>
    </contour>
    <contour>
      <point x="254" y="700" type="line"/>
      <point x="52" y="700" type="line"/>
      <point x="78" y="408" type="line"/>
      <point x="205" y="408" type="line"/>
    </contour>
  </outline>
</glyph>
<glyph name="numbersign" format="2">
  <advance width="728"/>
  <unicode hex="0023"/>
  <outline>
    <contour>
      <point x="123" y="44" type="line"/>
      <point x="102" y="44" type="line"/>
      <point x="15" y="131" type="line"/>
      <point x="8" y="131" type="line"/>
      <point x="41" y="293" type="line"/>
      <point x="66" y="293" type="line"/>
      <point x="52" y="307" type="line"/>
      <point x="45" y="307" type="line"/>
      <point x="79" y="469" type="line"/>
      <point x="213" y="469" type="line"/>
      <point x="244" y="615" type="line"/>
      <point x="550" y="615" type="line"/>
      <point x="549" y="609" type="line"/>
      <point x="636" y="522" type="line"/>
      <point x="624" y="469" type="line"/>
      <point x="631" y="469" type="line"/>
      <point x="630" y="463" type="line"/>
      <point x="717" y="376" type="line"/>
      <point x="684" y="220" type="line"/>
      <point x="659" y="220" type="line"/>
      <point x="679" y="200" type="line"/>
      <point x="647" y="44" type="line"/>
      <point x="535" y="44" type="line"/>
      <point x="507" y="-89" type="line"/>
      <point x="208" y="-89" type="line"/>
      <point x="121" y="-2" type="line"/>
      <point x="114" y="-2" type="line"/>
    </contour>
    <contour>
      <point x="157" y="33" type="line"/>
      <point x="249" y="33" type="line"/>
      <point x="277" y="166" type="line"/>
      <point x="327" y="166" type="line"/>
      <point x="299" y="33" type="line"/>
      <point x="391" y="33" type="line"/>
      <point x="419" y="166" type="line"/>
      <point x="531" y="166" type="line"/>
      <point x="550" y="258" type="line"/>
      <point x="438" y="258" type="line"/>
      <point x="456" y="342" type="line"/>
      <point x="568" y="342" type="line"/>
      <point x="588" y="434" type="line"/>
      <point x="476" y="434" type="line"/>
      <point x="507" y="580" type="line"/>
      <point x="415" y="580" type="line"/>
      <point x="384" y="434" type="line"/>
      <point x="334" y="434" type="line"/>
      <point x="365" y="580" type="line"/>
      <point x="273" y="580" type="line"/>
      <point x="242" y="434" type="line"/>
      <point x="108" y="434" type="line"/>
      <point x="88" y="342" type="line"/>
      <point x="222" y="342" type="line"/>
      <point x="204" y="258" type="line"/>
      <point x="70" y="258" type="line"/>
      <point x="51" y="166" type="line"/>
      <point x="185" y="166" type="line"/>
    </contour>
    <contour>
      <point x="314" y="342" type="line"/>
      <point x="364" y="342" type="line"/>
      <point x="346" y="258" type="line"/>
      <point x="296" y="258" type="line"/>
    </contour>
  </outline>
</glyph>
<glyph name="dollar" format="2">
  <advance width="784"/>
  <unicode hex="0024"/>
  <outline>
    <contour>
      <point x="130" y="74" type="line"/>
      <point x="85" y="106"/>
      <point x="30" y="218"/>
      <point x="30" y="287" type="qcurve"/>
      <point x="144" y="287" type="line"/>
      <point x="112" y="318" type="line"/>
      <point x="75" y="344"/>
      <point x="31" y="424"/>
      <point x="31" y="474" type="qcurve" smooth="yes"/>
      <point x="31" y="511"/>
      <point x="59" y="580"/>
      <point x="108" y="633"/>
      <point x="174" y="666"/>
      <point x="212" y="668" type="qcurve"/>
      <point x="212" y="730" type="line"/>
      <point x="474" y="730" type="line"/>
      <point x="474" y="724" type="line"/>
      <point x="546" y="651" type="line"/>
      <point x="566" y="640"/>
      <point x="601" y="608"/>
      <point x="615" y="588" type="qcurve"/>
      <point x="680" y="524" type="line" smooth="yes"/>
      <point x="712" y="492"/>
      <point x="751" y="396"/>
      <point x="751" y="340" type="qcurve"/>
      <point x="636" y="340" type="line"/>
      <point x="696" y="280" type="line" smooth="yes"/>
      <point x="722" y="254"/>
      <point x="751" y="188"/>
      <point x="751" y="150" type="qcurve" smooth="yes"/>
      <point x="751" y="111"/>
      <point x="721" y="41"/>
      <point x="670" y="-11"/>
      <point x="601" y="-42"/>
      <point x="561" y="-42" type="qcurve"/>
      <point x="561" y="-122" type="line"/>
      <point x="305" y="-122" type="line"/>
      <point x="218" y="-35" type="line"/>
      <point x="212" y="-35" type="line"/>
      <point x="212" y="-5" type="line"/>
      <point x="200" y="3"/>
      <point x="194" y="11" type="qcurve"/>
    </contour>
    <contour>
      <point x="439" y="317" type="line"/>
      <point x="442" y="317" type="line"/>
      <point x="467" y="316"/>
      <point x="501" y="314"/>
      <point x="504" y="313" type="qcurve"/>
      <point x="503" y="314" type="line"/>
      <point x="526" y="304"/>
      <point x="553" y="264"/>
      <point x="553" y="238" type="qcurve" smooth="yes"/>
      <point x="553" y="211"/>
      <point x="526" y="171"/>
      <point x="503" y="162" type="qcurve" smooth="yes"/>
      <point x="501" y="161"/>
      <point x="473" y="159"/>
      <point x="452" y="159" type="qcurve"/>
      <point x="448" y="158"/>
      <point x="439" y="158" type="qcurve"/>
    </contour>
    <contour>
      <point x="326" y="157" type="line"/>
      <point x="326" y="318" type="line"/>
      <point x="360" y="318" type="line"/>
      <point x="360" y="157" type="line"/>
      <point x="357" y="157" type="line"/>
    </contour>
    <contour>
      <point x="192" y="400" type="line"/>
      <point x="170" y="410"/>
      <point x="142" y="450"/>
      <point x="142" y="476" type="qcurve" smooth="yes"/>
      <point x="142" y="502"/>
      <point x="170" y="543"/>
      <point x="192" y="552" type="qcurve"/>
      <point x="199" y="556"/>
      <point x="247" y="557" type="qcurve"/>
      <point x="247" y="396" type="line"/>
      <point x="197" y="398"/>
      <point x="191" y="401" type="qcurve"/>
    </contour>
    <contour>
      <point x="360" y="394" type="line"/>
      <point x="332" y="394" type="line"/>
      <point x="326" y="394" type="line"/>
      <point x="326" y="559" type="line"/>
      <point x="340" y="559" type="line" smooth="yes"/>
      <point x="345" y="559"/>
      <point x="355" y="559"/>
      <point x="360" y="558" type="qcurve"/>
    </contour>
    <contour>
      <point x="471" y="80" type="line" smooth="yes"/>
      <point x="504" y="80"/>
      <point x="562" y="106"/>
      <point x="604" y="149"/>
      <point x="629" y="207"/>
      <point x="629" y="240" type="qcurve" smooth="yes"/>
      <point x="629" y="288"/>
      <point x="575" y="365"/>
      <point x="532" y="383" type="qcurve" smooth="yes"/>
      <point x="526" y="386"/>
      <point x="487" y="390"/>
      <point x="460" y="392" type="qcurve"/>
      <point x="439" y="392" type="line"/>
      <point x="439" y="555" type="line"/>
      <point x="446" y="555" type="line"/>
      <point x="469" y="554"/>
      <point x="501" y="552"/>
      <point x="504" y="551" type="qcurve"/>
      <point x="503" y="552" type="line"/>
      <point x="526" y="542"/>
      <point x="553" y="494"/>
      <point x="553" y="462" type="qcurve"/>
      <point x="629" y="462" type="line"/>
      <point x="629" y="498"/>
      <point x="604" y="560"/>
      <point x="562" y="607"/>
      <point x="504" y="634"/>
      <point x="471" y="634" type="qcurve" smooth="yes"/>
      <point x="439" y="634" type="line"/>
      <point x="439" y="695" type="line"/>
      <point x="360" y="695" type="line"/>
      <point x="360" y="634" type="line"/>
      <point x="326" y="634" type="line"/>
      <point x="326" y="695" type="line"/>
      <point x="247" y="695" type="line"/>
      <point x="247" y="634" type="line"/>
      <point x="224" y="634" type="line" smooth="yes"/>
      <point x="191" y="634"/>
      <point x="133" y="608"/>
      <point x="91" y="564"/>
      <point x="66" y="506"/>
      <point x="66" y="474" type="qcurve" smooth="yes"/>
      <point x="66" y="425"/>
      <point x="120" y="349"/>
      <point x="163" y="330" type="qcurve"/>
      <point x="177" y="323"/>
      <point x="247" y="320" type="qcurve"/>
      <point x="247" y="159" type="line"/>
      <point x="232" y="159" type="line"/>
      <point x="197" y="161"/>
      <point x="191" y="163" type="qcurve"/>
      <point x="192" y="162" type="line"/>
      <point x="170" y="172"/>
      <point x="142" y="219"/>
      <point x="142" y="252" type="qcurve"/>
      <point x="65" y="252" type="line"/>
      <point x="65" y="216"/>
      <point x="90" y="154"/>
      <point x="134" y="107"/>
      <point x="191" y="80"/>
      <point x="224" y="80" type="qcurve" smooth="yes"/>
      <point x="247" y="80" type="line"/>
      <point x="247" y="0" type="line"/>
      <point x="326" y="0" type="line"/>
      <point x="326" y="80" type="line"/>
      <point x="360" y="80" type="line"/>
      <point x="360" y="0" type="line"/>
      <point x="439" y="0" type="line"/>
      <point x="439" y="80" type="line"/>
    </contour>
  </outline>
</glyph>
<glyph name="percent" format="2">
  <advance width="862"/>
  <unicode hex="0025"/>
  <outline>
    <contour>
      <point x="615" y="730" type="line"/>
      <point x="612" y="724" type="line"/>
      <point x="700" y="637" type="line"/>
      <point x="582" y="384" type="line"/>
      <point x="631" y="384" type="line" smooth="yes"/>
      <point x="663" y="384"/>
      <point x="717" y="353"/>
      <point x="734" y="327" type="qcurve"/>
      <point x="805" y="256" type="line" smooth="yes"/>
      <point x="840" y="221"/>
      <point x="840" y="171" type="qcurve" smooth="yes"/>
      <point x="840" y="-6" type="line" smooth="yes"/>
      <point x="840" y="-30"/>
      <point x="820" y="-72"/>
      <point x="786" y="-104"/>
      <point x="743" y="-122"/>
      <point x="721" y="-122" type="qcurve" smooth="yes"/>
      <point x="605" y="-122" type="line" smooth="yes"/>
      <point x="580" y="-122"/>
      <point x="537" y="-103"/>
      <point x="521" y="-87" type="qcurve" smooth="yes"/>
      <point x="451" y="-17" type="line"/>
      <point x="430" y="-4"/>
      <point x="414" y="18" type="qcurve"/>
      <point x="349" y="-122" type="line"/>
      <point x="221" y="-122" type="line"/>
      <point x="134" y="-35" type="line"/>
      <point x="126" y="-35" type="line"/>
      <point x="248" y="229" type="line"/>
      <point x="231" y="229" type="line" smooth="yes"/>
      <point x="206" y="229"/>
      <point x="163" y="248"/>
      <point x="147" y="264" type="qcurve" smooth="yes"/>
      <point x="77" y="333" type="line"/>
      <point x="51" y="350"/>
      <point x="19" y="404"/>
      <point x="19" y="439" type="qcurve" smooth="yes"/>
      <point x="19" y="612" type="line" smooth="yes"/>
      <point x="19" y="637"/>
      <point x="38" y="682"/>
      <point x="71" y="715"/>
      <point x="115" y="735"/>
      <point x="141" y="735" type="qcurve" smooth="yes"/>
      <point x="257" y="735" type="line" smooth="yes"/>
      <point x="289" y="735"/>
      <point x="343" y="704"/>
      <point x="360" y="678" type="qcurve"/>
      <point x="425" y="612" type="line"/>
      <point x="480" y="730" type="line"/>
    </contour>
    <contour>
      <point x="605" y="307" type="line"/>
      <point x="641" y="307"/>
      <point x="648" y="303" type="qcurve" smooth="yes"/>
      <point x="653" y="301"/>
      <point x="659" y="296"/>
      <point x="663" y="293" type="qcurve" smooth="yes"/>
      <point x="677" y="281"/>
      <point x="677" y="261" type="qcurve" smooth="yes"/>
      <point x="677" y="96" type="line" smooth="yes"/>
      <point x="677" y="73"/>
      <point x="665" y="57" type="qcurve" smooth="yes"/>
      <point x="661" y="52"/>
      <point x="651" y="46" type="qcurve" smooth="yes"/>
      <point x="649" y="45"/>
      <point x="625" y="43"/>
      <point x="605" y="42" type="qcurve"/>
    </contour>
    <contour>
      <point x="718" y="261" type="line" smooth="yes"/>
      <point x="718" y="297"/>
      <point x="667" y="349"/>
      <point x="631" y="349" type="qcurve" smooth="yes"/>
      <point x="515" y="349" type="line" smooth="yes"/>
      <point x="479" y="349"/>
      <point x="428" y="297"/>
      <point x="428" y="261" type="qcurve" smooth="yes"/>
      <point x="428" y="88" type="line" smooth="yes"/>
      <point x="428" y="51"/>
      <point x="479" y="0"/>
      <point x="515" y="0" type="qcurve" smooth="yes"/>
      <point x="631" y="0" type="line" smooth="yes"/>
      <point x="647" y="0"/>
      <point x="679" y="13"/>
      <point x="703" y="36"/>
      <point x="718" y="67"/>
      <point x="718" y="84" type="qcurve" smooth="yes"/>
    </contour>
    <contour>
      <point x="231" y="658" type="line"/>
      <point x="267" y="658"/>
      <point x="274" y="654" type="qcurve" smooth="yes"/>
      <point x="279" y="652"/>
      <point x="285" y="647"/>
      <point x="289" y="644" type="qcurve" smooth="yes"/>
      <point x="303" y="632"/>
      <point x="303" y="612" type="qcurve" smooth="yes"/>
      <point x="303" y="447" type="line" smooth="yes"/>
      <point x="303" y="424"/>
      <point x="291" y="408" type="qcurve" smooth="yes"/>
      <point x="287" y="403"/>
      <point x="277" y="397" type="qcurve" smooth="yes"/>
      <point x="275" y="396"/>
      <point x="251" y="394"/>
      <point x="231" y="393" type="qcurve"/>
    </contour>
    <contour>
      <point x="502" y="695" type="line"/>
      <point x="181" y="0" type="line"/>
      <point x="239" y="0" type="line"/>
      <point x="560" y="695" type="line"/>
    </contour>
    <contour>
      <point x="344" y="612" type="line" smooth="yes"/>
      <point x="344" y="648"/>
      <point x="293" y="700"/>
      <point x="257" y="700" type="qcurve" smooth="yes"/>
      <point x="141" y="700" type="line" smooth="yes"/>
      <point x="105" y="700"/>
      <point x="54" y="648"/>
      <point x="54" y="612" type="qcurve" smooth="yes"/>
      <point x="54" y="439" type="line" smooth="yes"/>
      <point x="54" y="402"/>
      <point x="105" y="351"/>
      <point x="141" y="351" type="qcurve" smooth="yes"/>
      <point x="257" y="351" type="line" smooth="yes"/>
      <point x="273" y="351"/>
      <point x="305" y="364"/>
      <point x="329" y="387"/>
      <point x="344" y="418"/>
      <point x="344" y="435" type="qcurve" smooth="yes"/>
    </contour>
  </outline>
</glyph>
<glyph name="ampersand" format="2">
  <advance width="852"/>
  <unicode hex="0026"/>
  <outline>
    <contour>
      <point x="104" y="10" type="line"/>
      <point x="57" y="44"/>
      <point x="3" y="149"/>
      <point x="3" y="212" type="qcurve" smooth="yes"/>
      <point x="3" y="267"/>
      <point x="46" y="356"/>
      <point x="84" y="389" type="qcurve"/>
      <point x="38" y="444"/>
      <point x="38" y="519" type="qcurve" smooth="yes"/>
      <point x="38" y="564"/>
      <point x="70" y="641"/>
      <point x="127" y="698"/>
      <point x="203" y="730"/>
      <point x="248" y="730" type="qcurve" smooth="yes"/>
      <point x="493" y="730" type="line" smooth="yes"/>
      <point x="547" y="730"/>
      <point x="633" y="683"/>
      <point x="661" y="645" type="qcurve"/>
      <point x="728" y="578" type="line" smooth="yes"/>
      <point x="757" y="549"/>
      <point x="773" y="511" type="qcurve"/>
      <point x="772" y="512" type="line"/>
      <point x="780" y="494"/>
      <point x="788" y="440"/>
      <point x="790" y="403" type="qcurve"/>
      <point x="790" y="399" type="line"/>
      <point x="828" y="361" type="line"/>
      <point x="828" y="224" type="line"/>
      <point x="788" y="224" type="line"/>
      <point x="787" y="176"/>
      <point x="788" y="126"/>
      <point x="788" y="121" type="qcurve" smooth="yes"/>
      <point x="788" y="70"/>
      <point x="751" y="-18"/>
      <point x="686" y="-84"/>
      <point x="597" y="-122"/>
      <point x="546" y="-122" type="qcurve" smooth="yes"/>
      <point x="338" y="-122" type="line" smooth="yes"/>
      <point x="287" y="-122"/>
      <point x="199" y="-84"/>
      <point x="167" y="-52" type="qcurve" smooth="yes"/>
    </contour>
    <contour>
      <point x="597" y="209" type="line" smooth="yes"/>
      <point x="597" y="180"/>
      <point x="575" y="129"/>
      <point x="538" y="92"/>
      <point x="485" y="70"/>
      <point x="456" y="70" type="qcurve"/>
      <point x="456" y="346" type="line"/>
      <point x="597" y="346" type="line"/>
    </contour>
    <contour>
      <point x="597" y="418" type="line"/>
      <point x="456" y="417" type="line"/>
      <point x="456" y="627" type="line"/>
      <point x="493" y="626" type="line"/>
      <point x="538" y="626"/>
      <point x="567" y="596" type="qcurve"/>
      <point x="596" y="568"/>
      <point x="597" y="525" type="qcurve"/>
      <point x="667" y="525" type="line"/>
      <point x="666" y="559"/>
      <point x="653" y="589" type="qcurve" smooth="yes"/>
      <point x="640" y="621"/>
      <point x="593" y="668"/>
      <point x="530" y="695"/>
      <point x="493" y="695" type="qcurve" smooth="yes"/>
      <point x="248" y="695" type="line" smooth="yes"/>
      <point x="211" y="695"/>
      <point x="147" y="668"/>
      <point x="100" y="620"/>
      <point x="73" y="556"/>
      <point x="73" y="519" type="qcurve" smooth="yes"/>
      <point x="73" y="480"/>
      <point x="107" y="411"/>
      <point x="138" y="386" type="qcurve"/>
      <point x="90" y="357"/>
      <point x="38" y="269"/>
      <point x="38" y="212" type="qcurve" smooth="yes"/>
      <point x="38" y="168"/>
      <point x="70" y="91"/>
      <point x="127" y="33"/>
      <point x="203" y="0"/>
      <point x="248" y="0" type="qcurve" smooth="yes"/>
      <point x="456" y="0" type="line" smooth="yes"/>
      <point x="500" y="0"/>
      <point x="578" y="33"/>
      <point x="634" y="90"/>
      <point x="666" y="167"/>
      <point x="666" y="211" type="qcurve" smooth="yes"/>
      <point x="666" y="221"/>
      <point x="667" y="346" type="qcurve"/>
      <point x="706" y="346" type="line"/>
      <point x="706" y="419" type="line"/>
      <point x="685" y="419"/>
      <point x="667" y="418" type="qcurve"/>
      <point x="668" y="438"/>
      <point x="668" y="461" type="qcurve"/>
      <point x="597" y="461" type="line"/>
    </contour>
  </outline>
</glyph>
<glyph name="quotesingle" format="2">
  <advance width="392"/>
  <unicode hex="0027"/>
  <outline>
    <contour>
      <point x="289" y="730" type="line"/>
      <point x="377" y="642" type="line"/>
      <point x="318" y="286" type="line"/>
      <point x="133" y="286" type="line"/>
      <point x="46" y="373" type="line"/>
      <point x="40" y="373" type="line"/>
      <point x="9" y="735" type="line"/>
      <point x="290" y="735" type="line"/>
    </contour>
    <contour>
      <point x="249" y="700" type="line"/>
      <point x="47" y="700" type="line"/>
      <point x="73" y="408" type="line"/>
      <point x="200" y="408" type="line"/>
    </contour>
  </outline>
</glyph>
<glyph name="parenleft" format="2">
  <advance width="647"/>
  <unicode hex="0028"/>
  <outline>
    <contour>
      <point x="493" y="21" type="line"/>
      <point x="529" y="21" type="line"/>
      <point x="529" y="15" type="line"/>
      <point x="616" y="-72" type="line"/>
      <point x="616" y="-205" type="line"/>
      <point x="362" y="-205" type="line" smooth="yes"/>
      <point x="313" y="-205"/>
      <point x="268" y="-185" type="qcurve"/>
      <point x="269" y="-186" type="line"/>
      <point x="226" y="-168"/>
      <point x="192" y="-134" type="qcurve" smooth="yes"/>
      <point x="130" y="-72" type="line"/>
      <point x="84" y="-40"/>
      <point x="29" y="62"/>
      <point x="29" y="125" type="qcurve" smooth="yes"/>
      <point x="29" y="591" type="line" smooth="yes"/>
      <point x="29" y="642"/>
      <point x="67" y="731"/>
      <point x="133" y="797"/>
      <point x="221" y="835"/>
      <point x="272" y="835" type="qcurve" smooth="yes"/>
      <point x="529" y="835" type="line"/>
      <point x="529" y="829" type="line"/>
      <point x="616" y="742" type="line"/>
      <point x="616" y="608" type="line"/>
      <point x="493" y="610" type="line"/>
    </contour>
    <contour>
      <point x="191" y="-66" type="qcurve" smooth="yes"/>
      <point x="229" y="-83"/>
      <point x="272" y="-83" type="qcurve" smooth="yes"/>
      <point x="494" y="-83" type="line"/>
      <point x="494" y="-14" type="line"/>
      <point x="371" y="-14" type="line"/>
      <point x="371" y="732" type="line"/>
      <point x="494" y="730" type="line"/>
      <point x="494" y="800" type="line"/>
      <point x="272" y="800" type="line" smooth="yes"/>
      <point x="229" y="800"/>
      <point x="153" y="767"/>
      <point x="97" y="710"/>
      <point x="64" y="634"/>
      <point x="64" y="591" type="qcurve" smooth="yes"/>
      <point x="64" y="125" type="line" smooth="yes"/>
      <point x="64" y="82"/>
      <point x="97" y="6"/>
      <point x="153" y="-50"/>
    </contour>
  </outline>
</glyph>
<glyph name="parenright" format="2">
  <advance width="481"/>
  <unicode hex="0029"/>
  <outline>
    <contour>
      <point x="1" y="695" type="line"/>
      <point x="-5" y="695" type="line"/>
      <point x="-5" y="835" type="line"/>
      <point x="252" y="835" type="line" smooth="yes"/>
      <point x="313" y="835"/>
      <point x="416" y="780"/>
      <point x="449" y="733" type="qcurve"/>
      <point x="511" y="672" type="line" smooth="yes"/>
      <point x="544" y="639"/>
      <point x="582" y="552"/>
      <point x="582" y="501" type="qcurve" smooth="yes"/>
      <point x="582" y="35" type="line" smooth="yes"/>
      <point x="582" y="-3"/>
      <point x="560" y="-71"/>
      <point x="521" y="-128"/>
      <point x="467" y="-173"/>
      <point x="435" y="-186" type="qcurve"/>
      <point x="434" y="-185" type="line"/>
      <point x="391" y="-205"/>
      <point x="342" y="-205" type="qcurve" smooth="yes"/>
      <point x="88" y="-205" type="line"/>
      <point x="1" y="-118" type="line"/>
      <point x="-5" y="-118" type="line"/>
      <point x="-5" y="21" type="line"/>
      <point x="118" y="21" type="line"/>
      <point x="118" y="608" type="line"/>
      <point x="88" y="608" type="line"/>
    </contour>
    <contour>
      <point x="333" y="-66" type="qcurve" smooth="yes"/>
      <point x="371" y="-50"/>
      <point x="427" y="6"/>
      <point x="460" y="82"/>
      <point x="460" y="125" type="qcurve" smooth="yes"/>
      <point x="460" y="591" type="line" smooth="yes"/>
      <point x="460" y="634"/>
      <point x="427" y="710"/>
      <point x="371" y="767"/>
      <point x="295" y="800"/>
      <point x="252" y="800" type="qcurve" smooth="yes"/>
      <point x="30" y="800" type="line"/>
      <point x="30" y="730" type="line"/>
      <point x="153" y="732" type="line"/>
      <point x="153" y="-14" type="line"/>
      <point x="30" y="-14" type="line"/>
      <point x="30" y="-83" type="line"/>
      <point x="252" y="-83" type="line" smooth="yes"/>
      <point x="295" y="-83"/>
    </contour>
  </outline>
</glyph>
<glyph name="asterisk" format="2">
  <advance width="582"/>
  <unicode hex="002A"/>
  <outline>
    <contour>
      <point x="356" y="663" type="line"/>
      <point x="294" y="583" type="line"/>
      <point x="294" y="672" type="line"/>
      <point x="191" y="672" type="line"/>
      <point x="191" y="595" type="line"/>
      <point x="135" y="662" type="line"/>
      <point x="58" y="591" type="line"/>
      <point x="166" y="462" type="line"/>
      <point x="58" y="338" type="line"/>
      <point x="135" y="271" type="line"/>
      <point x="191" y="334" type="line"/>
      <point x="191" y="242" type="line"/>
      <point x="294" y="242" type="line"/>
      <point x="294" y="345" type="line"/>
      <point x="356" y="270" type="line"/>
      <point x="436" y="335" type="line"/>
      <point x="331" y="462" type="line"/>
      <point x="436" y="594" type="line"/>
    </contour>
    <contour>
      <point x="167" y="210" type="line"/>
      <point x="159" y="210" type="line"/>
      <point x="159" y="217" type="line"/>
      <point x="140" y="228" type="line"/>
      <point x="138" y="226" type="line"/>
      <point x="13" y="335" type="line"/>
      <point x="124" y="463" type="line"/>
      <point x="97" y="495"/>
      <point x="41" y="562"/>
      <point x="14" y="594" type="qcurve"/>
      <point x="135" y="706" type="line"/>
      <point x="143" y="697" type="line"/>
      <point x="159" y="688" type="line"/>
      <point x="159" y="704" type="line"/>
      <point x="326" y="704" type="line"/>
      <point x="326" y="699" type="line"/>
      <point x="339" y="692" type="line"/>
      <point x="352" y="709" type="line"/>
      <point x="364" y="698" type="line"/>
      <point x="442" y="655" type="line"/>
      <point x="566" y="547" type="line"/>
      <point x="459" y="413" type="line"/>
      <point x="567" y="281" type="line"/>
      <point x="444" y="181" type="line"/>
      <point x="413" y="198" type="line"/>
      <point x="413" y="163" type="line"/>
      <point x="252" y="163" type="line"/>
    </contour>
  </outline>
</glyph>
<glyph name="plus" format="2">
  <advance width="672"/>
  <unicode hex="002B"/>
  <outline>
    <contour>
      <point x="560" y="389" type="line"/>
      <point x="647" y="302" type="line"/>
      <point x="647" y="163" type="line"/>
      <point x="451" y="163" type="line"/>
      <point x="451" y="-35" type="line"/>
      <point x="312" y="-35" type="line"/>
      <point x="225" y="52" type="line"/>
      <point x="219" y="52" type="line"/>
      <point x="219" y="163" type="line"/>
      <point x="104" y="163" type="line"/>
      <point x="17" y="250" type="line"/>
      <point x="11" y="250" type="line"/>
      <point x="11" y="395" type="line"/>
      <point x="219" y="395" type="line"/>
      <point x="219" y="601" type="line"/>
      <point x="364" y="601" type="line"/>
      <point x="364" y="595" type="line"/>
      <point x="451" y="508" type="line"/>
      <point x="451" y="395" type="line"/>
      <point x="560" y="395" type="line"/>
    </contour>
    <contour>
      <point x="525" y="360" type="line"/>
      <point x="329" y="360" type="line"/>
      <point x="329" y="566" type="line"/>
      <point x="254" y="566" type="line"/>
      <point x="254" y="360" type="line"/>
      <point x="46" y="360" type="line"/>
      <point x="46" y="285" type="line"/>
      <point x="254" y="285" type="line"/>
      <point x="254" y="87" type="line"/>
      <point x="329" y="87" type="line"/>
      <point x="329" y="285" type="line"/>
      <point x="525" y="285" type="line"/>
    </contour>
  </outline>
</glyph>
<glyph name="comma" format="2">
  <advance width="311"/>
  <unicode hex="002C"/>
  <outline>
    <contour>
      <point x="20" y="127" type="line"/>
      <point x="198" y="127" type="line"/>
      <point x="198" y="121" type="line"/>
      <point x="285" y="34" type="line"/>
      <point x="285" y="-107" type="line"/>
      <point x="113" y="-213" type="line"/>
      <point x="25" y="-125" type="line"/>
      <point x="20" y="-129" type="line"/>
    </contour>
    <contour>
      <point x="55" y="-66" type="line"/>
      <point x="163" y="1" type="line"/>
      <point x="163" y="92" type="line"/>
      <point x="55" y="92" type="line"/>
    </contour>
  </outline>
</glyph>
<glyph name="hyphen" format="2">
  <advance width="672"/>
  <unicode hex="002D"/>
  <outline>
    <contour>
      <point x="564" y="389" type="line"/>
      <point x="651" y="302" type="line"/>
      <point x="651" y="163" type="line"/>
      <point x="108" y="163" type="line"/>
      <point x="21" y="250" type="line"/>
      <point x="15" y="250" type="line"/>
      <point x="15" y="395" type="line"/>
      <point x="564" y="395" type="line"/>
    </contour>
    <contour>
      <point x="529" y="360" type="line"/>
      <point x="50" y="360" type="line"/>
      <point x="50" y="285" type="line"/>
      <point x="529" y="285" type="line"/>
    </contour>
  </outline>
</glyph>
<glyph name="period" format="2">
  <advance width="317"/>
  <unicode hex="002E"/>
  <outline>
    <contour>
      <point x="203" y="139" type="line"/>
      <point x="290" y="52" type="line"/>
      <point x="290" y="-120" type="line"/>
      <point x="118" y="-120" type="line"/>
      <point x="31" y="-33" type="line"/>
      <point x="25" y="-33" type="line"/>
      <point x="25" y="145" type="line"/>
      <point x="203" y="145" type="line"/>
    </contour>
    <contour>
      <point x="168" y="110" type="line"/>
      <point x="60" y="110" type="line"/>
      <point x="60" y="2" type="line"/>
      <point x="168" y="2" type="line"/>
    </contour>
  </outline>
</glyph>
<glyph name="slash" format="2">
  <advance width="411"/>
  <unicode hex="002F"/>
  <outline>
    <contour>
      <point x="306" y="764" type="line"/>
      <point x="305" y="758" type="line"/>
      <point x="392" y="671" type="line"/>
      <point x="232" y="-168" type="line"/>
      <point x="110" y="-168" type="line"/>
      <point x="23" y="-81" type="line"/>
      <point x="16" y="-81" type="line"/>
      <point x="177" y="764" type="line"/>
    </contour>
    <contour>
      <point x="206" y="729" type="line"/>
      <point x="58" y="-46" type="line"/>
      <point x="116" y="-46" type="line"/>
      <point x="264" y="729" type="line"/>
    </contour>
  </outline>
</glyph>
<glyph name="zero" format="2">
  <advance width="837"/>
  <unicode hex="0030"/>
  <outline>
    <contour>
      <point x="479" y="730" type="line" smooth="yes"/>
      <point x="540" y="730"/>
      <point x="643" y="675"/>
      <point x="676" y="628" type="qcurve"/>
      <point x="738" y="567" type="line" smooth="yes"/>
      <point x="771" y="534"/>
      <point x="809" y="447"/>
      <point x="809" y="396" type="qcurve" smooth="yes"/>
      <point x="809" y="111" type="line" smooth="yes"/>
      <point x="809" y="63"/>
      <point x="769" y="-22"/>
      <point x="703" y="-85"/>
      <point x="616" y="-122"/>
      <point x="569" y="-122" type="qcurve" smooth="yes"/>
      <point x="360" y="-122" type="line" smooth="yes"/>
      <point x="309" y="-122"/>
      <point x="222" y="-84"/>
      <point x="190" y="-52" type="qcurve" smooth="yes"/>
      <point x="127" y="10" type="line"/>
      <point x="81" y="43"/>
      <point x="27" y="146"/>
      <point x="27" y="208" type="qcurve" smooth="yes"/>
      <point x="27" y="486" type="line" smooth="yes"/>
      <point x="27" y="537"/>
      <point x="65" y="626"/>
      <point x="131" y="692"/>
      <point x="219" y="730"/>
      <point x="270" y="730" type="qcurve" smooth="yes"/>
    </contour>
    <contour>
      <point x="618" y="232" type="line" smooth="yes"/>
      <point x="618" y="199"/>
      <point x="602" y="139"/>
      <point x="568" y="95"/>
      <point x="516" y="69"/>
      <point x="479" y="69" type="qcurve"/>
      <point x="479" y="260" type="line"/>
      <point x="618" y="399" type="line"/>
    </contour>
    <contour>
      <point x="618" y="486" type="qcurve" smooth="yes"/>
      <point x="618" y="467" type="line"/>
      <point x="479" y="328" type="line"/>
      <point x="479" y="625" type="line"/>
      <point x="508" y="625"/>
      <point x="559" y="603"/>
      <point x="596" y="566"/>
      <point x="618" y="515"/>
    </contour>
    <contour>
      <point x="479" y="695" type="qcurve" smooth="yes"/>
      <point x="270" y="695" type="line" smooth="yes"/>
      <point x="227" y="695"/>
      <point x="151" y="662"/>
      <point x="95" y="605"/>
      <point x="62" y="529"/>
      <point x="62" y="486" type="qcurve" smooth="yes"/>
      <point x="62" y="208" type="line" smooth="yes"/>
      <point x="62" y="165"/>
      <point x="95" y="89"/>
      <point x="151" y="33"/>
      <point x="227" y="0"/>
      <point x="270" y="0" type="qcurve" smooth="yes"/>
      <point x="479" y="0" type="line" smooth="yes"/>
      <point x="519" y="0"/>
      <point x="595" y="32"/>
      <point x="652" y="86"/>
      <point x="687" y="159"/>
      <point x="687" y="201" type="qcurve" smooth="yes"/>
      <point x="687" y="486" type="line" smooth="yes"/>
      <point x="687" y="529"/>
      <point x="654" y="605"/>
      <point x="598" y="662"/>
      <point x="522" y="695"/>
    </contour>
  </outline>
</glyph>
<glyph name="one" format="2">
  <advance width="740"/>
  <unicode hex="0031"/>
  <outline>
    <contour>
      <point x="618" y="724" type="line"/>
      <point x="705" y="637" type="line"/>
      <point x="705" y="-122" type="line"/>
      <point x="223" y="-122" type="line"/>
      <point x="136" y="-35" type="line"/>
      <point x="130" y="-35" type="line"/>
      <point x="130" y="365" type="line"/>
      <point x="99" y="365" type="line"/>
      <point x="12" y="452" type="line"/>
      <point x="4" y="452" type="line"/>
      <point x="143" y="730" type="line"/>
      <point x="618" y="730" type="line"/>
    </contour>
    <contour>
      <point x="583" y="695" type="line"/>
      <point x="165" y="695" type="line"/>
      <point x="61" y="487" type="line"/>
      <point x="131" y="487" type="line"/>
      <point x="165" y="556" type="line"/>
      <point x="165" y="0" type="line"/>
      <point x="583" y="0" type="line"/>
    </contour>
  </outline>
</glyph>
<glyph name="two" format="2">
  <advance width="853"/>
  <unicode hex="0032"/>
  <outline>
    <contour>
      <point x="40" y="-35" type="line"/>
      <point x="34" y="-35" type="line"/>
      <point x="34" y="178" type="line" smooth="yes"/>
      <point x="34" y="194"/>
      <point x="35" y="227"/>
      <point x="39" y="244" type="qcurve" smooth="yes"/>
      <point x="47" y="284"/>
      <point x="85" y="351"/>
      <point x="114" y="377" type="qcurve"/>
      <point x="40" y="452" type="line"/>
      <point x="34" y="452" type="line"/>
      <point x="34" y="500"/>
      <point x="60" y="587"/>
      <point x="106" y="659"/>
      <point x="171" y="710"/>
      <point x="209" y="721" type="qcurve" smooth="yes"/>
      <point x="230" y="727"/>
      <point x="273" y="731"/>
      <point x="295" y="731" type="qcurve" smooth="yes"/>
      <point x="358" y="731"/>
      <point x="450" y="731"/>
      <point x="516" y="728"/>
      <point x="562" y="723"/>
      <point x="580" y="719" type="qcurve" smooth="yes"/>
      <point x="620" y="709"/>
      <point x="669" y="670"/>
      <point x="692" y="637" type="qcurve"/>
      <point x="757" y="573" type="line" smooth="yes"/>
      <point x="784" y="546"/>
      <point x="816" y="475"/>
      <point x="816" y="434" type="qcurve" smooth="yes"/>
      <point x="816" y="238" type="line" smooth="yes"/>
      <point x="816" y="189"/>
      <point x="783" y="105"/>
      <point x="752" y="75" type="qcurve"/>
      <point x="816" y="12" type="line"/>
      <point x="816" y="-122" type="line"/>
      <point x="127" y="-122" type="line"/>
    </contour>
    <contour>
      <point x="694" y="524" type="line" smooth="yes"/>
      <point x="694" y="556"/>
      <point x="673" y="612"/>
      <point x="635" y="655"/>
      <point x="583" y="686"/>
      <point x="553" y="692" type="qcurve" smooth="yes"/>
      <point x="530" y="697"/>
      <point x="475" y="697"/>
      <point x="451" y="697" type="qcurve" smooth="yes"/>
      <point x="412" y="697"/>
      <point x="334" y="696"/>
      <point x="295" y="696" type="qcurve" smooth="yes"/>
      <point x="276" y="696"/>
      <point x="238" y="692"/>
      <point x="219" y="687" type="qcurve" smooth="yes"/>
      <point x="186" y="678"/>
      <point x="131" y="638"/>
      <point x="91" y="585"/>
      <point x="69" y="521"/>
      <point x="69" y="487" type="qcurve"/>
      <point x="139" y="487" type="line"/>
      <point x="139" y="515"/>
      <point x="161" y="566"/>
      <point x="198" y="603"/>
      <point x="248" y="625"/>
      <point x="277" y="625" type="qcurve"/>
      <point x="277" y="404" type="line"/>
      <point x="241" y="404"/>
      <point x="173" y="379"/>
      <point x="118" y="334"/>
      <point x="80" y="273"/>
      <point x="73" y="237" type="qcurve" smooth="yes"/>
      <point x="70" y="223"/>
      <point x="69" y="193"/>
      <point x="69" y="178" type="qcurve" smooth="yes"/>
      <point x="69" y="0" type="line"/>
      <point x="694" y="0" type="line"/>
      <point x="694" y="70" type="line"/>
      <point x="278" y="70" type="line"/>
      <point x="278" y="142" type="line"/>
      <point x="520" y="142" type="line" smooth="yes"/>
      <point x="560" y="142"/>
      <point x="625" y="171"/>
      <point x="670" y="222"/>
      <point x="694" y="289"/>
      <point x="694" y="328" type="qcurve" smooth="yes"/>
    </contour>
  </outline>
</glyph>
<glyph name="three" format="2">
  <advance width="840"/>
  <unicode hex="0033"/>
  <outline>
    <contour>
      <point x="515" y="729" type="line" smooth="yes"/>
      <point x="569" y="729"/>
      <point x="659" y="681"/>
      <point x="687" y="639" type="qcurve"/>
      <point x="751" y="576" type="line" smooth="yes"/>
      <point x="779" y="548"/>
      <point x="811" y="474"/>
      <point x="811" y="431" type="qcurve" smooth="yes"/>
      <point x="811" y="377"/>
      <point x="762" y="288"/>
      <point x="720" y="260" type="qcurve"/>
      <point x="751" y="229" type="line" smooth="yes"/>
      <point x="779" y="201"/>
      <point x="811" y="127"/>
      <point x="811" y="84" type="qcurve" smooth="yes"/>
      <point x="811" y="41"/>
      <point x="779" y="-34"/>
      <point x="723" y="-90"/>
      <point x="648" y="-122"/>
      <point x="605" y="-122" type="qcurve" smooth="yes"/>
      <point x="362" y="-122" type="line" smooth="yes"/>
      <point x="316" y="-122"/>
      <point x="236" y="-86"/>
      <point x="204" y="-54" type="qcurve" smooth="yes"/>
      <point x="141" y="8" type="line"/>
      <point x="90" y="46"/>
      <point x="29" y="168"/>
      <point x="29" y="243" type="qcurve"/>
      <point x="168" y="243" type="line"/>
      <point x="168" y="237" type="line"/>
      <point x="237" y="168" type="line"/>
      <point x="237" y="206" type="line"/>
      <point x="166" y="277" type="line"/>
      <point x="160" y="277" type="line"/>
      <point x="160" y="364" type="line"/>
      <point x="122" y="364" type="line"/>
      <point x="35" y="451" type="line"/>
      <point x="29" y="451" type="line"/>
      <point x="29" y="508"/>
      <point x="67" y="610"/>
      <point x="133" y="685"/>
      <point x="221" y="729"/>
      <point x="272" y="729" type="qcurve" smooth="yes"/>
    </contour>
    <contour>
      <point x="515" y="694" type="qcurve" smooth="yes"/>
      <point x="272" y="694" type="line" smooth="yes"/>
      <point x="229" y="694"/>
      <point x="153" y="661"/>
      <point x="97" y="605"/>
      <point x="64" y="529"/>
      <point x="64" y="486" type="qcurve"/>
      <point x="133" y="486" type="line"/>
      <point x="133" y="515"/>
      <point x="155" y="566"/>
      <point x="192" y="603"/>
      <point x="243" y="625"/>
      <point x="272" y="625" type="qcurve"/>
      <point x="272" y="382" type="line"/>
      <point x="195" y="382" type="line"/>
      <point x="195" y="312" type="line"/>
      <point x="272" y="312" type="line"/>
      <point x="272" y="69" type="line"/>
      <point x="243" y="69"/>
      <point x="193" y="91"/>
      <point x="155" y="129"/>
      <point x="133" y="179"/>
      <point x="133" y="208" type="qcurve"/>
      <point x="64" y="208" type="line"/>
      <point x="64" y="165"/>
      <point x="97" y="89"/>
      <point x="153" y="33"/>
      <point x="229" y="0"/>
      <point x="272" y="0" type="qcurve" smooth="yes"/>
      <point x="515" y="0" type="line" smooth="yes"/>
      <point x="551" y="0"/>
      <point x="614" y="27"/>
      <point x="662" y="75"/>
      <point x="689" y="138"/>
      <point x="689" y="174" type="qcurve" smooth="yes"/>
      <point x="689" y="210"/>
      <point x="662" y="273"/>
      <point x="614" y="320"/>
      <point x="551" y="347"/>
      <point x="515" y="347" type="qcurve"/>
      <point x="551" y="347"/>
      <point x="614" y="374"/>
      <point x="662" y="422"/>
      <point x="689" y="485"/>
      <point x="689" y="521" type="qcurve" smooth="yes"/>
      <point x="689" y="557"/>
      <point x="662" y="620"/>
      <point x="614" y="667"/>
      <point x="551" y="694"/>
    </contour>
  </outline>
</glyph>
<glyph name="four" format="2">
  <advance width="817"/>
  <unicode hex="0034"/>
  <outline>
    <contour>
      <point x="36" y="313" type="line"/>
      <point x="30" y="313" type="line"/>
      <point x="30" y="424" type="line"/>
      <point x="167" y="730" type="line"/>
      <point x="643" y="730" type="line"/>
      <point x="643" y="724" type="line"/>
      <point x="730" y="637" type="line"/>
      <point x="730" y="428" type="line"/>
      <point x="799" y="359" type="line"/>
      <point x="799" y="226" type="line"/>
      <point x="730" y="226" type="line"/>
      <point x="730" y="-122" type="line"/>
      <point x="248" y="-122" type="line"/>
      <point x="161" y="-35" type="line"/>
      <point x="155" y="-35" type="line"/>
      <point x="155" y="226" type="line"/>
      <point x="123" y="226" type="line"/>
    </contour>
    <contour>
      <point x="190" y="417" type="line"/>
      <point x="135" y="417" type="line"/>
      <point x="190" y="541" type="line"/>
    </contour>
    <contour>
      <point x="677" y="417" type="line"/>
      <point x="608" y="417" type="line"/>
      <point x="608" y="695" type="line"/>
      <point x="190" y="695" type="line"/>
      <point x="65" y="417" type="line"/>
      <point x="65" y="348" type="line"/>
      <point x="190" y="348" type="line"/>
      <point x="190" y="0" type="line"/>
      <point x="608" y="0" type="line"/>
      <point x="608" y="348" type="line"/>
      <point x="677" y="348" type="line"/>
    </contour>
  </outline>
</glyph>
<glyph name="five" format="2">
  <advance width="850"/>
  <unicode hex="0035"/>
  <outline>
    <contour>
      <point x="400" y="486" type="line"/>
      <point x="521" y="486" type="line" smooth="yes"/>
      <point x="574" y="486"/>
      <point x="662" y="438"/>
      <point x="691" y="399" type="qcurve"/>
      <point x="757" y="333" type="line" smooth="yes"/>
      <point x="785" y="305"/>
      <point x="817" y="230"/>
      <point x="817" y="187" type="qcurve" smooth="yes"/>
      <point x="817" y="83" type="line" smooth="yes"/>
      <point x="817" y="40"/>
      <point x="785" y="-35"/>
      <point x="729" y="-90"/>
      <point x="654" y="-122"/>
      <point x="611" y="-122" type="qcurve" smooth="yes"/>
      <point x="368" y="-122" type="line" smooth="yes"/>
      <point x="322" y="-122"/>
      <point x="240" y="-86"/>
      <point x="208" y="-54" type="qcurve" smooth="yes"/>
      <point x="141" y="12" type="line"/>
      <point x="92" y="50"/>
      <point x="34" y="171"/>
      <point x="34" y="243" type="qcurve"/>
      <point x="174" y="243" type="line"/>
      <point x="174" y="237" type="line"/>
      <point x="243" y="168" type="line"/>
      <point x="243" y="260" type="line"/>
      <point x="127" y="260" type="line"/>
      <point x="40" y="347" type="line"/>
      <point x="34" y="347" type="line"/>
      <point x="34" y="729" type="line"/>
      <point x="730" y="729" type="line"/>
      <point x="730" y="723" type="line"/>
      <point x="817" y="636" type="line"/>
      <point x="817" y="503" type="line"/>
      <point x="400" y="503" type="line"/>
    </contour>
    <contour>
      <point x="695" y="173" type="qcurve" smooth="yes"/>
      <point x="695" y="277" type="line" smooth="yes"/>
      <point x="695" y="313"/>
      <point x="668" y="376"/>
      <point x="620" y="424"/>
      <point x="557" y="451"/>
      <point x="521" y="451" type="qcurve" smooth="yes"/>
      <point x="278" y="451" type="line"/>
      <point x="278" y="625" type="line"/>
      <point x="695" y="625" type="line"/>
      <point x="695" y="694" type="line"/>
      <point x="69" y="694" type="line"/>
      <point x="69" y="382" type="line"/>
      <point x="278" y="382" type="line"/>
      <point x="278" y="69" type="line"/>
      <point x="249" y="69"/>
      <point x="198" y="91"/>
      <point x="161" y="128"/>
      <point x="139" y="179"/>
      <point x="139" y="208" type="qcurve"/>
      <point x="69" y="208" type="line"/>
      <point x="69" y="165"/>
      <point x="102" y="89"/>
      <point x="159" y="33"/>
      <point x="235" y="0"/>
      <point x="278" y="0" type="qcurve" smooth="yes"/>
      <point x="521" y="0" type="line" smooth="yes"/>
      <point x="557" y="0"/>
      <point x="620" y="27"/>
      <point x="668" y="74"/>
      <point x="695" y="137"/>
    </contour>
  </outline>
</glyph>
<glyph name="six" format="2">
  <advance width="843"/>
  <unicode hex="0036"/>
  <outline>
    <contour>
      <point x="134" y="9" type="line"/>
      <point x="87" y="42"/>
      <point x="31" y="146"/>
      <point x="31" y="209" type="qcurve" smooth="yes"/>
      <point x="31" y="522" type="line" smooth="yes"/>
      <point x="31" y="565"/>
      <point x="64" y="641"/>
      <point x="120" y="698"/>
      <point x="196" y="730"/>
      <point x="240" y="730" type="qcurve" smooth="yes"/>
      <point x="483" y="730" type="line" smooth="yes"/>
      <point x="537" y="730"/>
      <point x="630" y="680"/>
      <point x="664" y="638" type="qcurve"/>
      <point x="733" y="569" type="line" smooth="yes"/>
      <point x="771" y="531"/>
      <point x="814" y="426"/>
      <point x="814" y="365" type="qcurve"/>
      <point x="680" y="365" type="line"/>
      <point x="745" y="288" type="line"/>
      <point x="777" y="256"/>
      <point x="814" y="170"/>
      <point x="814" y="120" type="qcurve" smooth="yes"/>
      <point x="814" y="69"/>
      <point x="777" y="-19"/>
      <point x="713" y="-85"/>
      <point x="624" y="-122"/>
      <point x="573" y="-122" type="qcurve" smooth="yes"/>
      <point x="365" y="-122" type="line" smooth="yes"/>
      <point x="314" y="-122"/>
      <point x="228" y="-84"/>
      <point x="195" y="-51" type="qcurve" smooth="yes"/>
    </contour>
    <contour>
      <point x="622" y="209" type="qcurve" smooth="yes"/>
      <point x="622" y="180"/>
      <point x="600" y="129"/>
      <point x="563" y="92"/>
      <point x="512" y="70"/>
      <point x="483" y="70" type="qcurve"/>
      <point x="483" y="348" type="line"/>
      <point x="511" y="348"/>
      <point x="562" y="326"/>
      <point x="600" y="288"/>
      <point x="622" y="237"/>
    </contour>
    <contour>
      <point x="692" y="487" type="line"/>
      <point x="692" y="530"/>
      <point x="659" y="606"/>
      <point x="602" y="662"/>
      <point x="526" y="695"/>
      <point x="483" y="695" type="qcurve" smooth="yes"/>
      <point x="240" y="695" type="line" smooth="yes"/>
      <point x="204" y="695"/>
      <point x="141" y="668"/>
      <point x="93" y="621"/>
      <point x="66" y="558"/>
      <point x="66" y="522" type="qcurve" smooth="yes"/>
      <point x="66" y="209" type="line" smooth="yes"/>
      <point x="66" y="166"/>
      <point x="99" y="90"/>
      <point x="156" y="33"/>
      <point x="232" y="0"/>
      <point x="275" y="0" type="qcurve" smooth="yes"/>
      <point x="483" y="0" type="line" smooth="yes"/>
      <point x="528" y="0"/>
      <point x="604" y="32"/>
      <point x="660" y="89"/>
      <point x="692" y="166"/>
      <point x="692" y="210" type="qcurve" smooth="yes"/>
      <point x="692" y="253"/>
      <point x="659" y="329"/>
      <point x="602" y="385"/>
      <point x="526" y="417"/>
      <point x="483" y="417" type="qcurve"/>
      <point x="483" y="626" type="line"/>
      <point x="512" y="626"/>
      <point x="563" y="604"/>
      <point x="600" y="567"/>
      <point x="622" y="516"/>
      <point x="622" y="487" type="qcurve"/>
    </contour>
  </outline>
</glyph>
<glyph name="seven" format="2">
  <advance width="907"/>
  <unicode hex="0037"/>
  <outline>
    <contour>
      <point x="850" y="724" type="line"/>
      <point x="938" y="637" type="line"/>
      <point x="596" y="-122" type="line"/>
      <point x="110" y="-122" type="line"/>
      <point x="23" y="-35" type="line"/>
      <point x="15" y="-35" type="line"/>
      <point x="257" y="504" type="line"/>
      <point x="127" y="504" type="line"/>
      <point x="40" y="591" type="line"/>
      <point x="34" y="591" type="line"/>
      <point x="34" y="730" type="line"/>
      <point x="853" y="730" type="line"/>
    </contour>
    <contour>
      <point x="799" y="695" type="line"/>
      <point x="69" y="695" type="line"/>
      <point x="69" y="626" type="line"/>
      <point x="350" y="626" type="line"/>
      <point x="69" y="0" type="line"/>
      <point x="486" y="0" type="line"/>
    </contour>
  </outline>
</glyph>
<glyph name="eight" format="2">
  <advance width="837"/>
  <unicode hex="0038"/>
  <outline>
    <contour>
      <point x="126" y="10" type="line"/>
      <point x="79" y="44"/>
      <point x="25" y="149"/>
      <point x="25" y="212" type="qcurve" smooth="yes"/>
      <point x="25" y="266"/>
      <point x="68" y="356"/>
      <point x="106" y="390" type="qcurve"/>
      <point x="85" y="417"/>
      <point x="60" y="484"/>
      <point x="60" y="519" type="qcurve" smooth="yes"/>
      <point x="60" y="563"/>
      <point x="92" y="640"/>
      <point x="149" y="697"/>
      <point x="226" y="730"/>
      <point x="270" y="730" type="qcurve" smooth="yes"/>
      <point x="478" y="730" type="line" smooth="yes"/>
      <point x="532" y="730"/>
      <point x="620" y="683"/>
      <point x="648" y="643" type="qcurve"/>
      <point x="714" y="578" type="line" smooth="yes"/>
      <point x="742" y="550"/>
      <point x="774" y="474"/>
      <point x="774" y="430" type="qcurve" smooth="yes"/>
      <point x="774" y="356"/>
      <point x="727" y="300" type="qcurve"/>
      <point x="740" y="287" type="line" smooth="yes"/>
      <point x="772" y="255"/>
      <point x="808" y="170"/>
      <point x="808" y="121" type="qcurve" smooth="yes"/>
      <point x="808" y="70"/>
      <point x="771" y="-19"/>
      <point x="707" y="-84"/>
      <point x="619" y="-122"/>
      <point x="568" y="-122" type="qcurve" smooth="yes"/>
      <point x="360" y="-122" type="line" smooth="yes"/>
      <point x="309" y="-122"/>
      <point x="221" y="-84"/>
      <point x="189" y="-52" type="qcurve" smooth="yes"/>
    </contour>
    <contour>
      <point x="582" y="522" type="qcurve" smooth="yes"/>
      <point x="582" y="477"/>
      <point x="523" y="417"/>
      <point x="478" y="417" type="qcurve"/>
      <point x="478" y="626" type="line"/>
      <point x="522" y="626"/>
      <point x="582" y="566"/>
    </contour>
    <contour>
      <point x="617" y="209" type="qcurve" smooth="yes"/>
      <point x="617" y="180"/>
      <point x="595" y="129"/>
      <point x="558" y="92"/>
      <point x="507" y="70"/>
      <point x="478" y="70" type="qcurve"/>
      <point x="478" y="348" type="line"/>
      <point x="506" y="348"/>
      <point x="557" y="326"/>
      <point x="595" y="288"/>
      <point x="617" y="237"/>
    </contour>
    <contour>
      <point x="587" y="386" type="qcurve"/>
      <point x="618" y="411"/>
      <point x="652" y="480"/>
      <point x="652" y="520" type="qcurve" smooth="yes"/>
      <point x="652" y="557"/>
      <point x="625" y="621"/>
      <point x="578" y="668"/>
      <point x="515" y="695"/>
      <point x="478" y="695" type="qcurve" smooth="yes"/>
      <point x="270" y="695" type="line" smooth="yes"/>
      <point x="233" y="695"/>
      <point x="169" y="668"/>
      <point x="122" y="620"/>
      <point x="95" y="556"/>
      <point x="95" y="519" type="qcurve" smooth="yes"/>
      <point x="95" y="480"/>
      <point x="129" y="411"/>
      <point x="160" y="386" type="qcurve"/>
      <point x="113" y="357"/>
      <point x="60" y="268"/>
      <point x="60" y="212" type="qcurve" smooth="yes"/>
      <point x="60" y="168"/>
      <point x="92" y="91"/>
      <point x="149" y="33"/>
      <point x="225" y="0"/>
      <point x="270" y="0" type="qcurve" smooth="yes"/>
      <point x="478" y="0" type="line" smooth="yes"/>
      <point x="522" y="0"/>
      <point x="598" y="33"/>
      <point x="654" y="90"/>
      <point x="686" y="167"/>
      <point x="686" y="211" type="qcurve" smooth="yes"/>
      <point x="686" y="266"/>
      <point x="634" y="357"/>
    </contour>
  </outline>
</glyph>
<glyph name="nine" format="2">
  <advance width="847"/>
  <unicode hex="0039"/>
  <outline>
    <contour>
      <point x="133" y="9" type="line"/>
      <point x="86" y="42"/>
      <point x="30" y="146"/>
      <point x="30" y="209" type="qcurve" smooth="yes"/>
      <point x="30" y="279" type="line"/>
      <point x="165" y="279" type="line"/>
      <point x="117" y="327" type="line"/>
      <point x="79" y="353"/>
      <point x="30" y="434"/>
      <point x="30" y="487" type="qcurve" smooth="yes"/>
      <point x="30" y="538"/>
      <point x="68" y="627"/>
      <point x="134" y="693"/>
      <point x="223" y="731"/>
      <point x="274" y="731" type="qcurve" smooth="yes"/>
      <point x="482" y="731" type="line" smooth="yes"/>
      <point x="544" y="731"/>
      <point x="648" y="674"/>
      <point x="681" y="627" type="qcurve"/>
      <point x="742" y="567" type="line" smooth="yes"/>
      <point x="775" y="534"/>
      <point x="813" y="447"/>
      <point x="813" y="397" type="qcurve" smooth="yes"/>
      <point x="813" y="119" type="line" smooth="yes"/>
      <point x="813" y="69"/>
      <point x="775" y="-19"/>
      <point x="710" y="-84"/>
      <point x="622" y="-122"/>
      <point x="572" y="-122" type="qcurve" smooth="yes"/>
      <point x="364" y="-122" type="line" smooth="yes"/>
      <point x="313" y="-122"/>
      <point x="227" y="-84"/>
      <point x="194" y="-51" type="qcurve" smooth="yes"/>
    </contour>
    <contour>
      <point x="622" y="383" type="line"/>
      <point x="482" y="383" type="line"/>
      <point x="482" y="626" type="line"/>
      <point x="511" y="626"/>
      <point x="562" y="604"/>
      <point x="600" y="567"/>
      <point x="622" y="516"/>
      <point x="622" y="487" type="qcurve" smooth="yes"/>
    </contour>
    <contour>
      <point x="691" y="209" type="qcurve" smooth="yes"/>
      <point x="691" y="487" type="line" smooth="yes"/>
      <point x="691" y="530"/>
      <point x="658" y="606"/>
      <point x="601" y="663"/>
      <point x="525" y="696"/>
      <point x="482" y="696" type="qcurve" smooth="yes"/>
      <point x="274" y="696" type="line" smooth="yes"/>
      <point x="231" y="696"/>
      <point x="155" y="663"/>
      <point x="98" y="606"/>
      <point x="65" y="530"/>
      <point x="65" y="487" type="qcurve" smooth="yes"/>
      <point x="65" y="446"/>
      <point x="102" y="381"/>
      <point x="162" y="336"/>
      <point x="237" y="313"/>
      <point x="274" y="313" type="qcurve" smooth="yes"/>
      <point x="622" y="313" type="line"/>
      <point x="622" y="209" type="line" smooth="yes"/>
      <point x="622" y="180"/>
      <point x="600" y="129"/>
      <point x="562" y="92"/>
      <point x="511" y="70"/>
      <point x="482" y="70" type="qcurve"/>
      <point x="482" y="244" type="line"/>
      <point x="65" y="244" type="line"/>
      <point x="65" y="209" type="line" smooth="yes"/>
      <point x="65" y="166"/>
      <point x="98" y="90"/>
      <point x="155" y="33"/>
      <point x="231" y="0"/>
      <point x="274" y="0" type="qcurve" smooth="yes"/>
      <point x="482" y="0" type="line" smooth="yes"/>
      <point x="525" y="0"/>
      <point x="601" y="33"/>
      <point x="658" y="90"/>
      <point x="691" y="166"/>
    </contour>
  </outline>
</glyph>
<glyph name="colon" format="2">
  <advance width="320"/>
  <unicode hex="003A"/>
  <outline>
    <contour>
      <point x="202" y="126" type="line"/>
      <point x="202" y="120" type="line"/>
      <point x="289" y="33" type="line"/>
      <point x="289" y="-122" type="line"/>
      <point x="117" y="-122" type="line"/>
      <point x="30" y="-35" type="line"/>
      <point x="24" y="-35" type="line"/>
      <point x="24" y="126" type="line"/>
    </contour>
    <contour>
      <point x="201" y="716" type="line"/>
      <point x="201" y="710" type="line"/>
      <point x="288" y="623" type="line"/>
      <point x="288" y="468" type="line"/>
      <point x="116" y="468" type="line"/>
      <point x="29" y="555" type="line"/>
      <point x="23" y="555" type="line"/>
      <point x="23" y="716" type="line"/>
    </contour>
    <contour>
      <point x="58" y="681" type="line"/>
      <point x="58" y="590" type="line"/>
      <point x="166" y="590" type="line"/>
      <point x="166" y="681" type="line"/>
    </contour>
    <contour>
      <point x="59" y="91" type="line"/>
      <point x="59" y="0" type="line"/>
      <point x="167" y="0" type="line"/>
      <point x="167" y="91" type="line"/>
    </contour>
  </outline>
</glyph>
<glyph name="semicolon" format="2">
  <advance width="333"/>
  <unicode hex="003B"/>
  <outline>
    <contour>
      <point x="208" y="716" type="line"/>
      <point x="208" y="710" type="line"/>
      <point x="295" y="623" type="line"/>
      <point x="295" y="468" type="line"/>
      <point x="123" y="468" type="line"/>
      <point x="36" y="555" type="line"/>
      <point x="30" y="555" type="line"/>
      <point x="30" y="716" type="line"/>
    </contour>
    <contour>
      <point x="210" y="126" type="line"/>
      <point x="210" y="120" type="line"/>
      <point x="297" y="33" type="line"/>
      <point x="297" y="-108" type="line"/>
      <point x="125" y="-214" type="line"/>
      <point x="37" y="-126" type="line"/>
      <point x="32" y="-130" type="line"/>
      <point x="32" y="126" type="line"/>
    </contour>
    <contour>
      <point x="65" y="681" type="line"/>
      <point x="65" y="590" type="line"/>
      <point x="173" y="590" type="line"/>
      <point x="173" y="681" type="line"/>
    </contour>
    <contour>
      <point x="67" y="91" type="line"/>
      <point x="67" y="-67" type="line"/>
      <point x="175" y="0" type="line"/>
      <point x="175" y="91" type="line"/>
    </contour>
  </outline>
</glyph>
<glyph name="equal" format="2">
  <advance width="979"/>
  <unicode hex="003D"/>
  <outline>
    <contour>
      <point x="867" y="504" type="line"/>
      <point x="954" y="417" type="line"/>
      <point x="954" y="278" type="line"/>
      <point x="908" y="278" type="line"/>
      <point x="954" y="232" type="line"/>
      <point x="954" y="93" type="line"/>
      <point x="107" y="93" type="line"/>
      <point x="20" y="180" type="line"/>
      <point x="14" y="180" type="line"/>
      <point x="14" y="325" type="line"/>
      <point x="60" y="325" type="line"/>
      <point x="20" y="365" type="line"/>
      <point x="14" y="365" type="line"/>
      <point x="14" y="510" type="line"/>
      <point x="867" y="510" type="line"/>
    </contour>
    <contour>
      <point x="832" y="475" type="line"/>
      <point x="49" y="475" type="line"/>
      <point x="49" y="400" type="line"/>
      <point x="832" y="400" type="line"/>
    </contour>
    <contour>
      <point x="832" y="290" type="line"/>
      <point x="49" y="290" type="line"/>
      <point x="49" y="215" type="line"/>
      <point x="832" y="215" type="line"/>
    </contour>
  </outline>
</glyph>
<glyph name="greater" format="2">
  <advance width="693"/>
  <unicode hex="003E"/>
  <outline>
    <contour>
      <point x="13" y="121" type="line"/>
      <point x="350" y="334" type="line"/>
      <point x="107" y="490" type="line"/>
      <point x="30" y="567" type="line"/>
      <point x="13" y="578" type="line"/>
      <point x="70" y="724" type="line"/>
      <point x="563" y="411" type="line"/>
      <point x="563" y="406" type="line"/>
      <point x="650" y="319" type="line"/>
      <point x="650" y="200" type="line"/>
      <point x="161" y="-110" type="line"/>
      <point x="73" y="-22" type="line"/>
      <point x="70" y="-25" type="line"/>
    </contour>
    <contour>
      <point x="87" y="28" type="line"/>
      <point x="528" y="308" type="line"/>
      <point x="528" y="391" type="line"/>
      <point x="87" y="671" type="line"/>
      <point x="56" y="593" type="line"/>
      <point x="439" y="349" type="line"/>
      <point x="56" y="106" type="line"/>
    </contour>
  </outline>
</glyph>
<glyph name="question" format="2">
  <advance width="960"/>
  <unicode hex="003F"/>
  <outline>
    <contour>
      <point x="35" y="453" type="line"/>
      <point x="29" y="453" type="line"/>
      <point x="29" y="501"/>
      <point x="55" y="588"/>
      <point x="101" y="660"/>
      <point x="166" y="711"/>
      <point x="204" y="722" type="qcurve" smooth="yes"/>
      <point x="225" y="728"/>
      <point x="268" y="732"/>
      <point x="290" y="732" type="qcurve" smooth="yes"/>
      <point x="353" y="732" type="line"/>
      <point x="422" y="731"/>
      <point x="548" y="733"/>
      <point x="611" y="733" type="qcurve" smooth="yes"/>
      <point x="628" y="733"/>
      <point x="659" y="731"/>
      <point x="674" y="727" type="qcurve" smooth="yes"/>
      <point x="712" y="716"/>
      <point x="781" y="669"/>
      <point x="804" y="636" type="qcurve"/>
      <point x="869" y="572" type="line" smooth="yes"/>
      <point x="896" y="545"/>
      <point x="929" y="475"/>
      <point x="929" y="435" type="qcurve" smooth="yes"/>
      <point x="929" y="328" type="line" smooth="yes"/>
      <point x="929" y="283"/>
      <point x="900" y="203"/>
      <point x="847" y="144"/>
      <point x="771" y="110"/>
      <point x="723" y="110" type="qcurve" smooth="yes"/>
      <point x="704" y="110" type="line"/>
      <point x="704" y="25" type="line"/>
      <point x="703" y="25" type="line"/>
      <point x="703" y="-122" type="line"/>
      <point x="330" y="-122" type="line"/>
      <point x="243" y="-35" type="line"/>
      <point x="237" y="-35" type="line"/>
      <point x="237" y="126" type="line"/>
      <point x="238" y="126" type="line"/>
      <point x="237" y="366" type="line"/>
      <point x="122" y="366" type="line"/>
    </contour>
    <contour>
      <point x="272" y="91" type="line"/>
      <point x="272" y="0" type="line"/>
      <point x="581" y="0" type="line"/>
      <point x="581" y="91" type="line"/>
    </contour>
    <contour>
      <point x="807" y="525" type="line" smooth="yes"/>
      <point x="807" y="557"/>
      <point x="786" y="612"/>
      <point x="748" y="656"/>
      <point x="696" y="686"/>
      <point x="666" y="693" type="qcurve" smooth="yes"/>
      <point x="638" y="699"/>
      <point x="574" y="696"/>
      <point x="545" y="696" type="qcurve" smooth="yes"/>
      <point x="481" y="696"/>
      <point x="354" y="697"/>
      <point x="290" y="697" type="qcurve" smooth="yes"/>
      <point x="271" y="697"/>
      <point x="233" y="693"/>
      <point x="214" y="688" type="qcurve" smooth="yes"/>
      <point x="181" y="679"/>
      <point x="126" y="639"/>
      <point x="86" y="586"/>
      <point x="64" y="522"/>
      <point x="64" y="488" type="qcurve"/>
      <point x="134" y="488" type="line"/>
      <point x="134" y="516"/>
      <point x="156" y="567"/>
      <point x="193" y="604"/>
      <point x="243" y="626"/>
      <point x="272" y="626" type="qcurve"/>
      <point x="273" y="147" type="line"/>
      <point x="582" y="147" type="line"/>
      <point x="582" y="232" type="line"/>
      <point x="633" y="232" type="line" smooth="yes"/>
      <point x="673" y="232"/>
      <point x="738" y="261"/>
      <point x="783" y="312"/>
      <point x="807" y="379"/>
      <point x="807" y="418" type="qcurve" smooth="yes"/>
    </contour>
  </outline>
</glyph>
<glyph name="at" format="2">
  <advance width="1076"/>
  <unicode hex="0040"/>
  <outline>
    <contour>
      <point x="785" y="415" type="line"/>
      <point x="781" y="422"/>
      <point x="773" y="434"/>
      <point x="768" y="441" type="qcurve"/>
      <point x="750" y="452" type="line"/>
      <point x="752" y="450"/>
      <point x="754" y="446" type="qcurve"/>
    </contour>
    <contour>
      <point x="391" y="45" type="line"/>
      <point x="446" y="46" type="line"/>
      <point x="446" y="155" type="line"/>
      <point x="422" y="152"/>
      <point x="391" y="116"/>
      <point x="391" y="93" type="qcurve" smooth="yes"/>
    </contour>
    <contour>
      <point x="58" y="421" type="line"/>
      <point x="96" y="508"/>
      <point x="158" y="567" type="qcurve"/>
      <point x="190" y="600"/>
      <point x="265" y="649"/>
      <point x="306" y="668" type="qcurve"/>
      <point x="395" y="705"/>
      <point x="487" y="705" type="qcurve" smooth="yes"/>
      <point x="579" y="705"/>
      <point x="668" y="668" type="qcurve"/>
      <point x="755" y="629"/>
      <point x="816" y="568" type="qcurve" smooth="yes"/>
      <point x="825" y="558"/>
      <point x="843" y="540"/>
      <point x="851" y="529" type="qcurve"/>
      <point x="904" y="476" type="line" smooth="yes"/>
      <point x="964" y="416"/>
      <point x="1003" y="329" type="qcurve"/>
      <point x="1040" y="240"/>
      <point x="1040" y="149" type="qcurve" smooth="yes"/>
      <point x="1040" y="57"/>
      <point x="1003" y="-32" type="qcurve" smooth="yes"/>
      <point x="992" y="-58"/>
      <point x="959" y="-111"/>
      <point x="939" y="-137" type="qcurve"/>
      <point x="947" y="-145" type="line"/>
      <point x="886" y="-196"/>
      <point x="790" y="-263"/>
      <point x="757" y="-278" type="qcurve"/>
      <point x="670" y="-314"/>
      <point x="577" y="-314" type="qcurve" smooth="yes"/>
      <point x="484" y="-314"/>
      <point x="397" y="-278" type="qcurve" smooth="yes"/>
      <point x="358" y="-261"/>
      <point x="287" y="-214"/>
      <point x="255" y="-182" type="qcurve" smooth="yes"/>
      <point x="250" y="-177" type="line"/>
      <point x="250" y="-178" type="line"/>
      <point x="200" y="-128" type="line"/>
      <point x="189" y="-119"/>
      <point x="168" y="-101"/>
      <point x="158" y="-90" type="qcurve" smooth="yes"/>
      <point x="93" y="-25"/>
      <point x="57" y="57" type="qcurve"/>
      <point x="21" y="144"/>
      <point x="21" y="239" type="qcurve" smooth="yes"/>
      <point x="21" y="333"/>
      <point x="57" y="420" type="qcurve"/>
    </contour>
    <contour>
      <point x="481" y="278" type="line"/>
      <point x="481" y="11" type="line"/>
      <point x="364" y="10" type="line"/>
      <point x="314" y="10"/>
      <point x="269" y="75"/>
      <point x="269" y="120" type="qcurve" smooth="yes"/>
      <point x="269" y="183" type="line" smooth="yes"/>
      <point x="269" y="202"/>
      <point x="284" y="237"/>
      <point x="309" y="263"/>
      <point x="344" y="278"/>
      <point x="364" y="278" type="qcurve" smooth="yes"/>
    </contour>
    <contour>
      <point x="90" y="407" type="qcurve"/>
      <point x="56" y="325"/>
      <point x="56" y="239" type="qcurve" smooth="yes"/>
      <point x="56" y="154"/>
      <point x="90" y="71" type="qcurve"/>
      <point x="124" y="-7"/>
      <point x="183" y="-65" type="qcurve" smooth="yes"/>
      <point x="212" y="-95"/>
      <point x="282" y="-141"/>
      <point x="320" y="-158" type="qcurve"/>
      <point x="402" y="-192"/>
      <point x="487" y="-192" type="qcurve" smooth="yes"/>
      <point x="573" y="-192"/>
      <point x="655" y="-158" type="qcurve"/>
      <point x="716" y="-131"/>
      <point x="768" y="-87" type="qcurve"/>
      <point x="685" y="-87" type="line"/>
      <point x="641" y="-113"/>
      <point x="542" y="-143"/>
      <point x="487" y="-143" type="qcurve" smooth="yes"/>
      <point x="408" y="-143"/>
      <point x="269" y="-83"/>
      <point x="165" y="21"/>
      <point x="105" y="160"/>
      <point x="105" y="239" type="qcurve" smooth="yes"/>
      <point x="105" y="318"/>
      <point x="165" y="457"/>
      <point x="269" y="561"/>
      <point x="408" y="621"/>
      <point x="487" y="621" type="qcurve" smooth="yes"/>
      <point x="566" y="621"/>
      <point x="705" y="561"/>
      <point x="809" y="457"/>
      <point x="869" y="318"/>
      <point x="869" y="239" type="qcurve" smooth="yes"/>
      <point x="869" y="174"/>
      <point x="828" y="58"/>
      <point x="792" y="10" type="qcurve"/>
      <point x="751" y="11" type="line"/>
      <point x="751" y="183" type="line"/>
      <point x="751" y="188" type="line"/>
      <point x="751" y="345" type="line" smooth="yes"/>
      <point x="751" y="374"/>
      <point x="729" y="426"/>
      <point x="691" y="465"/>
      <point x="639" y="487"/>
      <point x="610" y="487" type="qcurve" smooth="yes"/>
      <point x="223" y="487" type="line"/>
      <point x="224" y="439" type="line"/>
      <point x="478" y="439" type="line"/>
      <point x="478" y="326" type="line"/>
      <point x="373" y="325" type="line"/>
      <point x="335" y="325"/>
      <point x="283" y="303"/>
      <point x="264" y="283" type="qcurve" smooth="yes"/>
      <point x="245" y="264"/>
      <point x="222" y="212"/>
      <point x="222" y="183" type="qcurve" smooth="yes"/>
      <point x="222" y="99" type="line" smooth="yes"/>
      <point x="222" y="71"/>
      <point x="246" y="21"/>
      <point x="285" y="-16"/>
      <point x="336" y="-37"/>
      <point x="364" y="-37" type="qcurve" smooth="yes"/>
      <point x="591" y="-37" type="line"/>
      <point x="817" y="-36" type="line"/>
      <point x="837" y="-11"/>
      <point x="871" y="42"/>
      <point x="884" y="71" type="qcurve"/>
      <point x="918" y="154"/>
      <point x="918" y="239" type="qcurve" smooth="yes"/>
      <point x="918" y="325"/>
      <point x="884" y="407" type="qcurve"/>
      <point x="850" y="485"/>
      <point x="791" y="543" type="qcurve" smooth="yes"/>
      <point x="733" y="602"/>
      <point x="655" y="636" type="qcurve"/>
      <point x="573" y="670"/>
      <point x="487" y="670" type="qcurve" smooth="yes"/>
      <point x="402" y="670"/>
      <point x="320" y="636" type="qcurve"/>
      <point x="282" y="619"/>
      <point x="212" y="573"/>
      <point x="183" y="543" type="qcurve" smooth="yes"/>
      <point x="124" y="485"/>
    </contour>
  </outline>
</glyph>
<glyph name="A" format="2">
  <advance width="698"/>
  <unicode hex="0041"/>
  <outline>
    <contour>
      <point x="292" y="730" type="line"/>
      <point x="406" y="730" type="line"/>
      <point x="410" y="721" type="line"/>
      <point x="494" y="637" type="line"/>
      <point x="835" y="-122" type="line"/>
      <point x="349" y="-122" type="line"/>
      <point x="280" y="-53" type="line"/>
      <point x="213" y="-53" type="line"/>
      <point x="205" y="-70"/>
      <point x="187" y="-109"/>
      <point x="182" y="-122" type="qcurve"/>
      <point x="42" y="-122" type="line"/>
      <point x="-45" y="-35" type="line"/>
      <point x="-53" y="-35" type="line"/>
    </contour>
    <contour>
      <point x="1" y="0" type="line"/>
      <point x="71" y="0" type="line"/>
      <point x="102" y="69" type="line"/>
      <point x="248" y="69" type="line"/>
      <point x="279" y="0" type="line"/>
      <point x="696" y="0" type="line"/>
      <point x="384" y="695" type="line"/>
      <point x="314" y="695" type="line"/>
    </contour>
    <contour>
      <point x="175" y="231" type="line"/>
      <point x="217" y="139" type="line"/>
      <point x="133" y="139" type="line"/>
    </contour>
  </outline>
</glyph>
<glyph name="B" format="2">
  <advance width="838"/>
  <unicode hex="0042"/>
  <outline>
    <contour>
      <point x="740" y="293" type="line"/>
      <point x="741" y="293"/>
      <point x="741" y="292" type="qcurve"/>
    </contour>
    <contour>
      <point x="645" y="196" type="line"/>
      <point x="645" y="198"/>
      <point x="644" y="198" type="qcurve"/>
    </contour>
    <contour>
      <point x="38" y="-35" type="line"/>
      <point x="32" y="-35" type="line"/>
      <point x="32" y="730" type="line"/>
      <point x="484" y="730" type="line" smooth="yes"/>
      <point x="538" y="730"/>
      <point x="627" y="683"/>
      <point x="655" y="642" type="qcurve"/>
      <point x="720" y="578" type="line" smooth="yes"/>
      <point x="748" y="550"/>
      <point x="780" y="475"/>
      <point x="780" y="430" type="qcurve" smooth="yes"/>
      <point x="780" y="356"/>
      <point x="733" y="300" type="qcurve"/>
      <point x="741" y="292" type="line"/>
      <point x="749" y="285" type="line"/>
      <point x="815" y="219"/>
      <point x="815" y="120" type="qcurve" smooth="yes"/>
      <point x="815" y="70"/>
      <point x="778" y="-18"/>
      <point x="713" y="-84"/>
      <point x="625" y="-122"/>
      <point x="574" y="-122" type="qcurve" smooth="yes"/>
      <point x="125" y="-122" type="line"/>
    </contour>
    <contour>
      <point x="623" y="208" type="qcurve" smooth="yes"/>
      <point x="623" y="179"/>
      <point x="601" y="128"/>
      <point x="564" y="91"/>
      <point x="513" y="69"/>
      <point x="484" y="69" type="qcurve"/>
      <point x="484" y="347" type="line"/>
      <point x="513" y="347"/>
      <point x="564" y="325"/>
      <point x="601" y="288"/>
      <point x="623" y="237"/>
    </contour>
    <contour>
      <point x="588" y="521" type="qcurve" smooth="yes"/>
      <point x="588" y="476"/>
      <point x="529" y="417"/>
      <point x="484" y="417" type="qcurve"/>
      <point x="484" y="625" type="line"/>
      <point x="529" y="625"/>
      <point x="588" y="566"/>
    </contour>
    <contour>
      <point x="593" y="386" type="qcurve"/>
      <point x="624" y="411"/>
      <point x="658" y="480"/>
      <point x="658" y="520" type="qcurve" smooth="yes"/>
      <point x="658" y="557"/>
      <point x="631" y="621"/>
      <point x="584" y="668"/>
      <point x="521" y="695"/>
      <point x="484" y="695" type="qcurve" smooth="yes"/>
      <point x="67" y="695" type="line"/>
      <point x="67" y="0" type="line"/>
      <point x="484" y="0" type="line" smooth="yes"/>
      <point x="528" y="0"/>
      <point x="605" y="33"/>
      <point x="661" y="90"/>
      <point x="693" y="166"/>
      <point x="693" y="210" type="qcurve" smooth="yes"/>
      <point x="693" y="267"/>
      <point x="641" y="357"/>
    </contour>
  </outline>
</glyph>
<glyph name="E" format="2">
  <advance width="816"/>
  <unicode hex="0045"/>
  <outline>
    <contour>
      <point x="696" y="98" type="line"/>
      <point x="783" y="11" type="line"/>
      <point x="783" y="-122" type="line"/>
      <point x="128" y="-122" type="line"/>
      <point x="41" y="-35" type="line"/>
      <point x="35" y="-35" type="line"/>
      <point x="35" y="730" type="line"/>
      <point x="696" y="730" type="line"/>
      <point x="696" y="724" type="line"/>
      <point x="783" y="637" type="line"/>
      <point x="783" y="503" type="line"/>
      <point x="610" y="503" type="line"/>
      <point x="610" y="452" type="line"/>
      <point x="696" y="452" type="line"/>
      <point x="696" y="446" type="line"/>
      <point x="783" y="359" type="line"/>
      <point x="783" y="225" type="line"/>
      <point x="610" y="225" type="line"/>
      <point x="610" y="104" type="line"/>
      <point x="696" y="104" type="line"/>
    </contour>
    <contour>
      <point x="661" y="69" type="line"/>
      <point x="488" y="69" type="line"/>
      <point x="488" y="347" type="line"/>
      <point x="661" y="347" type="line"/>
      <point x="661" y="417" type="line"/>
      <point x="488" y="417" type="line"/>
      <point x="488" y="625" type="line"/>
      <point x="661" y="625" type="line"/>
      <point x="661" y="695" type="line"/>
      <point x="70" y="695" type="line"/>
      <point x="70" y="0" type="line"/>
      <point x="661" y="0" type="line"/>
    </contour>
  </outline>
</glyph>
<glyph name="H" format="2">
  <advance width="848"/>
  <unicode hex="0048"/>
  <outline>
    <contour>
      <point x="727" y="724" type="line"/>
      <point x="814" y="637" type="line"/>
      <point x="814" y="-122" type="line"/>
      <point x="681" y="-122" type="line"/>
      <point x="606" y="-47" type="line"/>
      <point x="606" y="-122" type="line"/>
      <point x="124" y="-122" type="line"/>
      <point x="37" y="-35" type="line"/>
      <point x="31" y="-35" type="line"/>
      <point x="31" y="730" type="line"/>
      <point x="519" y="730" type="line"/>
      <point x="519" y="724" type="line"/>
      <point x="588" y="655" type="line"/>
      <point x="588" y="730" type="line"/>
      <point x="727" y="730" type="line"/>
    </contour>
    <contour>
      <point x="692" y="695" type="line"/>
      <point x="623" y="695" type="line"/>
      <point x="623" y="417" type="line"/>
      <point x="484" y="417" type="line"/>
      <point x="484" y="695" type="line"/>
      <point x="66" y="695" type="line"/>
      <point x="66" y="0" type="line"/>
      <point x="484" y="0" type="line"/>
      <point x="484" y="348" type="line"/>
      <point x="623" y="348" type="line"/>
      <point x="623" y="0" type="line"/>
      <point x="692" y="0" type="line"/>
    </contour>
  </outline>
</glyph>
<glyph name="L" format="2">
  <advance width="822"/>
  <unicode hex="004C"/>
  <outline>
    <contour>
      <point x="729" y="98" type="line"/>
      <point x="816" y="11" type="line"/>
      <point x="816" y="-122" type="line"/>
      <point x="126" y="-122" type="line"/>
      <point x="39" y="-35" type="line"/>
      <point x="33" y="-35" type="line"/>
      <point x="33" y="730" type="line"/>
      <point x="520" y="730" type="line"/>
      <point x="520" y="724" type="line"/>
      <point x="607" y="637" type="line"/>
      <point x="607" y="104" type="line"/>
      <point x="729" y="104" type="line"/>
    </contour>
    <contour>
      <point x="694" y="69" type="line"/>
      <point x="485" y="69" type="line"/>
      <point x="485" y="695" type="line"/>
      <point x="68" y="695" type="line"/>
      <point x="68" y="0" type="line"/>
      <point x="694" y="0" type="line"/>
    </contour>
  </outline>
</glyph>
<glyph name="P" format="2">
  <advance width="796"/>
  <unicode hex="0050"/>
  <outline>
    <contour>
      <point x="39" y="-35" type="line"/>
      <point x="33" y="-35" type="line"/>
      <point x="33" y="730" type="line"/>
      <point x="485" y="730" type="line" smooth="yes"/>
      <point x="539" y="730"/>
      <point x="628" y="682"/>
      <point x="656" y="641" type="qcurve"/>
      <point x="720" y="578" type="line" smooth="yes"/>
      <point x="749" y="550"/>
      <point x="781" y="474"/>
      <point x="781" y="430" type="qcurve" smooth="yes"/>
      <point x="781" y="392"/>
      <point x="754" y="324"/>
      <point x="707" y="271"/>
      <point x="643" y="235"/>
      <point x="607" y="229" type="qcurve"/>
      <point x="607" y="-122" type="line"/>
      <point x="126" y="-122" type="line"/>
    </contour>
    <contour>
      <point x="589" y="521" type="qcurve" smooth="yes"/>
      <point x="589" y="500"/>
      <point x="573" y="462"/>
      <point x="544" y="433"/>
      <point x="506" y="417"/>
      <point x="485" y="417" type="qcurve"/>
      <point x="485" y="626" type="line"/>
      <point x="506" y="626"/>
      <point x="544" y="609"/>
      <point x="573" y="581"/>
      <point x="589" y="542"/>
    </contour>
    <contour>
      <point x="485" y="348" type="line"/>
      <point x="521" y="348"/>
      <point x="584" y="375"/>
      <point x="631" y="422"/>
      <point x="659" y="484"/>
      <point x="659" y="520" type="qcurve" smooth="yes"/>
      <point x="659" y="556"/>
      <point x="632" y="620"/>
      <point x="585" y="668"/>
      <point x="522" y="695"/>
      <point x="485" y="695" type="qcurve" smooth="yes"/>
      <point x="68" y="695" type="line"/>
      <point x="68" y="0" type="line"/>
      <point x="485" y="0" type="line"/>
    </contour>
  </outline>
</glyph>
<glyph name="T" format="2">
  <advance width="877"/>
  <unicode hex="0054"/>
  <outline>
    <contour>
      <point x="778" y="724" type="line"/>
      <point x="865" y="637" type="line"/>
      <point x="865" y="503" type="line"/>
      <point x="725" y="503" type="line"/>
      <point x="725" y="-122" type="line"/>
      <point x="247" y="-122" type="line"/>
      <point x="160" y="-35" type="line"/>
      <point x="154" y="-35" type="line"/>
      <point x="153" y="503" type="line"/>
      <point x="106" y="503" type="line"/>
      <point x="19" y="590" type="line"/>
      <point x="13" y="590" type="line"/>
      <point x="13" y="730" type="line"/>
      <point x="778" y="730" type="line"/>
    </contour>
    <contour>
      <point x="743" y="695" type="line"/>
      <point x="48" y="695" type="line"/>
      <point x="48" y="625" type="line"/>
      <point x="188" y="625" type="line"/>
      <point x="189" y="0" type="line"/>
      <point x="603" y="0" type="line"/>
      <point x="603" y="625" type="line"/>
      <point x="743" y="625" type="line"/>
    </contour>
  </outline>
</glyph>
<glyph name="W" format="2">
  <advance width="1331"/>
  <unicode hex="0057"/>
  <outline>
    <contour>
      <point x="1271" y="724" type="line"/>
      <point x="1359" y="637" type="line"/>
      <point x="1018" y="-122" type="line"/>
      <point x="907" y="-122" type="line"/>
      <point x="820" y="-35" type="line"/>
      <point x="815" y="-35" type="line"/>
      <point x="675" y="275" type="line"/>
      <point x="496" y="-122" type="line"/>
      <point x="387" y="-122" type="line"/>
      <point x="300" y="-35" type="line"/>
      <point x="295" y="-35" type="line"/>
      <point x="-50" y="730" type="line"/>
      <point x="444" y="730" type="line"/>
      <point x="448" y="721" type="line"/>
      <point x="532" y="637" type="line"/>
      <point x="548" y="601" type="line"/>
      <point x="606" y="730" type="line"/>
      <point x="964" y="730" type="line"/>
      <point x="968" y="721" type="line"/>
      <point x="1052" y="637" type="line"/>
      <point x="1069" y="599" type="line"/>
      <point x="1083" y="632"/>
      <point x="1114" y="697"/>
      <point x="1128" y="730" type="qcurve"/>
      <point x="1274" y="730" type="line"/>
    </contour>
    <contour>
      <point x="1220" y="695" type="line"/>
      <point x="1151" y="695" type="line"/>
      <point x="1047" y="463" type="line"/>
      <point x="942" y="695" type="line"/>
      <point x="629" y="695" type="line"/>
      <point x="525" y="463" type="line"/>
      <point x="421" y="695" type="line"/>
      <point x="4" y="695" type="line"/>
      <point x="317" y="0" type="line"/>
      <point x="386" y="0" type="line"/>
      <point x="612" y="502" type="line"/>
      <point x="838" y="0" type="line"/>
      <point x="908" y="0" type="line"/>
    </contour>
  </outline>
</glyph>
<glyph name="X" format="2">
  <advance width="892"/>
  <unicode hex="0058"/>
  <outline>
    <contour>
      <point x="775" y="725" type="line"/>
      <point x="863" y="637" type="line"/>
      <point x="682" y="118" type="line"/>
      <point x="887" y="-122" type="line"/>
      <point x="699" y="-122" type="line"/>
      <point x="623" y="-46" type="line"/>
      <point x="615" y="-66"/>
      <point x="602" y="-105"/>
      <point x="597" y="-122" type="qcurve"/>
      <point x="113" y="-122" type="line"/>
      <point x="26" y="-35" type="line"/>
      <point x="19" y="-35" type="line"/>
      <point x="201" y="485" type="line"/>
      <point x="-7" y="730" type="line"/>
      <point x="187" y="730" type="line"/>
      <point x="210" y="702" type="line"/>
      <point x="260" y="652" type="line"/>
      <point x="287" y="730" type="line"/>
      <point x="777" y="730" type="line"/>
    </contour>
    <contour>
      <point x="728" y="695" type="line"/>
      <point x="311" y="695" type="line"/>
      <point x="271" y="579" type="line"/>
      <point x="172" y="695" type="line"/>
      <point x="68" y="695" type="line"/>
      <point x="240" y="492" type="line"/>
      <point x="68" y="0" type="line"/>
      <point x="485" y="0" type="line"/>
      <point x="526" y="115" type="line"/>
      <point x="624" y="0" type="line"/>
      <point x="728" y="0" type="line"/>
      <point x="556" y="202" type="line"/>
    </contour>
  </outline>
</glyph>
<glyph name="Z" format="2">
  <advance width="906"/>
  <unicode hex="005A"/>
  <outline>
    <contour>
      <point x="27" y="591" type="line"/>
      <point x="21" y="591" type="line"/>
      <point x="21" y="730" type="line"/>
      <point x="786" y="730" type="line"/>
      <point x="786" y="724" type="line"/>
      <point x="873" y="637" type="line"/>
      <point x="873" y="528" type="line"/>
      <point x="661" y="105" type="line"/>
      <point x="786" y="105" type="line"/>
      <point x="786" y="99" type="line"/>
      <point x="873" y="12" type="line"/>
      <point x="873" y="-122" type="line"/>
      <point x="114" y="-122" type="line"/>
      <point x="27" y="-35" type="line"/>
      <point x="21" y="-35" type="line"/>
      <point x="21" y="79" type="line"/>
      <point x="233" y="504" type="line"/>
      <point x="114" y="504" type="line"/>
    </contour>
    <contour>
      <point x="751" y="626" type="line"/>
      <point x="751" y="695" type="line"/>
      <point x="56" y="695" type="line"/>
      <point x="56" y="626" type="line"/>
      <point x="334" y="626" type="line"/>
      <point x="56" y="70" type="line"/>
      <point x="56" y="0" type="line"/>
      <point x="751" y="0" type="line"/>
      <point x="751" y="70" type="line"/>
      <point x="473" y="70" type="line"/>
    </contour>
  </outline>
</glyph>
<glyph name="bracketleft" format="2">
  <advance width="585"/>
  <unicode hex="005B"/>
  <outline>
    <contour>
      <point x="465" y="877" type="line"/>
      <point x="465" y="871" type="line"/>
      <point x="552" y="784" type="line"/>
      <point x="552" y="597" type="line"/>
      <point x="404" y="597" type="line"/>
      <point x="404" y="21" type="line"/>
      <point x="465" y="21" type="line"/>
      <point x="465" y="15" type="line"/>
      <point x="552" y="-72" type="line"/>
      <point x="552" y="-259" type="line"/>
      <point x="119" y="-259" type="line"/>
      <point x="32" y="-172" type="line"/>
      <point x="26" y="-172" type="line"/>
      <point x="26" y="877" type="line"/>
    </contour>
    <contour>
      <point x="61" y="842" type="line"/>
      <point x="61" y="-137" type="line"/>
      <point x="430" y="-137" type="line"/>
      <point x="430" y="-14" type="line"/>
      <point x="282" y="-14" type="line"/>
      <point x="282" y="719" type="line"/>
      <point x="430" y="719" type="line"/>
      <point x="430" y="842" type="line"/>
    </contour>
  </outline>
</glyph>
<glyph name="backslash" format="2">
  <advance width="433"/>
  <unicode hex="005C"/>
  <outline>
    <contour>
      <point x="155" y="764" type="line"/>
      <point x="156" y="756" type="line"/>
      <point x="242" y="671" type="line"/>
      <point x="402" y="-168" type="line"/>
      <point x="280" y="-168" type="line"/>
      <point x="193" y="-81" type="line"/>
      <point x="187" y="-81" type="line"/>
      <point x="26" y="764" type="line"/>
    </contour>
    <contour>
      <point x="68" y="729" type="line"/>
      <point x="216" y="-46" type="line"/>
      <point x="274" y="-46" type="line"/>
      <point x="126" y="729" type="line"/>
    </contour>
  </outline>
</glyph>
<glyph name="bracketright" format="2">
  <advance width="585"/>
  <unicode hex="005D"/>
  <outline>
    <contour>
      <point x="29" y="684" type="line"/>
      <point x="23" y="684" type="line"/>
      <point x="23" y="877" type="line"/>
      <point x="462" y="877" type="line"/>
      <point x="462" y="871" type="line"/>
      <point x="549" y="784" type="line"/>
      <point x="549" y="-259" type="line"/>
      <point x="116" y="-259" type="line"/>
      <point x="29" y="-172" type="line"/>
      <point x="23" y="-172" type="line"/>
      <point x="23" y="21" type="line"/>
      <point x="171" y="21" type="line"/>
      <point x="171" y="597" type="line"/>
      <point x="116" y="597" type="line"/>
    </contour>
    <contour>
      <point x="427" y="-137" type="line"/>
      <point x="427" y="842" type="line"/>
      <point x="58" y="842" type="line"/>
      <point x="58" y="719" type="line"/>
      <point x="206" y="719" type="line"/>
      <point x="206" y="-14" type="line"/>
      <point x="58" y="-14" type="line"/>
      <point x="58" y="-137" type="line"/>
    </contour>
  </outline>
</glyph>
<glyph name="asciicircum" format="2">
  <advance width="885"/>
  <unicode hex="005E"/>
  <outline>
    <contour>
      <point x="27" y="219" type="line"/>
      <point x="17" y="223" type="line"/>
      <point x="330" y="716" type="line"/>
      <point x="453" y="716" type="line"/>
      <point x="461" y="702" type="line"/>
      <point x="541" y="623" type="line"/>
      <point x="851" y="134" type="line"/>
      <point x="712" y="80" type="line"/>
      <point x="624" y="167" type="line"/>
      <point x="620" y="166" type="line"/>
      <point x="463" y="414" type="line"/>
      <point x="251" y="80" type="line"/>
      <point x="112" y="134" type="line"/>
    </contour>
    <contour>
      <point x="713" y="240" type="line"/>
      <point x="433" y="681" type="line"/>
      <point x="350" y="681" type="line"/>
      <point x="70" y="240" type="line"/>
      <point x="148" y="209" type="line"/>
      <point x="392" y="592" type="line"/>
      <point x="635" y="209" type="line"/>
    </contour>
  </outline>
</glyph>
<glyph name="underscore" format="2">
  <advance width="849"/>
  <unicode hex="005F"/>
  <outline>
    <contour>
      <point x="730" y="-7" type="line"/>
      <point x="817" y="-94" type="line"/>
      <point x="817" y="-233" type="line"/>
      <point x="122" y="-233" type="line"/>
      <point x="35" y="-146" type="line"/>
      <point x="29" y="-146" type="line"/>
      <point x="29" y="-1" type="line"/>
      <point x="730" y="-1" type="line"/>
    </contour>
    <contour>
      <point x="695" y="-36" type="line"/>
      <point x="64" y="-36" type="line"/>
      <point x="64" y="-111" type="line"/>
      <point x="695" y="-111" type="line"/>
    </contour>
  </outline>
</glyph>
<glyph name="c" format="2">
  <advance width="838"/>
  <unicode hex="0063"/>
  <outline>
    <contour>
      <point x="606" y="468" type="line"/>
      <point x="606" y="244" type="line"/>
      <point x="727" y="244" type="line"/>
      <point x="727" y="238" type="line"/>
      <point x="814" y="151" type="line"/>
      <point x="814" y="95"/>
      <point x="776" y="-5"/>
      <point x="711" y="-79"/>
      <point x="624" y="-122"/>
      <point x="574" y="-122" type="qcurve" smooth="yes"/>
      <point x="365" y="-122" type="line" smooth="yes"/>
      <point x="315" y="-122"/>
      <point x="228" y="-84"/>
      <point x="196" y="-52" type="qcurve" smooth="yes"/>
      <point x="134" y="10" type="line"/>
      <point x="87" y="43"/>
      <point x="32" y="146"/>
      <point x="32" y="209" type="qcurve" smooth="yes"/>
      <point x="32" y="487" type="line" smooth="yes"/>
      <point x="32" y="538"/>
      <point x="70" y="627"/>
      <point x="136" y="693"/>
      <point x="224" y="731"/>
      <point x="275" y="731" type="qcurve" smooth="yes"/>
      <point x="484" y="731" type="line" smooth="yes"/>
      <point x="540" y="731"/>
      <point x="635" y="678"/>
      <point x="669" y="633" type="qcurve"/>
      <point x="732" y="570" type="line" smooth="yes"/>
      <point x="770" y="532"/>
      <point x="814" y="426"/>
      <point x="814" y="365" type="qcurve"/>
      <point x="713" y="365" type="line"/>
    </contour>
    <contour>
      <point x="623" y="487" type="qcurve"/>
      <point x="692" y="487" type="line"/>
      <point x="692" y="530"/>
      <point x="659" y="606"/>
      <point x="603" y="663"/>
      <point x="527" y="696"/>
      <point x="484" y="696" type="qcurve" smooth="yes"/>
      <point x="275" y="696" type="line" smooth="yes"/>
      <point x="232" y="696"/>
      <point x="156" y="663"/>
      <point x="100" y="606"/>
      <point x="67" y="530"/>
      <point x="67" y="487" type="qcurve" smooth="yes"/>
      <point x="67" y="209" type="line" smooth="yes"/>
      <point x="67" y="166"/>
      <point x="100" y="90"/>
      <point x="156" y="33"/>
      <point x="232" y="0"/>
      <point x="275" y="0" type="qcurve" smooth="yes"/>
      <point x="484" y="0" type="line" smooth="yes"/>
      <point x="527" y="0"/>
      <point x="603" y="33"/>
      <point x="659" y="90"/>
      <point x="692" y="166"/>
      <point x="692" y="209" type="qcurve"/>
      <point x="623" y="209" type="line"/>
      <point x="623" y="180"/>
      <point x="601" y="129"/>
      <point x="564" y="92"/>
      <point x="513" y="70"/>
      <point x="484" y="70" type="qcurve"/>
      <point x="484" y="626" type="line"/>
      <point x="513" y="626"/>
      <point x="564" y="604"/>
      <point x="601" y="567"/>
      <point x="623" y="516"/>
    </contour>
  </outline>
</glyph>
<glyph name="d" format="2">
  <advance width="845"/>
  <unicode hex="0064"/>
  <outline>
    <contour>
      <point x="37" y="-35" type="line"/>
      <point x="31" y="-35" type="line"/>
      <point x="31" y="730" type="line"/>
      <point x="483" y="730" type="line" smooth="yes"/>
      <point x="545" y="730"/>
      <point x="649" y="675"/>
      <point x="682" y="628" type="qcurve"/>
      <point x="744" y="566" type="line" smooth="yes"/>
      <point x="776" y="534"/>
      <point x="814" y="447"/>
      <point x="814" y="397" type="qcurve" smooth="yes"/>
      <point x="814" y="312" type="line" smooth="yes"/>
      <point x="814" y="290"/>
      <point x="815" y="247"/>
      <point x="815" y="225" type="qcurve" smooth="yes"/>
      <point x="815" y="196"/>
      <point x="815" y="138"/>
      <point x="813" y="109" type="qcurve" smooth="yes"/>
      <point x="810" y="61"/>
      <point x="772" y="-24"/>
      <point x="708" y="-86"/>
      <point x="622" y="-122"/>
      <point x="573" y="-122" type="qcurve" smooth="yes"/>
      <point x="124" y="-122" type="line"/>
    </contour>
    <contour>
      <point x="693" y="315" type="qcurve" smooth="yes"/>
      <point x="693" y="359"/>
      <point x="692" y="444"/>
      <point x="692" y="487" type="qcurve" smooth="yes"/>
      <point x="692" y="530"/>
      <point x="659" y="606"/>
      <point x="602" y="662"/>
      <point x="526" y="695"/>
      <point x="483" y="695" type="qcurve" smooth="yes"/>
      <point x="66" y="695" type="line"/>
      <point x="66" y="0" type="line"/>
      <point x="483" y="0" type="line" smooth="yes"/>
      <point x="526" y="0"/>
      <point x="600" y="31"/>
      <point x="655" y="86"/>
      <point x="689" y="159"/>
      <point x="691" y="201" type="qcurve" smooth="yes"/>
      <point x="693" y="230"/>
      <point x="693" y="286"/>
    </contour>
    <contour>
      <point x="483" y="626" type="line"/>
      <point x="511" y="626"/>
      <point x="562" y="604"/>
      <point x="600" y="566"/>
      <point x="622" y="515"/>
      <point x="622" y="487" type="qcurve" smooth="yes"/>
      <point x="622" y="227" type="line" smooth="yes"/>
      <point x="622" y="194"/>
      <point x="605" y="136"/>
      <point x="570" y="94"/>
      <point x="518" y="69"/>
      <point x="483" y="69" type="qcurve"/>
    </contour>
  </outline>
</glyph>
<glyph name="f" format="2">
  <advance width="819"/>
  <unicode hex="0066"/>
  <outline>
    <contour>
      <point x="695" y="446" type="line"/>
      <point x="782" y="359" type="line"/>
      <point x="782" y="226" type="line"/>
      <point x="608" y="226" type="line"/>
      <point x="608" y="-122" type="line"/>
      <point x="127" y="-122" type="line"/>
      <point x="40" y="-35" type="line"/>
      <point x="34" y="-35" type="line"/>
      <point x="34" y="730" type="line"/>
      <point x="695" y="730" type="line"/>
      <point x="695" y="724" type="line"/>
      <point x="782" y="637" type="line"/>
      <point x="782" y="504" type="line"/>
      <point x="608" y="504" type="line"/>
      <point x="608" y="452" type="line"/>
      <point x="695" y="452" type="line"/>
    </contour>
    <contour>
      <point x="660" y="417" type="line"/>
      <point x="486" y="417" type="line"/>
      <point x="486" y="626" type="line"/>
      <point x="660" y="626" type="line"/>
      <point x="660" y="695" type="line"/>
      <point x="69" y="695" type="line"/>
      <point x="69" y="0" type="line"/>
      <point x="486" y="0" type="line"/>
      <point x="486" y="348" type="line"/>
      <point x="660" y="348" type="line"/>
    </contour>
  </outline>
</glyph>
<glyph name="j" format="2">
  <advance width="702"/>
  <unicode hex="006A"/>
  <outline>
    <contour>
      <point x="587" y="724" type="line"/>
      <point x="674" y="637" type="line"/>
      <point x="674" y="119" type="line" smooth="yes"/>
      <point x="674" y="69"/>
      <point x="636" y="-19"/>
      <point x="571" y="-84"/>
      <point x="484" y="-122"/>
      <point x="434" y="-122" type="qcurve" smooth="yes"/>
      <point x="124" y="-122" type="line"/>
      <point x="37" y="-35" type="line"/>
      <point x="31" y="-35" type="line"/>
      <point x="31" y="104" type="line"/>
      <point x="100" y="104" type="line"/>
      <point x="100" y="730" type="line"/>
      <point x="587" y="730" type="line"/>
    </contour>
    <contour>
      <point x="552" y="695" type="line"/>
      <point x="135" y="695" type="line"/>
      <point x="135" y="69" type="line"/>
      <point x="66" y="69" type="line"/>
      <point x="66" y="0" type="line"/>
      <point x="344" y="0" type="line" smooth="yes"/>
      <point x="387" y="0"/>
      <point x="463" y="33"/>
      <point x="519" y="90"/>
      <point x="552" y="166"/>
      <point x="552" y="209" type="qcurve" smooth="yes"/>
    </contour>
  </outline>
</glyph>
<glyph name="k" format="2">
  <advance width="842"/>
  <unicode hex="006B"/>
  <outline>
    <contour>
      <point x="40" y="-35" type="line"/>
      <point x="34" y="-35" type="line"/>
      <point x="34" y="730" type="line"/>
      <point x="521" y="730" type="line"/>
      <point x="521" y="724" type="line"/>
      <point x="563" y="681" type="line"/>
      <point x="585" y="730" type="line"/>
      <point x="731" y="730" type="line"/>
      <point x="728" y="724" type="line"/>
      <point x="816" y="637" type="line"/>
      <point x="663" y="296" type="line"/>
      <point x="862" y="-122" type="line"/>
      <point x="711" y="-122" type="line"/>
      <point x="624" y="-35" type="line"/>
      <point x="619" y="-35" type="line"/>
      <point x="608" y="-10" type="line"/>
      <point x="608" y="-122" type="line"/>
      <point x="127" y="-122" type="line"/>
    </contour>
    <contour>
      <point x="538" y="386" type="line"/>
      <point x="677" y="695" type="line"/>
      <point x="608" y="695" type="line"/>
      <point x="486" y="424" type="line"/>
      <point x="486" y="695" type="line"/>
      <point x="69" y="695" type="line"/>
      <point x="69" y="0" type="line"/>
      <point x="486" y="0" type="line"/>
      <point x="486" y="270" type="line"/>
      <point x="503" y="309" type="line"/>
      <point x="642" y="0" type="line"/>
      <point x="712" y="0" type="line"/>
    </contour>
  </outline>
</glyph>
<glyph name="m" format="2">
  <advance width="1275"/>
  <unicode hex="006D"/>
  <outline>
    <contour>
      <point x="1149" y="724" type="line"/>
      <point x="1236" y="637" type="line"/>
      <point x="1236" y="-122" type="line"/>
      <point x="755" y="-122" type="line"/>
      <point x="668" y="-35" type="line"/>
      <point x="662" y="-35" type="line"/>
      <point x="662" y="164" type="line"/>
      <point x="610" y="216" type="line"/>
      <point x="610" y="-122" type="line"/>
      <point x="129" y="-122" type="line"/>
      <point x="42" y="-35" type="line"/>
      <point x="36" y="-35" type="line"/>
      <point x="36" y="730" type="line"/>
      <point x="510" y="730" type="line"/>
      <point x="514" y="721" type="line"/>
      <point x="598" y="637" type="line"/>
      <point x="616" y="598" type="line"/>
      <point x="631" y="632"/>
      <point x="661" y="701"/>
      <point x="675" y="730" type="qcurve"/>
      <point x="1149" y="730" type="line"/>
    </contour>
    <contour>
      <point x="1114" y="695" type="line"/>
      <point x="697" y="695" type="line"/>
      <point x="671" y="637"/>
      <point x="619" y="522"/>
      <point x="593" y="463" type="qcurve"/>
      <point x="567" y="521"/>
      <point x="515" y="637"/>
      <point x="488" y="695" type="qcurve"/>
      <point x="71" y="695" type="line"/>
      <point x="71" y="0" type="line"/>
      <point x="488" y="0" type="line"/>
      <point x="488" y="540" type="line"/>
      <point x="593" y="309" type="line"/>
      <point x="697" y="540" type="line"/>
      <point x="697" y="0" type="line"/>
      <point x="1114" y="0" type="line"/>
    </contour>
  </outline>
</glyph>
<glyph name="n" format="2">
  <advance width="851"/>
  <unicode hex="006E"/>
  <outline>
    <contour>
      <point x="726" y="724" type="line"/>
      <point x="813" y="637" type="line"/>
      <point x="813" y="-122" type="line"/>
      <point x="680" y="-122" type="line"/>
      <point x="605" y="-47" type="line"/>
      <point x="605" y="-122" type="line"/>
      <point x="124" y="-122" type="line"/>
      <point x="37" y="-35" type="line"/>
      <point x="31" y="-35" type="line"/>
      <point x="31" y="730" type="line"/>
      <point x="505" y="730" type="line"/>
      <point x="509" y="721" type="line"/>
      <point x="587" y="643" type="line"/>
      <point x="587" y="730" type="line"/>
      <point x="726" y="730" type="line"/>
    </contour>
    <contour>
      <point x="691" y="695" type="line"/>
      <point x="622" y="695" type="line"/>
      <point x="622" y="386" type="line"/>
      <point x="483" y="695" type="line"/>
      <point x="66" y="695" type="line"/>
      <point x="66" y="0" type="line"/>
      <point x="483" y="0" type="line"/>
      <point x="483" y="540" type="line"/>
      <point x="622" y="232" type="line"/>
      <point x="622" y="0" type="line"/>
      <point x="691" y="0" type="line"/>
    </contour>
  </outline>
</glyph>
<glyph name="o" format="2">
  <advance width="848"/>
  <unicode hex="006F"/>
  <outline>
    <contour>
      <point x="134" y="10" type="line"/>
      <point x="88" y="43"/>
      <point x="34" y="146"/>
      <point x="34" y="208" type="qcurve" smooth="yes"/>
      <point x="34" y="486" type="line" smooth="yes"/>
      <point x="34" y="537"/>
      <point x="72" y="626"/>
      <point x="138" y="692"/>
      <point x="226" y="730"/>
      <point x="277" y="730" type="qcurve" smooth="yes"/>
      <point x="486" y="730" type="line" smooth="yes"/>
      <point x="547" y="730"/>
      <point x="650" y="675"/>
      <point x="683" y="628" type="qcurve"/>
      <point x="745" y="567" type="line" smooth="yes"/>
      <point x="778" y="534"/>
      <point x="816" y="447"/>
      <point x="816" y="396" type="qcurve" smooth="yes"/>
      <point x="816" y="111" type="line" smooth="yes"/>
      <point x="816" y="63"/>
      <point x="776" y="-22"/>
      <point x="710" y="-85"/>
      <point x="623" y="-122"/>
      <point x="576" y="-122" type="qcurve" smooth="yes"/>
      <point x="367" y="-122" type="line" smooth="yes"/>
      <point x="316" y="-122"/>
      <point x="229" y="-84"/>
      <point x="197" y="-52" type="qcurve" smooth="yes"/>
    </contour>
    <contour>
      <point x="694" y="201" type="qcurve" smooth="yes"/>
      <point x="694" y="486" type="line" smooth="yes"/>
      <point x="694" y="529"/>
      <point x="661" y="605"/>
      <point x="605" y="662"/>
      <point x="529" y="695"/>
      <point x="486" y="695" type="qcurve" smooth="yes"/>
      <point x="277" y="695" type="line" smooth="yes"/>
      <point x="234" y="695"/>
      <point x="158" y="662"/>
      <point x="102" y="605"/>
      <point x="69" y="529"/>
      <point x="69" y="486" type="qcurve" smooth="yes"/>
      <point x="69" y="208" type="line" smooth="yes"/>
      <point x="69" y="165"/>
      <point x="102" y="89"/>
      <point x="158" y="33"/>
      <point x="234" y="0"/>
      <point x="277" y="0" type="qcurve" smooth="yes"/>
      <point x="486" y="0" type="line" smooth="yes"/>
      <point x="526" y="0"/>
      <point x="602" y="32"/>
      <point x="659" y="86"/>
      <point x="694" y="159"/>
    </contour>
    <contour>
      <point x="486" y="625" type="line"/>
      <point x="515" y="625"/>
      <point x="566" y="603"/>
      <point x="603" y="566"/>
      <point x="625" y="515"/>
      <point x="625" y="486" type="qcurve" smooth="yes"/>
      <point x="625" y="232" type="line" smooth="yes"/>
      <point x="625" y="199"/>
      <point x="609" y="139"/>
      <point x="575" y="95"/>
      <point x="523" y="69"/>
      <point x="486" y="69" type="qcurve"/>
    </contour>
  </outline>
</glyph>
<glyph name="q" format="2">
  <advance width="848"/>
  <unicode hex="0071"/>
  <outline>
    <contour>
      <point x="132" y="10" type="line"/>
      <point x="86" y="43"/>
      <point x="32" y="146"/>
      <point x="32" y="208" type="qcurve" smooth="yes"/>
      <point x="32" y="486" type="line" smooth="yes"/>
      <point x="32" y="537"/>
      <point x="70" y="626"/>
      <point x="136" y="692"/>
      <point x="224" y="730"/>
      <point x="275" y="730" type="qcurve" smooth="yes"/>
      <point x="484" y="730" type="line" smooth="yes"/>
      <point x="545" y="730"/>
      <point x="648" y="675"/>
      <point x="681" y="628" type="qcurve"/>
      <point x="743" y="567" type="line" smooth="yes"/>
      <point x="776" y="534"/>
      <point x="814" y="447"/>
      <point x="814" y="396" type="qcurve" smooth="yes"/>
      <point x="814" y="364"/>
      <point x="815" y="300"/>
      <point x="815" y="268" type="qcurve" smooth="yes"/>
      <point x="815" y="142" type="line" smooth="yes"/>
      <point x="815" y="103"/>
      <point x="793" y="22"/>
      <point x="760" y="-29" type="qcurve"/>
      <point x="802" y="-122" type="line"/>
      <point x="663" y="-122" type="line"/>
      <point x="649" y="-108" type="line"/>
      <point x="602" y="-122"/>
      <point x="574" y="-122" type="qcurve" smooth="yes"/>
      <point x="365" y="-122" type="line" smooth="yes"/>
      <point x="314" y="-122"/>
      <point x="227" y="-84"/>
      <point x="195" y="-52" type="qcurve" smooth="yes"/>
    </contour>
    <contour>
      <point x="623" y="486" type="qcurve" smooth="yes"/>
      <point x="623" y="472"/>
      <point x="623" y="419"/>
      <point x="623" y="353"/>
      <point x="623" y="282"/>
      <point x="621" y="220"/>
      <point x="618" y="172"/>
      <point x="615" y="162" type="qcurve"/>
      <point x="650" y="83" type="line"/>
      <point x="676" y="118"/>
      <point x="693" y="190"/>
      <point x="693" y="232" type="qcurve" smooth="yes"/>
      <point x="693" y="295"/>
      <point x="692" y="422"/>
      <point x="692" y="486" type="qcurve" smooth="yes"/>
      <point x="692" y="529"/>
      <point x="659" y="605"/>
      <point x="603" y="662"/>
      <point x="527" y="695"/>
      <point x="484" y="695" type="qcurve" smooth="yes"/>
      <point x="275" y="695" type="line" smooth="yes"/>
      <point x="232" y="695"/>
      <point x="156" y="662"/>
      <point x="100" y="605"/>
      <point x="67" y="529"/>
      <point x="67" y="486" type="qcurve" smooth="yes"/>
      <point x="67" y="208" type="line" smooth="yes"/>
      <point x="67" y="165"/>
      <point x="100" y="89"/>
      <point x="156" y="33"/>
      <point x="232" y="0"/>
      <point x="275" y="0" type="qcurve" smooth="yes"/>
      <point x="484" y="0" type="line" smooth="yes"/>
      <point x="523" y="0"/>
      <point x="560" y="14" type="qcurve"/>
      <point x="531" y="78" type="line"/>
      <point x="508" y="69"/>
      <point x="484" y="69" type="qcurve"/>
      <point x="484" y="625" type="line"/>
      <point x="513" y="625"/>
      <point x="564" y="603"/>
      <point x="601" y="566"/>
      <point x="623" y="515"/>
    </contour>
    <contour>
      <point x="663" y="0" type="line"/>
      <point x="595" y="150" type="line"/>
      <point x="526" y="150" type="line"/>
      <point x="543" y="112"/>
      <point x="576" y="37"/>
      <point x="593" y="0" type="qcurve"/>
    </contour>
  </outline>
</glyph>
<glyph name="r" format="2">
  <advance width="812"/>
  <unicode hex="0072"/>
  <outline>
    <contour>
      <point x="43" y="-35" type="line"/>
      <point x="37" y="-35" type="line"/>
      <point x="37" y="730" type="line"/>
      <point x="489" y="730" type="line" smooth="yes"/>
      <point x="543" y="730"/>
      <point x="633" y="681"/>
      <point x="661" y="639" type="qcurve"/>
      <point x="724" y="577" type="line" smooth="yes"/>
      <point x="753" y="549"/>
      <point x="785" y="474"/>
      <point x="785" y="430" type="qcurve" smooth="yes"/>
      <point x="785" y="364"/>
      <point x="738" y="280"/>
      <point x="685" y="253" type="qcurve"/>
      <point x="704" y="209"/>
      <point x="748" y="113"/>
      <point x="793" y="15"/>
      <point x="836" y="-80"/>
      <point x="855" y="-122" type="qcurve"/>
      <point x="715" y="-122" type="line"/>
      <point x="628" y="-35" type="line"/>
      <point x="623" y="-35" type="line"/>
      <point x="611" y="-8" type="line"/>
      <point x="611" y="-122" type="line"/>
      <point x="130" y="-122" type="line"/>
    </contour>
    <contour>
      <point x="593" y="521" type="qcurve" smooth="yes"/>
      <point x="593" y="477"/>
      <point x="533" y="417"/>
      <point x="489" y="417" type="qcurve"/>
      <point x="489" y="625" type="line"/>
      <point x="533" y="625"/>
      <point x="593" y="565"/>
    </contour>
    <contour>
      <point x="553" y="360" type="qcurve"/>
      <point x="612" y="383"/>
      <point x="663" y="457"/>
      <point x="663" y="520" type="qcurve" smooth="yes"/>
      <point x="663" y="556"/>
      <point x="636" y="620"/>
      <point x="589" y="668"/>
      <point x="525" y="695"/>
      <point x="489" y="695" type="qcurve" smooth="yes"/>
      <point x="72" y="695" type="line"/>
      <point x="72" y="0" type="line"/>
      <point x="489" y="0" type="line"/>
      <point x="489" y="347" type="line"/>
      <point x="645" y="0" type="line"/>
      <point x="715" y="0" type="line"/>
      <point x="632" y="180"/>
    </contour>
  </outline>
</glyph>
<glyph name="u" format="2">
  <advance width="855"/>
  <unicode hex="0075"/>
  <outline>
    <contour>
      <point x="135" y="10" type="line"/>
      <point x="89" y="43"/>
      <point x="34" y="146"/>
      <point x="34" y="208" type="qcurve" smooth="yes"/>
      <point x="34" y="730" type="line"/>
      <point x="521" y="730" type="line"/>
      <point x="521" y="724" type="line"/>
      <point x="590" y="655" type="line"/>
      <point x="590" y="730" type="line"/>
      <point x="730" y="730" type="line"/>
      <point x="730" y="724" type="line"/>
      <point x="817" y="637" type="line"/>
      <point x="817" y="411" type="line" smooth="yes"/>
      <point x="817" y="362"/>
      <point x="818" y="266"/>
      <point x="818" y="218" type="qcurve" smooth="yes"/>
      <point x="818" y="191" type="line" smooth="yes"/>
      <point x="818" y="171"/>
      <point x="818" y="130"/>
      <point x="817" y="110" type="qcurve" smooth="yes"/>
      <point x="815" y="62"/>
      <point x="776" y="-23"/>
      <point x="711" y="-86"/>
      <point x="625" y="-122"/>
      <point x="576" y="-122" type="qcurve" smooth="yes"/>
      <point x="368" y="-122" type="line" smooth="yes"/>
      <point x="317" y="-122"/>
      <point x="230" y="-84"/>
      <point x="197" y="-51" type="qcurve" smooth="yes"/>
    </contour>
    <contour>
      <point x="696" y="308" type="qcurve" smooth="yes"/>
      <point x="696" y="405"/>
      <point x="695" y="598"/>
      <point x="695" y="695" type="qcurve"/>
      <point x="625" y="695" type="line"/>
      <point x="625" y="255" type="line" smooth="yes"/>
      <point x="625" y="220"/>
      <point x="621" y="159"/>
      <point x="600" y="128" type="qcurve" smooth="yes"/>
      <point x="578" y="96"/>
      <point x="524" y="69"/>
      <point x="486" y="69" type="qcurve"/>
      <point x="486" y="695" type="line"/>
      <point x="69" y="695" type="line"/>
      <point x="69" y="208" type="line" smooth="yes"/>
      <point x="69" y="165"/>
      <point x="102" y="89"/>
      <point x="159" y="33"/>
      <point x="235" y="0"/>
      <point x="278" y="0" type="qcurve" smooth="yes"/>
      <point x="486" y="0" type="line" smooth="yes"/>
      <point x="528" y="0"/>
      <point x="603" y="31"/>
      <point x="659" y="86"/>
      <point x="693" y="159"/>
      <point x="695" y="201" type="qcurve" smooth="yes"/>
      <point x="697" y="228"/>
      <point x="696" y="281"/>
    </contour>
  </outline>
</glyph>
<glyph name="v" format="2">
  <advance width="838"/>
  <unicode hex="0076"/>
  <outline>
    <contour>
      <point x="777" y="724" type="line"/>
      <point x="865" y="637" type="line"/>
      <point x="523" y="-122" type="line"/>
      <point x="414" y="-122" type="line"/>
      <point x="327" y="-35" type="line"/>
      <point x="322" y="-35" type="line"/>
      <point x="-23" y="730" type="line"/>
      <point x="471" y="730" type="line"/>
      <point x="475" y="721" type="line"/>
      <point x="559" y="637" type="line"/>
      <point x="575" y="601" type="line"/>
      <point x="633" y="730" type="line"/>
      <point x="780" y="730" type="line"/>
    </contour>
    <contour>
      <point x="726" y="695" type="line"/>
      <point x="656" y="695" type="line"/>
      <point x="552" y="463" type="line"/>
      <point x="448" y="695" type="line"/>
      <point x="31" y="695" type="line"/>
      <point x="344" y="0" type="line"/>
      <point x="413" y="0" type="line"/>
    </contour>
  </outline>
</glyph>
<glyph name="y" format="2">
  <advance width="856"/>
  <unicode hex="0079"/>
  <outline>
    <contour>
      <point x="10" y="-35" type="line"/>
      <point x="3" y="-35" type="line"/>
      <point x="185" y="486" type="line"/>
      <point x="-23" y="731" type="line"/>
      <point x="171" y="731" type="line"/>
      <point x="192" y="705" type="line"/>
      <point x="243" y="653" type="line"/>
      <point x="271" y="731" type="line"/>
      <point x="761" y="731" type="line"/>
      <point x="759" y="726" type="line"/>
      <point x="847" y="638" type="line"/>
      <point x="582" y="-122" type="line"/>
      <point x="97" y="-122" type="line"/>
    </contour>
    <contour>
      <point x="255" y="580" type="line"/>
      <point x="156" y="696" type="line"/>
      <point x="52" y="696" type="line"/>
      <point x="224" y="493" type="line"/>
      <point x="52" y="0" type="line"/>
      <point x="469" y="0" type="line"/>
      <point x="712" y="696" type="line"/>
      <point x="295" y="696" type="line"/>
    </contour>
  </outline>
</glyph>
<glyph name="braceleft" format="2">
  <advance width="540"/>
  <unicode hex="007B"/>
  <outline>
    <contour>
      <point x="424" y="842" type="line"/>
      <point x="511" y="755" type="line"/>
      <point x="511" y="623" type="line"/>
      <point x="476" y="624"/>
      <point x="440" y="591"/>
      <point x="435" y="573" type="qcurve" smooth="yes"/>
      <point x="433" y="565"/>
      <point x="431" y="541"/>
      <point x="431" y="527" type="qcurve" smooth="yes"/>
      <point x="431" y="495"/>
      <point x="434" y="459" type="qcurve" smooth="yes"/>
      <point x="436" y="439"/>
      <point x="438" y="398"/>
      <point x="438" y="379" type="qcurve" smooth="yes"/>
      <point x="438" y="342"/>
      <point x="431" y="315" type="qcurve" smooth="yes"/>
      <point x="421" y="278"/>
      <point x="397" y="253" type="qcurve"/>
      <point x="422" y="228"/>
      <point x="431" y="193" type="qcurve" smooth="yes"/>
      <point x="438" y="166"/>
      <point x="438" y="129" type="qcurve" smooth="yes"/>
      <point x="438" y="110"/>
      <point x="436" y="68"/>
      <point x="434" y="48" type="qcurve" smooth="yes"/>
      <point x="431" y="10"/>
      <point x="431" y="-19" type="qcurve" smooth="yes"/>
      <point x="431" y="-35" type="line"/>
      <point x="511" y="-115" type="line"/>
      <point x="511" y="-247" type="line"/>
      <point x="479" y="-247"/>
      <point x="457" y="-248"/>
      <point x="448" y="-249" type="qcurve" smooth="yes"/>
      <point x="433" y="-250"/>
      <point x="400" y="-252"/>
      <point x="383" y="-252" type="qcurve" smooth="yes"/>
      <point x="340" y="-252"/>
      <point x="259" y="-233"/>
      <point x="230" y="-204" type="qcurve" smooth="yes"/>
      <point x="154" y="-128" type="line"/>
      <point x="137" y="-116"/>
      <point x="111" y="-80"/>
      <point x="103" y="-56" type="qcurve" smooth="yes"/>
      <point x="98" y="-39"/>
      <point x="94" y="6"/>
      <point x="94" y="29" type="qcurve" smooth="yes"/>
      <point x="94" y="43"/>
      <point x="95" y="74"/>
      <point x="96" y="88" type="qcurve"/>
      <point x="96" y="98"/>
      <point x="98" y="123"/>
      <point x="98" y="133" type="qcurve"/>
      <point x="97" y="141"/>
      <point x="97" y="169"/>
      <point x="98" y="183" type="qcurve"/>
      <point x="30" y="252" type="line"/>
      <point x="24" y="252" type="line"/>
      <point x="24" y="436" type="line"/>
      <point x="73" y="436"/>
      <point x="80" y="446" type="qcurve" smooth="yes"/>
      <point x="85" y="454"/>
      <point x="95" y="474"/>
      <point x="99" y="484" type="qcurve"/>
      <point x="99" y="492"/>
      <point x="98" y="514"/>
      <point x="97" y="535"/>
      <point x="97" y="553"/>
      <point x="97" y="558" type="qcurve" smooth="yes"/>
      <point x="97" y="569"/>
      <point x="97" y="588"/>
      <point x="96" y="600" type="qcurve" smooth="yes"/>
      <point x="95" y="614"/>
      <point x="94" y="645"/>
      <point x="94" y="659" type="qcurve" smooth="yes"/>
      <point x="94" y="682"/>
      <point x="98" y="727"/>
      <point x="103" y="744" type="qcurve" smooth="yes"/>
      <point x="113" y="776"/>
      <point x="153" y="818"/>
      <point x="204" y="843"/>
      <point x="263" y="853"/>
      <point x="293" y="853" type="qcurve" smooth="yes"/>
      <point x="304" y="853"/>
      <point x="329" y="852"/>
      <point x="340" y="851" type="qcurve"/>
      <point x="344" y="851"/>
      <point x="356" y="850"/>
      <point x="361" y="850" type="qcurve"/>
      <point x="369" y="849"/>
      <point x="392" y="848"/>
      <point x="424" y="848" type="qcurve"/>
    </contour>
    <contour>
      <point x="389" y="813" type="line"/>
      <point x="358" y="814"/>
      <point x="279" y="820"/>
      <point x="207" y="809"/>
      <point x="148" y="773"/>
      <point x="137" y="734" type="qcurve" smooth="yes"/>
      <point x="127" y="697"/>
      <point x="132" y="596"/>
      <point x="132" y="554" type="qcurve"/>
      <point x="133" y="555" type="line"/>
      <point x="132" y="551"/>
      <point x="132" y="526"/>
      <point x="133" y="500"/>
      <point x="134" y="477"/>
      <point x="134" y="476" type="qcurve"/>
      <point x="126" y="452"/>
      <point x="90" y="401"/>
      <point x="59" y="401" type="qcurve"/>
      <point x="59" y="287" type="line"/>
      <point x="90" y="287"/>
      <point x="126" y="236"/>
      <point x="134" y="212" type="qcurve"/>
      <point x="134" y="211"/>
      <point x="133" y="188"/>
      <point x="132" y="162"/>
      <point x="132" y="137"/>
      <point x="133" y="133" type="qcurve"/>
      <point x="132" y="134" type="line"/>
      <point x="132" y="92"/>
      <point x="127" y="-9"/>
      <point x="137" y="-46" type="qcurve" smooth="yes"/>
      <point x="148" y="-85"/>
      <point x="207" y="-121"/>
      <point x="279" y="-132"/>
      <point x="358" y="-126"/>
      <point x="389" y="-125" type="qcurve"/>
      <point x="389" y="-58" type="line"/>
      <point x="359" y="-59"/>
      <point x="322" y="-10"/>
      <point x="315" y="16" type="qcurve" smooth="yes"/>
      <point x="308" y="39"/>
      <point x="311" y="105"/>
      <point x="316" y="180"/>
      <point x="317" y="249"/>
      <point x="310" y="275" type="qcurve" smooth="yes"/>
      <point x="299" y="316"/>
      <point x="270" y="334" type="qcurve" smooth="yes"/>
      <point x="261" y="339"/>
      <point x="251" y="344" type="qcurve"/>
      <point x="261" y="348"/>
      <point x="270" y="354" type="qcurve" smooth="yes"/>
      <point x="299" y="372"/>
      <point x="310" y="413" type="qcurve" smooth="yes"/>
      <point x="317" y="439"/>
      <point x="316" y="508"/>
      <point x="311" y="583"/>
      <point x="308" y="649"/>
      <point x="315" y="672" type="qcurve" smooth="yes"/>
      <point x="322" y="698"/>
      <point x="359" y="747"/>
      <point x="389" y="746" type="qcurve"/>
    </contour>
  </outline>
</glyph>
<glyph name="bar" format="2">
  <advance width="296"/>
  <unicode hex="007C"/>
  <outline>
    <contour>
      <point x="185" y="902" type="line"/>
      <point x="185" y="896" type="line"/>
      <point x="272" y="809" type="line"/>
      <point x="272" y="-286" type="line"/>
      <point x="133" y="-286" type="line"/>
      <point x="46" y="-199" type="line"/>
      <point x="40" y="-199" type="line"/>
      <point x="40" y="902" type="line"/>
    </contour>
    <contour>
      <point x="75" y="867" type="line"/>
      <point x="75" y="-164" type="line"/>
      <point x="150" y="-164" type="line"/>
      <point x="150" y="867" type="line"/>
    </contour>
  </outline>
</glyph>
<glyph name="braceright" format="2">
  <advance width="543"/>
  <unicode hex="007D"/>
  <outline>
    <contour>
      <point x="22" y="848" type="line"/>
      <point x="51" y="848"/>
      <point x="76" y="849"/>
      <point x="87" y="850" type="qcurve"/>
      <point x="92" y="850"/>
      <point x="100" y="851"/>
      <point x="105" y="851" type="qcurve"/>
      <point x="116" y="852"/>
      <point x="142" y="853"/>
      <point x="153" y="853" type="qcurve" smooth="yes"/>
      <point x="204" y="853"/>
      <point x="297" y="825"/>
      <point x="325" y="783" type="qcurve"/>
      <point x="396" y="712" type="line" smooth="yes"/>
      <point x="420" y="688"/>
      <point x="430" y="653" type="qcurve" smooth="yes"/>
      <point x="435" y="635"/>
      <point x="439" y="592"/>
      <point x="439" y="569" type="qcurve" smooth="yes"/>
      <point x="439" y="555"/>
      <point x="438" y="524"/>
      <point x="437" y="510" type="qcurve" smooth="yes"/>
      <point x="435" y="465" type="line"/>
      <point x="436" y="457"/>
      <point x="436" y="430"/>
      <point x="435" y="416" type="qcurve"/>
      <point x="509" y="343" type="line"/>
      <point x="509" y="165" type="line"/>
      <point x="461" y="165"/>
      <point x="454" y="153" type="qcurve"/>
      <point x="447" y="144"/>
      <point x="437" y="127"/>
      <point x="434" y="116" type="qcurve"/>
      <point x="434" y="108"/>
      <point x="435" y="87"/>
      <point x="436" y="64"/>
      <point x="436" y="45"/>
      <point x="436" y="40" type="qcurve" smooth="yes"/>
      <point x="436" y="29"/>
      <point x="436" y="10"/>
      <point x="437" y="-2" type="qcurve" smooth="yes"/>
      <point x="438" y="-16"/>
      <point x="439" y="-47"/>
      <point x="439" y="-61" type="qcurve" smooth="yes"/>
      <point x="439" y="-84"/>
      <point x="435" y="-128"/>
      <point x="430" y="-145" type="qcurve" smooth="yes"/>
      <point x="420" y="-178"/>
      <point x="382" y="-219"/>
      <point x="332" y="-243"/>
      <point x="273" y="-252"/>
      <point x="243" y="-252" type="qcurve" smooth="yes"/>
      <point x="226" y="-252"/>
      <point x="192" y="-250"/>
      <point x="177" y="-249" type="qcurve" smooth="yes"/>
      <point x="168" y="-248"/>
      <point x="146" y="-247"/>
      <point x="115" y="-247" type="qcurve"/>
      <point x="28" y="-160" type="line"/>
      <point x="22" y="-160" type="line"/>
      <point x="22" y="-22" type="line"/>
      <point x="57" y="-23"/>
      <point x="92" y="8"/>
      <point x="97" y="25" type="qcurve" smooth="yes"/>
      <point x="102" y="43"/>
      <point x="102" y="71" type="qcurve" smooth="yes"/>
      <point x="102" y="81"/>
      <point x="101" y="101"/>
      <point x="100" y="112" type="qcurve"/>
      <point x="100" y="119"/>
      <point x="99" y="132"/>
      <point x="99" y="139" type="qcurve"/>
      <point x="97" y="157"/>
      <point x="95" y="202"/>
      <point x="95" y="219" type="qcurve" smooth="yes"/>
      <point x="95" y="257"/>
      <point x="102" y="284" type="qcurve" smooth="yes"/>
      <point x="107" y="301"/>
      <point x="123" y="332"/>
      <point x="134" y="344" type="qcurve"/>
      <point x="111" y="369"/>
      <point x="102" y="404" type="qcurve" smooth="yes"/>
      <point x="95" y="431"/>
      <point x="95" y="469" type="qcurve" smooth="yes"/>
      <point x="95" y="488"/>
      <point x="97" y="529"/>
      <point x="99" y="549" type="qcurve"/>
      <point x="99" y="554"/>
      <point x="100" y="566"/>
      <point x="100" y="571" type="qcurve"/>
      <point x="101" y="583"/>
      <point x="102" y="606"/>
      <point x="102" y="617" type="qcurve" smooth="yes"/>
      <point x="102" y="622"/>
      <point x="102" y="630"/>
      <point x="101" y="635" type="qcurve"/>
      <point x="28" y="710" type="line"/>
      <point x="22" y="710" type="line"/>
    </contour>
    <contour>
      <point x="57" y="746" type="line"/>
      <point x="87" y="747"/>
      <point x="124" y="698"/>
      <point x="131" y="672" type="qcurve" smooth="yes"/>
      <point x="138" y="649"/>
      <point x="135" y="583"/>
      <point x="130" y="508"/>
      <point x="129" y="439"/>
      <point x="136" y="413" type="qcurve" smooth="yes"/>
      <point x="147" y="372"/>
      <point x="176" y="354" type="qcurve" smooth="yes"/>
      <point x="185" y="348"/>
      <point x="195" y="344" type="qcurve"/>
      <point x="185" y="339"/>
      <point x="176" y="334" type="qcurve" smooth="yes"/>
      <point x="147" y="316"/>
      <point x="136" y="275" type="qcurve" smooth="yes"/>
      <point x="129" y="249"/>
      <point x="130" y="180"/>
      <point x="135" y="105"/>
      <point x="138" y="39"/>
      <point x="131" y="16" type="qcurve" smooth="yes"/>
      <point x="124" y="-10"/>
      <point x="87" y="-59"/>
      <point x="57" y="-58" type="qcurve"/>
      <point x="57" y="-125" type="line"/>
      <point x="88" y="-126"/>
      <point x="167" y="-132"/>
      <point x="239" y="-121"/>
      <point x="298" y="-85"/>
      <point x="309" y="-46" type="qcurve" smooth="yes"/>
      <point x="319" y="-9"/>
      <point x="314" y="92"/>
      <point x="314" y="134" type="qcurve"/>
      <point x="313" y="133" type="line"/>
      <point x="314" y="137"/>
      <point x="314" y="162"/>
      <point x="313" y="188"/>
      <point x="312" y="211"/>
      <point x="312" y="212" type="qcurve"/>
      <point x="320" y="236"/>
      <point x="356" y="287"/>
      <point x="387" y="287" type="qcurve"/>
      <point x="387" y="401" type="line"/>
      <point x="356" y="401"/>
      <point x="320" y="452"/>
      <point x="312" y="476" type="qcurve"/>
      <point x="312" y="477"/>
      <point x="313" y="500"/>
      <point x="314" y="526"/>
      <point x="314" y="551"/>
      <point x="313" y="555" type="qcurve"/>
      <point x="314" y="554" type="line"/>
      <point x="314" y="596"/>
      <point x="319" y="697"/>
      <point x="309" y="734" type="qcurve" smooth="yes"/>
      <point x="298" y="773"/>
      <point x="239" y="809"/>
      <point x="167" y="820"/>
      <point x="88" y="814"/>
      <point x="57" y="813" type="qcurve"/>
    </contour>
  </outline>
</glyph>
<glyph name="asciitilde" format="2">
  <advance width="767"/>
  <unicode hex="007E"/>
  <outline>
    <contour>
      <point x="652" y="509" type="line"/>
      <point x="651" y="504" type="line"/>
      <point x="738" y="417" type="line"/>
      <point x="725" y="353" type="line" smooth="yes"/>
      <point x="718" y="319"/>
      <point x="699" y="244"/>
      <point x="663" y="181"/>
      <point x="605" y="140"/>
      <point x="559" y="140" type="qcurve" smooth="yes"/>
      <point x="512" y="140"/>
      <point x="463" y="156" type="qcurve" smooth="yes"/>
      <point x="439" y="164"/>
      <point x="398" y="177"/>
      <point x="378" y="183" type="qcurve"/>
      <point x="366" y="185"/>
      <point x="340" y="194"/>
      <point x="327" y="198" type="qcurve" smooth="yes"/>
      <point x="319" y="200"/>
      <point x="309" y="204"/>
      <point x="310" y="204" type="qcurve"/>
      <point x="301" y="204"/>
      <point x="278" y="199"/>
      <point x="266" y="195" type="qcurve" smooth="yes"/>
      <point x="252" y="190"/>
      <point x="241" y="145" type="qcurve"/>
      <point x="116" y="179" type="line"/>
      <point x="31" y="264" type="line"/>
      <point x="22" y="267" type="line"/>
      <point x="35" y="333" type="line" smooth="yes"/>
      <point x="42" y="368"/>
      <point x="61" y="444"/>
      <point x="98" y="507"/>
      <point x="158" y="548"/>
      <point x="205" y="548" type="qcurve" smooth="yes"/>
      <point x="237" y="548"/>
      <point x="311" y="526"/>
      <point x="349" y="513" type="qcurve" smooth="yes"/>
      <point x="380" y="502"/>
      <point x="437" y="485"/>
      <point x="457" y="485" type="qcurve" smooth="yes"/>
      <point x="474" y="485"/>
      <point x="514" y="512"/>
      <point x="522" y="547" type="qcurve"/>
    </contour>
    <contour>
      <point x="547" y="503" type="line"/>
      <point x="540" y="473"/>
      <point x="484" y="450"/>
      <point x="457" y="450" type="qcurve" smooth="yes"/>
      <point x="432" y="450"/>
      <point x="369" y="469"/>
      <point x="299" y="494"/>
      <point x="233" y="513"/>
      <point x="205" y="513" type="qcurve" smooth="yes"/>
      <point x="162" y="513"/>
      <point x="113" y="467"/>
      <point x="84" y="400"/>
      <point x="69" y="323"/>
      <point x="62" y="292" type="qcurve"/>
      <point x="128" y="274" type="line"/>
      <point x="136" y="304"/>
      <point x="195" y="326"/>
      <point x="220" y="326" type="qcurve"/>
      <point x="221" y="326"/>
      <point x="243" y="320"/>
      <point x="268" y="312"/>
      <point x="292" y="305"/>
      <point x="295" y="305" type="qcurve"/>
      <point x="295" y="304" type="line"/>
      <point x="335" y="293"/>
      <point x="431" y="262"/>
      <point x="469" y="262" type="qcurve" smooth="yes"/>
      <point x="511" y="262"/>
      <point x="561" y="310"/>
      <point x="590" y="377"/>
      <point x="605" y="454"/>
      <point x="612" y="484" type="qcurve"/>
    </contour>
  </outline>
</glyph>
<glyph name="exclamdown" format="2">
  <advance width="526"/>
  <unicode hex="00A1"/>
  <outline>
    <contour>
      <point x="35" y="730" type="line"/>
      <point x="414" y="730" type="line"/>
      <point x="414" y="724" type="line"/>
      <point x="501" y="637" type="line"/>
      <point x="501" y="-122" type="line"/>
      <point x="128" y="-122" type="line"/>
      <point x="41" y="-35" type="line"/>
      <point x="35" y="-35" type="line"/>
    </contour>
    <contour>
      <point x="70" y="604" type="line"/>
      <point x="379" y="604" type="line"/>
      <point x="379" y="695" type="line"/>
      <point x="70" y="695" type="line"/>
    </contour>
    <contour>
      <point x="70" y="0" type="line"/>
      <point x="379" y="0" type="line"/>
      <point x="379" y="548" type="line"/>
      <point x="70" y="548" type="line"/>
    </contour>
  </outline>
</glyph>
<glyph name="cent" format="2">
  <advance width="824"/>
  <unicode hex="00A2"/>
  <outline>
    <contour>
      <point x="130" y="10" type="line"/>
      <point x="83" y="43"/>
      <point x="28" y="146"/>
      <point x="28" y="209" type="qcurve" smooth="yes"/>
      <point x="28" y="487" type="line" smooth="yes"/>
      <point x="28" y="538"/>
      <point x="66" y="627"/>
      <point x="132" y="693"/>
      <point x="220" y="731"/>
      <point x="271" y="731" type="qcurve" smooth="yes"/>
      <point x="303" y="731" type="line"/>
      <point x="303" y="902" type="line"/>
      <point x="448" y="902" type="line"/>
      <point x="448" y="896" type="line"/>
      <point x="535" y="809" type="line"/>
      <point x="535" y="724" type="line"/>
      <point x="573" y="713"/>
      <point x="640" y="666"/>
      <point x="665" y="633" type="qcurve"/>
      <point x="728" y="570" type="line" smooth="yes"/>
      <point x="766" y="532"/>
      <point x="810" y="426"/>
      <point x="810" y="365" type="qcurve"/>
      <point x="677" y="365" type="line"/>
      <point x="602" y="440" type="line"/>
      <point x="602" y="244" type="line"/>
      <point x="723" y="244" type="line"/>
      <point x="723" y="238" type="line"/>
      <point x="810" y="151" type="line"/>
      <point x="810" y="95"/>
      <point x="772" y="-5"/>
      <point x="707" y="-79"/>
      <point x="620" y="-122"/>
      <point x="570" y="-122" type="qcurve" smooth="yes"/>
      <point x="535" y="-122" type="line"/>
      <point x="535" y="-286" type="line"/>
      <point x="396" y="-286" type="line"/>
      <point x="309" y="-199" type="line"/>
      <point x="303" y="-199" type="line"/>
      <point x="303" y="-114" type="line"/>
      <point x="271" y="-106"/>
      <point x="214" y="-74"/>
      <point x="192" y="-52" type="qcurve" smooth="yes"/>
    </contour>
    <contour>
      <point x="688" y="487" type="line"/>
      <point x="688" y="530"/>
      <point x="655" y="606"/>
      <point x="599" y="663"/>
      <point x="523" y="696"/>
      <point x="480" y="696" type="qcurve" smooth="yes"/>
      <point x="413" y="696" type="line"/>
      <point x="413" y="867" type="line"/>
      <point x="338" y="867" type="line"/>
      <point x="338" y="696" type="line"/>
      <point x="271" y="696" type="line" smooth="yes"/>
      <point x="228" y="696"/>
      <point x="152" y="663"/>
      <point x="96" y="606"/>
      <point x="63" y="530"/>
      <point x="63" y="487" type="qcurve" smooth="yes"/>
      <point x="63" y="209" type="line" smooth="yes"/>
      <point x="63" y="166"/>
      <point x="96" y="90"/>
      <point x="152" y="33"/>
      <point x="228" y="0"/>
      <point x="271" y="0" type="qcurve" smooth="yes"/>
      <point x="338" y="0" type="line"/>
      <point x="338" y="-164" type="line"/>
      <point x="413" y="-164" type="line"/>
      <point x="413" y="0" type="line"/>
      <point x="480" y="0" type="line" smooth="yes"/>
      <point x="523" y="0"/>
      <point x="599" y="33"/>
      <point x="655" y="90"/>
      <point x="688" y="166"/>
      <point x="688" y="209" type="qcurve"/>
      <point x="619" y="209" type="line"/>
      <point x="619" y="180"/>
      <point x="597" y="129"/>
      <point x="560" y="92"/>
      <point x="509" y="70"/>
      <point x="480" y="70" type="qcurve"/>
      <point x="480" y="626" type="line"/>
      <point x="509" y="626"/>
      <point x="560" y="604"/>
      <point x="597" y="567"/>
      <point x="619" y="516"/>
      <point x="619" y="487" type="qcurve"/>
    </contour>
  </outline>
</glyph>
<glyph name="sterling" format="2">
  <advance width="841"/>
  <unicode hex="00A3"/>
  <outline>
    <contour>
      <point x="115" y="-9" type="line"/>
      <point x="108" y="-7" type="line"/>
      <point x="108" y="10" type="line" smooth="yes"/>
      <point x="108" y="18"/>
      <point x="107" y="29"/>
      <point x="109" y="32" type="qcurve"/>
      <point x="109" y="189" type="line"/>
      <point x="28" y="270" type="line"/>
      <point x="22" y="270" type="line"/>
      <point x="22" y="415" type="line"/>
      <point x="109" y="415" type="line"/>
      <point x="109" y="486" type="line" smooth="yes"/>
      <point x="109" y="537"/>
      <point x="147" y="626"/>
      <point x="213" y="692"/>
      <point x="301" y="730"/>
      <point x="352" y="730" type="qcurve" smooth="yes"/>
      <point x="635" y="730" type="line"/>
      <point x="635" y="724" type="line"/>
      <point x="722" y="637" type="line"/>
      <point x="722" y="504" type="line"/>
      <point x="561" y="504" type="line"/>
      <point x="561" y="415" type="line"/>
      <point x="571" y="415" type="line"/>
      <point x="571" y="409" type="line"/>
      <point x="658" y="322" type="line"/>
      <point x="658" y="271" type="line"/>
      <point x="733" y="249" type="line"/>
      <point x="732" y="244" type="line"/>
      <point x="819" y="157" type="line"/>
      <point x="806" y="93" type="line" smooth="yes"/>
      <point x="799" y="59"/>
      <point x="780" y="-16"/>
      <point x="744" y="-79"/>
      <point x="686" y="-120"/>
      <point x="640" y="-120" type="qcurve" smooth="yes"/>
      <point x="593" y="-120"/>
      <point x="544" y="-104" type="qcurve" smooth="yes"/>
      <point x="520" y="-96"/>
      <point x="479" y="-83"/>
      <point x="459" y="-77" type="qcurve"/>
      <point x="447" y="-75"/>
      <point x="421" y="-66"/>
      <point x="408" y="-62" type="qcurve" smooth="yes"/>
      <point x="400" y="-60"/>
      <point x="390" y="-56"/>
      <point x="391" y="-56" type="qcurve"/>
      <point x="367" y="-56"/>
      <point x="330" y="-95"/>
      <point x="321" y="-128" type="qcurve"/>
      <point x="201" y="-95" type="line"/>
    </contour>
    <contour>
      <point x="628" y="243" type="line"/>
      <point x="621" y="213"/>
      <point x="565" y="190"/>
      <point x="538" y="190" type="qcurve" smooth="yes"/>
      <point x="513" y="190"/>
      <point x="481" y="199" type="qcurve" smooth="yes"/>
      <point x="461" y="205"/>
      <point x="439" y="212" type="qcurve"/>
      <point x="439" y="305" type="line"/>
      <point x="536" y="305" type="line"/>
      <point x="536" y="380" type="line"/>
      <point x="439" y="380" type="line"/>
      <point x="439" y="626" type="line"/>
      <point x="600" y="626" type="line"/>
      <point x="600" y="695" type="line"/>
      <point x="352" y="695" type="line" smooth="yes"/>
      <point x="309" y="695"/>
      <point x="233" y="662"/>
      <point x="177" y="605"/>
      <point x="144" y="529"/>
      <point x="144" y="486" type="qcurve" smooth="yes"/>
      <point x="144" y="380" type="line"/>
      <point x="57" y="380" type="line"/>
      <point x="57" y="305" type="line"/>
      <point x="144" y="305" type="line"/>
      <point x="144" y="22" type="line"/>
      <point x="143" y="21"/>
      <point x="143" y="19" type="qcurve"/>
      <point x="144" y="18" type="line"/>
      <point x="209" y="1" type="line"/>
      <point x="217" y="31"/>
      <point x="265" y="66"/>
      <point x="301" y="66" type="qcurve"/>
      <point x="302" y="66"/>
      <point x="324" y="60"/>
      <point x="349" y="52"/>
      <point x="373" y="45"/>
      <point x="376" y="45" type="qcurve"/>
      <point x="376" y="44" type="line"/>
      <point x="416" y="33"/>
      <point x="512" y="2"/>
      <point x="550" y="2" type="qcurve" smooth="yes"/>
      <point x="592" y="2"/>
      <point x="642" y="50"/>
      <point x="671" y="117"/>
      <point x="686" y="194"/>
      <point x="693" y="224" type="qcurve"/>
    </contour>
  </outline>
</glyph>
<glyph name="yen" format="2">
  <advance width="998"/>
  <unicode hex="00A5"/>
  <outline>
    <contour>
      <point x="39" y="-35" type="line"/>
      <point x="31" y="-35" type="line"/>
      <point x="97" y="111" type="line"/>
      <point x="29" y="180" type="line"/>
      <point x="23" y="180" type="line"/>
      <point x="23" y="325" type="line"/>
      <point x="69" y="325" type="line"/>
      <point x="29" y="365" type="line"/>
      <point x="23" y="365" type="line"/>
      <point x="23" y="510" type="line"/>
      <point x="205" y="510" type="line"/>
      <point x="179" y="565"/>
      <point x="128" y="676"/>
      <point x="105" y="730" type="qcurve"/>
      <point x="269" y="730" type="line"/>
      <point x="273" y="721" type="line"/>
      <point x="340" y="653" type="line"/>
      <point x="375" y="730" type="line"/>
      <point x="869" y="730" type="line"/>
      <point x="866" y="724" type="line"/>
      <point x="954" y="637" type="line"/>
      <point x="888" y="491" type="line"/>
      <point x="963" y="417" type="line"/>
      <point x="963" y="278" type="line"/>
      <point x="917" y="278" type="line"/>
      <point x="963" y="232" type="line"/>
      <point x="963" y="93" type="line"/>
      <point x="709" y="93" type="line"/>
      <point x="612" y="-122" type="line"/>
      <point x="126" y="-122" type="line"/>
    </contour>
    <contour>
      <point x="322" y="526" type="line"/>
      <point x="246" y="695" type="line"/>
      <point x="159" y="695" type="line"/>
      <point x="258" y="475" type="line"/>
      <point x="58" y="475" type="line"/>
      <point x="58" y="400" type="line"/>
      <point x="265" y="400" type="line"/>
      <point x="216" y="290" type="line"/>
      <point x="58" y="290" type="line"/>
      <point x="58" y="215" type="line"/>
      <point x="182" y="215" type="line"/>
      <point x="85" y="0" type="line"/>
      <point x="502" y="0" type="line"/>
      <point x="599" y="215" type="line"/>
      <point x="841" y="215" type="line"/>
      <point x="841" y="290" type="line"/>
      <point x="632" y="290" type="line"/>
      <point x="682" y="400" type="line"/>
      <point x="841" y="400" type="line"/>
      <point x="841" y="475" type="line"/>
      <point x="716" y="475" type="line"/>
      <point x="815" y="695" type="line"/>
      <point x="398" y="695" type="line"/>
    </contour>
  </outline>
</glyph>
<glyph name="section" format="2">
  <advance width="833"/>
  <unicode hex="00A7"/>
  <outline>
    <contour>
      <point x="462" y="444" type="line"/>
      <point x="490" y="444"/>
      <point x="540" y="423"/>
      <point x="578" y="386"/>
      <point x="600" y="337"/>
      <point x="601" y="309" type="qcurve"/>
      <point x="599" y="251"/>
      <point x="558" y="213" type="qcurve"/>
      <point x="514" y="236"/>
      <point x="462" y="236" type="qcurve"/>
    </contour>
    <contour>
      <point x="671" y="305" type="line"/>
      <point x="671" y="311"/>
      <point x="671" y="323"/>
      <point x="670" y="328" type="qcurve"/>
      <point x="668" y="369"/>
      <point x="633" y="440"/>
      <point x="577" y="493"/>
      <point x="503" y="523"/>
      <point x="462" y="523" type="qcurve"/>
      <point x="462" y="731" type="line"/>
      <point x="491" y="731"/>
      <point x="542" y="709"/>
      <point x="579" y="672"/>
      <point x="601" y="621"/>
      <point x="601" y="592" type="qcurve"/>
      <point x="671" y="592" type="line"/>
      <point x="671" y="635"/>
      <point x="638" y="711"/>
      <point x="581" y="768"/>
      <point x="505" y="801"/>
      <point x="462" y="801" type="qcurve" smooth="yes"/>
      <point x="219" y="801" type="line" smooth="yes"/>
      <point x="183" y="801"/>
      <point x="120" y="774"/>
      <point x="72" y="726"/>
      <point x="45" y="663"/>
      <point x="45" y="627" type="qcurve" smooth="yes"/>
      <point x="45" y="582"/>
      <point x="86" y="507"/>
      <point x="121" y="483" type="qcurve"/>
      <point x="86" y="460"/>
      <point x="45" y="385"/>
      <point x="45" y="340" type="qcurve" smooth="yes"/>
      <point x="45" y="304"/>
      <point x="72" y="241"/>
      <point x="120" y="193"/>
      <point x="183" y="166"/>
      <point x="219" y="166" type="qcurve" smooth="yes"/>
      <point x="462" y="166" type="line" smooth="yes"/>
      <point x="491" y="166"/>
      <point x="542" y="144"/>
      <point x="579" y="107"/>
      <point x="601" y="56"/>
      <point x="601" y="27" type="qcurve" smooth="yes"/>
      <point x="601" y="-2"/>
      <point x="579" y="-53"/>
      <point x="542" y="-90"/>
      <point x="491" y="-112"/>
      <point x="463" y="-112" type="qcurve"/>
      <point x="463" y="-181" type="line"/>
      <point x="506" y="-181"/>
      <point x="582" y="-147"/>
      <point x="638" y="-89"/>
      <point x="670" y="-13"/>
      <point x="670" y="30" type="qcurve" smooth="yes"/>
      <point x="670" y="72"/>
      <point x="639" y="144"/>
      <point x="613" y="172" type="qcurve"/>
      <point x="638" y="198"/>
      <point x="668" y="267"/>
      <point x="670" y="305" type="qcurve"/>
    </contour>
    <contour>
      <point x="657" y="752" type="line" smooth="yes"/>
      <point x="717" y="719"/>
      <point x="790" y="592"/>
      <point x="790" y="513" type="qcurve"/>
      <point x="662" y="513" type="line"/>
      <point x="581" y="558" type="line"/>
      <point x="581" y="520" type="line"/>
      <point x="585" y="518" type="line"/>
      <point x="585" y="518"/>
      <point x="583" y="520" type="qcurve"/>
      <point x="608" y="506" type="line"/>
      <point x="660" y="477" type="line"/>
      <point x="659" y="477" type="line"/>
      <point x="662" y="475" type="line"/>
      <point x="660" y="477"/>
      <point x="660" y="477" type="qcurve"/>
      <point x="669" y="472" type="line"/>
      <point x="662" y="475" type="line"/>
      <point x="669" y="472" type="line"/>
      <point x="720" y="443"/>
      <point x="785" y="344"/>
      <point x="789" y="282" type="qcurve"/>
      <point x="790" y="277"/>
      <point x="790" y="244"/>
      <point x="790" y="226" type="qcurve"/>
      <point x="786" y="228" type="line"/>
      <point x="775" y="167"/>
      <point x="741" y="122" type="qcurve"/>
      <point x="764" y="92"/>
      <point x="789" y="20"/>
      <point x="789" y="-20" type="qcurve" smooth="yes"/>
      <point x="789" y="-69"/>
      <point x="748" y="-156"/>
      <point x="676" y="-222"/>
      <point x="579" y="-260"/>
      <point x="524" y="-260" type="qcurve"/>
      <point x="439" y="-213" type="line"/>
      <point x="431" y="-213" type="line"/>
      <point x="431" y="-80" type="line"/>
      <point x="459" y="-80"/>
      <point x="510" y="-63"/>
      <point x="547" y="-34"/>
      <point x="569" y="5"/>
      <point x="569" y="27" type="qcurve" smooth="yes"/>
      <point x="569" y="60"/>
      <point x="550" y="87" type="qcurve"/>
      <point x="309" y="87" type="line" smooth="yes"/>
      <point x="256" y="87"/>
      <point x="211" y="112" type="qcurve" smooth="yes"/>
      <point x="151" y="145" type="line"/>
      <point x="121" y="155"/>
      <point x="70" y="194"/>
      <point x="33" y="245"/>
      <point x="13" y="306"/>
      <point x="13" y="340" type="qcurve" smooth="yes"/>
      <point x="13" y="382"/>
      <point x="42" y="455"/>
      <point x="71" y="483" type="qcurve"/>
      <point x="44" y="511"/>
      <point x="13" y="585"/>
      <point x="13" y="627" type="qcurve" smooth="yes"/>
      <point x="13" y="670"/>
      <point x="45" y="745"/>
      <point x="101" y="801"/>
      <point x="176" y="833"/>
      <point x="219" y="833" type="qcurve" smooth="yes"/>
      <point x="462" y="833" type="line" smooth="yes"/>
      <point x="500" y="833"/>
      <point x="570" y="807"/>
      <point x="599" y="784" type="qcurve"/>
    </contour>
  </outline>
</glyph>
<glyph name="copyright" format="2">
  <advance width="855"/>
  <unicode hex="00A9"/>
  <outline>
    <contour>
      <point x="173" y="83" type="line" smooth="yes"/>
      <point x="165" y="90"/>
      <point x="148" y="105"/>
      <point x="140" y="113" type="qcurve" smooth="yes"/>
      <point x="89" y="164"/>
      <point x="38" y="289"/>
      <point x="38" y="360" type="qcurve" smooth="yes"/>
      <point x="38" y="431"/>
      <point x="89" y="556"/>
      <point x="140" y="607" type="qcurve" smooth="yes"/>
      <point x="191" y="658"/>
      <point x="316" y="709"/>
      <point x="387" y="709" type="qcurve" smooth="yes"/>
      <point x="458" y="709"/>
      <point x="583" y="658"/>
      <point x="634" y="607" type="qcurve" smooth="yes"/>
      <point x="642" y="599"/>
      <point x="656" y="582"/>
      <point x="663" y="573" type="qcurve"/>
      <point x="722" y="515" type="line" smooth="yes"/>
      <point x="772" y="465"/>
      <point x="823" y="340"/>
      <point x="823" y="270" type="qcurve" smooth="yes"/>
      <point x="823" y="200"/>
      <point x="772" y="75"/>
      <point x="722" y="25" type="qcurve" smooth="yes"/>
      <point x="672" y="-25"/>
      <point x="547" y="-76"/>
      <point x="477" y="-76" type="qcurve" smooth="yes"/>
      <point x="407" y="-76"/>
      <point x="282" y="-25"/>
      <point x="232" y="25" type="qcurve" smooth="yes"/>
    </contour>
    <contour>
      <point x="533" y="254" type="line"/>
      <point x="508" y="220"/>
      <point x="432" y="180"/>
      <point x="387" y="180" type="qcurve" smooth="yes"/>
      <point x="349" y="180"/>
      <point x="284" y="208"/>
      <point x="234" y="257"/>
      <point x="206" y="322"/>
      <point x="206" y="360" type="qcurve" smooth="yes"/>
      <point x="206" y="397"/>
      <point x="234" y="463"/>
      <point x="284" y="513"/>
      <point x="349" y="541"/>
      <point x="387" y="541" type="qcurve" smooth="yes"/>
      <point x="424" y="541"/>
      <point x="488" y="513"/>
      <point x="512" y="490" type="qcurve"/>
      <point x="468" y="444" type="line"/>
      <point x="452" y="459"/>
      <point x="410" y="477"/>
      <point x="387" y="477" type="qcurve" smooth="yes"/>
      <point x="363" y="477"/>
      <point x="320" y="458"/>
      <point x="289" y="427"/>
      <point x="270" y="384"/>
      <point x="270" y="360" type="qcurve" smooth="yes"/>
      <point x="270" y="336"/>
      <point x="289" y="294"/>
      <point x="320" y="262"/>
      <point x="363" y="244"/>
      <point x="387" y="244" type="qcurve" smooth="yes"/>
      <point x="416" y="244"/>
      <point x="465" y="270"/>
      <point x="481" y="292" type="qcurve"/>
    </contour>
    <contour>
      <point x="387" y="46" type="qcurve" smooth="yes"/>
      <point x="450" y="46"/>
      <point x="564" y="93"/>
      <point x="609" y="138" type="qcurve" smooth="yes"/>
      <point x="654" y="183"/>
      <point x="701" y="297"/>
      <point x="701" y="360" type="qcurve" smooth="yes"/>
      <point x="701" y="423"/>
      <point x="654" y="537"/>
      <point x="609" y="582" type="qcurve" smooth="yes"/>
      <point x="564" y="627"/>
      <point x="450" y="674"/>
      <point x="387" y="674" type="qcurve" smooth="yes"/>
      <point x="324" y="674"/>
      <point x="210" y="627"/>
      <point x="165" y="582" type="qcurve" smooth="yes"/>
      <point x="120" y="537"/>
      <point x="73" y="423"/>
      <point x="73" y="360" type="qcurve" smooth="yes"/>
      <point x="73" y="297"/>
      <point x="120" y="183"/>
      <point x="165" y="138" type="qcurve" smooth="yes"/>
      <point x="210" y="93"/>
      <point x="324" y="46"/>
    </contour>
  </outline>
</glyph>
<glyph name="ordfeminine" format="2">
  <advance width="540"/>
  <unicode hex="00AA"/>
  <outline>
    <contour>
      <point x="73" y="373" type="line"/>
      <point x="49" y="388"/>
      <point x="19" y="438"/>
      <point x="19" y="467" type="qcurve" smooth="yes"/>
      <point x="19" y="513" type="line" smooth="yes"/>
      <point x="19" y="560"/>
      <point x="51" y="592" type="qcurve"/>
      <point x="26" y="618" type="line"/>
      <point x="20" y="618" type="line"/>
      <point x="20" y="715" type="line"/>
      <point x="314" y="715" type="line" smooth="yes"/>
      <point x="345" y="715"/>
      <point x="396" y="685"/>
      <point x="410" y="661" type="qcurve"/>
      <point x="482" y="590" type="line" smooth="yes"/>
      <point x="497" y="575"/>
      <point x="514" y="535"/>
      <point x="514" y="512" type="qcurve" smooth="yes"/>
      <point x="514" y="271" type="line"/>
      <point x="394" y="270" type="line"/>
      <point x="222" y="270" type="line" smooth="yes"/>
      <point x="199" y="270"/>
      <point x="159" y="288"/>
      <point x="144" y="303" type="qcurve" smooth="yes"/>
    </contour>
    <contour>
      <point x="196" y="565" type="line"/>
      <point x="196" y="419" type="line"/>
      <point x="132" y="418" type="line"/>
      <point x="104" y="418"/>
      <point x="80" y="454"/>
      <point x="80" y="478" type="qcurve" smooth="yes"/>
      <point x="80" y="513" type="line" smooth="yes"/>
      <point x="80" y="534"/>
      <point x="110" y="565"/>
      <point x="132" y="565" type="qcurve" smooth="yes"/>
    </contour>
    <contour>
      <point x="392" y="602" type="line" smooth="yes"/>
      <point x="392" y="618"/>
      <point x="380" y="646"/>
      <point x="359" y="667"/>
      <point x="330" y="680"/>
      <point x="314" y="680" type="qcurve" smooth="yes"/>
      <point x="55" y="680" type="line"/>
      <point x="55" y="653" type="line"/>
      <point x="194" y="653" type="line"/>
      <point x="194" y="591" type="line"/>
      <point x="137" y="591" type="line" smooth="yes"/>
      <point x="116" y="591"/>
      <point x="88" y="579"/>
      <point x="77" y="568" type="qcurve" smooth="yes"/>
      <point x="66" y="557"/>
      <point x="54" y="529"/>
      <point x="54" y="513" type="qcurve" smooth="yes"/>
      <point x="54" y="467" type="line" smooth="yes"/>
      <point x="54" y="436"/>
      <point x="101" y="392"/>
      <point x="132" y="392" type="qcurve" smooth="yes"/>
      <point x="304" y="392" type="line"/>
      <point x="392" y="393" type="line"/>
    </contour>
  </outline>
</glyph>
<glyph name="guillemotleft" format="2">
  <advance width="1067"/>
  <unicode hex="00AB"/>
  <outline>
    <contour>
      <point x="946" y="115" type="line"/>
      <point x="1034" y="28" type="line"/>
      <point x="978" y="-110" type="line"/>
      <point x="491" y="201" type="line"/>
      <point x="412" y="280" type="line"/>
      <point x="398" y="289" type="line"/>
      <point x="390" y="341" type="line"/>
      <point x="317" y="304" type="line"/>
      <point x="349" y="264" type="line"/>
      <point x="575" y="120" type="line"/>
      <point x="573" y="115" type="line"/>
      <point x="661" y="28" type="line"/>
      <point x="605" y="-110" type="line"/>
      <point x="118" y="201" type="line"/>
      <point x="39" y="280" type="line"/>
      <point x="25" y="289" type="line"/>
      <point x="25" y="410" type="line"/>
      <point x="516" y="724" type="line"/>
      <point x="520" y="714" type="line"/>
      <point x="605" y="629" type="line"/>
      <point x="635" y="561" type="line"/>
      <point x="889" y="724" type="line"/>
      <point x="893" y="714" type="line"/>
      <point x="978" y="629" type="line"/>
      <point x="1033" y="490" type="line"/>
      <point x="700" y="277" type="line"/>
      <point x="722" y="264" type="line"/>
      <point x="948" y="120" type="line"/>
    </contour>
    <contour>
      <point x="531" y="106" type="line"/>
      <point x="148" y="349" type="line"/>
      <point x="531" y="593" type="line"/>
      <point x="499" y="671" type="line"/>
      <point x="60" y="391" type="line"/>
      <point x="60" y="308" type="line"/>
      <point x="499" y="28" type="line"/>
    </contour>
    <contour>
      <point x="904" y="106" type="line"/>
      <point x="521" y="349" type="line"/>
      <point x="904" y="593" type="line"/>
      <point x="872" y="671" type="line"/>
      <point x="649" y="529" type="line"/>
      <point x="650" y="527" type="line"/>
      <point x="576" y="482" type="line"/>
      <point x="433" y="391" type="line"/>
      <point x="433" y="308" type="line"/>
      <point x="872" y="28" type="line"/>
    </contour>
  </outline>
</glyph>
<glyph name="registered" format="2">
  <advance width="838"/>
  <unicode hex="00AE"/>
  <outline>
    <contour>
      <point x="171" y="100" type="line"/>
      <point x="153" y="115"/>
      <point x="137" y="131" type="qcurve" smooth="yes"/>
      <point x="35" y="233"/>
      <point x="35" y="376" type="qcurve" smooth="yes"/>
      <point x="35" y="446"/>
      <point x="86" y="571"/>
      <point x="137" y="620" type="qcurve"/>
      <point x="187" y="671"/>
      <point x="311" y="722"/>
      <point x="381" y="722" type="qcurve" smooth="yes"/>
      <point x="451" y="722"/>
      <point x="576" y="672"/>
      <point x="625" y="621" type="qcurve" smooth="yes"/>
      <point x="634" y="612"/>
      <point x="650" y="593"/>
      <point x="658" y="583" type="qcurve"/>
      <point x="716" y="526" type="line" smooth="yes"/>
      <point x="765" y="477"/>
      <point x="815" y="355"/>
      <point x="815" y="286" type="qcurve" smooth="yes"/>
      <point x="815" y="144"/>
      <point x="714" y="43" type="qcurve" smooth="yes"/>
      <point x="665" y="-6"/>
      <point x="541" y="-57"/>
      <point x="471" y="-57" type="qcurve" smooth="yes"/>
      <point x="401" y="-57"/>
      <point x="278" y="-6"/>
      <point x="229" y="43" type="qcurve" smooth="yes"/>
    </contour>
    <contour>
      <point x="492" y="468" type="qcurve" smooth="yes"/>
      <point x="492" y="444"/>
      <point x="460" y="413"/>
      <point x="437" y="413" type="qcurve"/>
      <point x="437" y="524" type="line"/>
      <point x="460" y="524"/>
      <point x="492" y="492"/>
    </contour>
    <contour>
      <point x="471" y="383" type="qcurve"/>
      <point x="502" y="395"/>
      <point x="529" y="434"/>
      <point x="529" y="468" type="qcurve" smooth="yes"/>
      <point x="529" y="487"/>
      <point x="515" y="521"/>
      <point x="490" y="547"/>
      <point x="456" y="561"/>
      <point x="437" y="561" type="qcurve" smooth="yes"/>
      <point x="215" y="561" type="line"/>
      <point x="215" y="191" type="line"/>
      <point x="437" y="191" type="line"/>
      <point x="437" y="376" type="line"/>
      <point x="519" y="191" type="line"/>
      <point x="557" y="191" type="line"/>
      <point x="513" y="287"/>
    </contour>
    <contour>
      <point x="381" y="641" type="qcurve" smooth="yes"/>
      <point x="436" y="641"/>
      <point x="533" y="599"/>
      <point x="605" y="527"/>
      <point x="647" y="431"/>
      <point x="647" y="376" type="qcurve" smooth="yes"/>
      <point x="647" y="321"/>
      <point x="605" y="225"/>
      <point x="533" y="153"/>
      <point x="436" y="111"/>
      <point x="381" y="111" type="qcurve" smooth="yes"/>
      <point x="326" y="111"/>
      <point x="230" y="153"/>
      <point x="158" y="225"/>
      <point x="116" y="321"/>
      <point x="116" y="376" type="qcurve" smooth="yes"/>
      <point x="116" y="431"/>
      <point x="158" y="527"/>
      <point x="230" y="599"/>
      <point x="326" y="641"/>
    </contour>
    <contour>
      <point x="381" y="65" type="qcurve" smooth="yes"/>
      <point x="444" y="65"/>
      <point x="557" y="112"/>
      <point x="601" y="156" type="qcurve" smooth="yes"/>
      <point x="646" y="201"/>
      <point x="693" y="313"/>
      <point x="693" y="376" type="qcurve" smooth="yes"/>
      <point x="693" y="439"/>
      <point x="646" y="552"/>
      <point x="601" y="596" type="qcurve" smooth="yes"/>
      <point x="557" y="641"/>
      <point x="444" y="687"/>
      <point x="381" y="687" type="qcurve" smooth="yes"/>
      <point x="318" y="687"/>
      <point x="206" y="641"/>
      <point x="162" y="596" type="qcurve" smooth="yes"/>
      <point x="117" y="552"/>
      <point x="70" y="439"/>
      <point x="70" y="376" type="qcurve" smooth="yes"/>
      <point x="70" y="313"/>
      <point x="117" y="201"/>
      <point x="162" y="156" type="qcurve" smooth="yes"/>
      <point x="206" y="112"/>
      <point x="318" y="65"/>
    </contour>
  </outline>
</glyph>
<glyph name="macron" format="2">
  <advance width="587"/>
  <unicode hex="00AF"/>
  <outline>
    <contour>
      <point x="61" y="970" type="line"/>
      <point x="532" y="970" type="line"/>
      <point x="532" y="964" type="line"/>
      <point x="619" y="877" type="line"/>
      <point x="619" y="702" type="line"/>
      <point x="154" y="702" type="line"/>
      <point x="67" y="789" type="line"/>
      <point x="61" y="789" type="line"/>
    </contour>
    <contour>
      <point x="96" y="824" type="line"/>
      <point x="497" y="824" type="line"/>
      <point x="497" y="935" type="line"/>
      <point x="96" y="935" type="line"/>
    </contour>
  </outline>
</glyph>
<glyph name="degree" format="2">
  <advance width="586"/>
  <unicode hex="00B0"/>
  <outline>
    <contour>
      <point x="329" y="494" type="qcurve"/>
      <point x="297" y="491"/>
      <point x="252" y="447"/>
      <point x="250" y="415" type="qcurve"/>
      <point x="282" y="417"/>
      <point x="327" y="462"/>
    </contour>
    <contour>
      <point x="120" y="319" type="line"/>
      <point x="78" y="348"/>
      <point x="29" y="441"/>
      <point x="29" y="498" type="qcurve" smooth="yes"/>
      <point x="29" y="542"/>
      <point x="62" y="621"/>
      <point x="121" y="680"/>
      <point x="200" y="715"/>
      <point x="246" y="715" type="qcurve" smooth="yes"/>
      <point x="301" y="715"/>
      <point x="396" y="662"/>
      <point x="425" y="618" type="qcurve"/>
      <point x="486" y="558" type="line" smooth="yes"/>
      <point x="515" y="529"/>
      <point x="550" y="452"/>
      <point x="550" y="408" type="qcurve" smooth="yes"/>
      <point x="550" y="363"/>
      <point x="516" y="285"/>
      <point x="457" y="227"/>
      <point x="379" y="194"/>
      <point x="336" y="194" type="qcurve" smooth="yes"/>
      <point x="291" y="194"/>
      <point x="213" y="227"/>
      <point x="184" y="256" type="qcurve" smooth="yes"/>
    </contour>
    <contour>
      <point x="246" y="616" type="qcurve" smooth="yes"/>
      <point x="270" y="616"/>
      <point x="313" y="597"/>
      <point x="345" y="565"/>
      <point x="364" y="522"/>
      <point x="364" y="498" type="qcurve" smooth="yes"/>
      <point x="364" y="474"/>
      <point x="345" y="431"/>
      <point x="313" y="399"/>
      <point x="270" y="380"/>
      <point x="246" y="380" type="qcurve" smooth="yes"/>
      <point x="222" y="380"/>
      <point x="179" y="399"/>
      <point x="147" y="431"/>
      <point x="128" y="474"/>
      <point x="128" y="498" type="qcurve" smooth="yes"/>
      <point x="128" y="522"/>
      <point x="147" y="565"/>
      <point x="179" y="597"/>
      <point x="222" y="616"/>
    </contour>
    <contour>
      <point x="246" y="316" type="qcurve" smooth="yes"/>
      <point x="283" y="316"/>
      <point x="349" y="344"/>
      <point x="399" y="393"/>
      <point x="428" y="460"/>
      <point x="428" y="498" type="qcurve" smooth="yes"/>
      <point x="428" y="535"/>
      <point x="399" y="601"/>
      <point x="349" y="651"/>
      <point x="283" y="680"/>
      <point x="246" y="680" type="qcurve" smooth="yes"/>
      <point x="208" y="680"/>
      <point x="141" y="651"/>
      <point x="92" y="601"/>
      <point x="64" y="535"/>
      <point x="64" y="498" type="qcurve" smooth="yes"/>
      <point x="64" y="460"/>
      <point x="92" y="393"/>
      <point x="141" y="344"/>
      <point x="208" y="316"/>
    </contour>
  </outline>
</glyph>
<glyph name="acute" format="2">
  <advance width="736"/>
  <unicode hex="00B4"/>
  <outline>
    <contour>
      <point x="523" y="968" type="line"/>
      <point x="611" y="880" type="line"/>
      <point x="479" y="682" type="line"/>
      <point x="339" y="737" type="line"/>
      <point x="255" y="821" type="line"/>
      <point x="245" y="825" type="line"/>
      <point x="331" y="1064" type="line"/>
      <point x="525" y="971" type="line"/>
    </contour>
    <contour>
      <point x="473" y="957" type="line"/>
      <point x="351" y="1016" type="line"/>
      <point x="290" y="846" type="line"/>
      <point x="376" y="812" type="line"/>
    </contour>
  </outline>
</glyph>
<glyph name="paragraph" format="2">
  <advance width="889"/>
  <unicode hex="00B6"/>
  <outline>
    <contour>
      <point x="772" y="724" type="line"/>
      <point x="859" y="637" type="line"/>
      <point x="859" y="498" type="line"/>
      <point x="779" y="498" type="line"/>
      <point x="779" y="-294" type="line"/>
      <point x="640" y="-294" type="line"/>
      <point x="566" y="-220" type="line"/>
      <point x="566" y="-294" type="line"/>
      <point x="427" y="-294" type="line"/>
      <point x="340" y="-207" type="line"/>
      <point x="334" y="-207" type="line"/>
      <point x="334" y="225" type="line"/>
      <point x="313" y="225" type="line" smooth="yes"/>
      <point x="270" y="225"/>
      <point x="195" y="257"/>
      <point x="167" y="285" type="qcurve" smooth="yes"/>
      <point x="101" y="351" type="line"/>
      <point x="61" y="380"/>
      <point x="14" y="467"/>
      <point x="14" y="521" type="qcurve" smooth="yes"/>
      <point x="14" y="564"/>
      <point x="47" y="641"/>
      <point x="103" y="697"/>
      <point x="179" y="730"/>
      <point x="223" y="730" type="qcurve" smooth="yes"/>
      <point x="772" y="730" type="line"/>
    </contour>
    <contour>
      <point x="737" y="695" type="line"/>
      <point x="223" y="695" type="line" smooth="yes"/>
      <point x="187" y="695"/>
      <point x="124" y="668"/>
      <point x="76" y="620"/>
      <point x="49" y="557"/>
      <point x="49" y="521" type="qcurve" smooth="yes"/>
      <point x="49" y="485"/>
      <point x="76" y="422"/>
      <point x="124" y="374"/>
      <point x="187" y="347"/>
      <point x="223" y="347" type="qcurve" smooth="yes"/>
      <point x="369" y="347" type="line"/>
      <point x="369" y="-172" type="line"/>
      <point x="444" y="-172" type="line"/>
      <point x="444" y="620" type="line"/>
      <point x="582" y="620" type="line"/>
      <point x="582" y="-172" type="line"/>
      <point x="657" y="-172" type="line"/>
      <point x="657" y="620" type="line"/>
      <point x="737" y="620" type="line"/>
    </contour>
  </outline>
</glyph>
<glyph name="ordmasculine" format="2">
  <advance width="555"/>
  <unicode hex="00BA"/>
  <outline>
    <contour>
      <point x="23" y="606" type="line" smooth="yes"/>
      <point x="23" y="628"/>
      <point x="41" y="668"/>
      <point x="73" y="698"/>
      <point x="113" y="716"/>
      <point x="136" y="716" type="qcurve" smooth="yes"/>
      <point x="328" y="716" type="line" smooth="yes"/>
      <point x="357" y="716"/>
      <point x="410" y="685"/>
      <point x="426" y="659" type="qcurve"/>
      <point x="496" y="589" type="line" smooth="yes"/>
      <point x="510" y="575"/>
      <point x="528" y="537"/>
      <point x="528" y="516" type="qcurve" smooth="yes"/>
      <point x="528" y="376" type="line" smooth="yes"/>
      <point x="528" y="354"/>
      <point x="509" y="315"/>
      <point x="479" y="287"/>
      <point x="439" y="270"/>
      <point x="418" y="270" type="qcurve" smooth="yes"/>
      <point x="226" y="270" type="line" smooth="yes"/>
      <point x="203" y="270"/>
      <point x="162" y="287"/>
      <point x="147" y="303" type="qcurve"/>
      <point x="75" y="374" type="line"/>
      <point x="52" y="388"/>
      <point x="23" y="437"/>
      <point x="23" y="466" type="qcurve" smooth="yes"/>
    </contour>
    <contour>
      <point x="328" y="655" type="line"/>
      <point x="356" y="655"/>
      <point x="380" y="619"/>
      <point x="380" y="595" type="qcurve" smooth="yes"/>
      <point x="380" y="478" type="line" smooth="yes"/>
      <point x="380" y="453"/>
      <point x="356" y="418"/>
      <point x="328" y="418" type="qcurve" smooth="yes"/>
      <point x="264" y="418" type="line"/>
      <point x="264" y="654" type="line"/>
    </contour>
    <contour>
      <point x="58" y="466" type="line" smooth="yes"/>
      <point x="58" y="435"/>
      <point x="105" y="392"/>
      <point x="136" y="392" type="qcurve" smooth="yes"/>
      <point x="328" y="392" type="line" smooth="yes"/>
      <point x="358" y="392"/>
      <point x="406" y="435"/>
      <point x="406" y="466" type="qcurve" smooth="yes"/>
      <point x="406" y="606" type="line" smooth="yes"/>
      <point x="406" y="621"/>
      <point x="393" y="649"/>
      <point x="371" y="669"/>
      <point x="343" y="681"/>
      <point x="328" y="681" type="qcurve" smooth="yes"/>
      <point x="136" y="681" type="line" smooth="yes"/>
      <point x="105" y="681"/>
      <point x="58" y="637"/>
      <point x="58" y="606" type="qcurve" smooth="yes"/>
    </contour>
  </outline>
</glyph>
<glyph name="guillemotright" format="2">
  <advance width="998"/>
  <unicode hex="00BB"/>
  <outline>
    <contour>
      <point x="21" y="121" type="line"/>
      <point x="358" y="334" type="line"/>
      <point x="115" y="490" type="line"/>
      <point x="38" y="567" type="line"/>
      <point x="21" y="578" type="line"/>
      <point x="78" y="724" type="line"/>
      <point x="393" y="524" type="line"/>
      <point x="350" y="567" type="line"/>
      <point x="333" y="578" type="line"/>
      <point x="390" y="724" type="line"/>
      <point x="883" y="411" type="line"/>
      <point x="883" y="406" type="line"/>
      <point x="970" y="319" type="line"/>
      <point x="970" y="200" type="line"/>
      <point x="481" y="-110" type="line"/>
      <point x="393" y="-22" type="line"/>
      <point x="390" y="-25" type="line"/>
      <point x="349" y="59" type="line"/>
      <point x="154" y="-60" type="line"/>
      <point x="81" y="-22" type="line"/>
      <point x="78" y="-25" type="line"/>
    </contour>
    <contour>
      <point x="95" y="28" type="line"/>
      <point x="536" y="308" type="line"/>
      <point x="536" y="391" type="line"/>
      <point x="95" y="671" type="line"/>
      <point x="64" y="593" type="line"/>
      <point x="447" y="349" type="line"/>
      <point x="64" y="106" type="line"/>
    </contour>
    <contour>
      <point x="407" y="28" type="line"/>
      <point x="848" y="308" type="line"/>
      <point x="848" y="391" type="line"/>
      <point x="407" y="671" type="line"/>
      <point x="376" y="593" type="line"/>
      <point x="759" y="349" type="line"/>
      <point x="376" y="106" type="line"/>
    </contour>
    <contour>
      <point x="670" y="334" type="line"/>
      <point x="594" y="382" type="line"/>
      <point x="653" y="323" type="line"/>
    </contour>
  </outline>
</glyph>
<glyph name="questiondown" format="2">
  <advance width="933"/>
  <unicode hex="00BF"/>
  <outline>
    <contour>
      <point x="21" y="280" type="line" smooth="yes"/>
      <point x="21" y="326"/>
      <point x="50" y="407"/>
      <point x="104" y="467"/>
      <point x="181" y="501"/>
      <point x="230" y="501" type="qcurve" smooth="yes"/>
      <point x="246" y="501" type="line"/>
      <point x="246" y="586" type="line"/>
      <point x="247" y="586" type="line"/>
      <point x="247" y="733" type="line"/>
      <point x="626" y="733" type="line"/>
      <point x="626" y="727" type="line"/>
      <point x="713" y="640" type="line"/>
      <point x="713" y="485" type="line"/>
      <point x="712" y="485" type="line"/>
      <point x="712" y="245" type="line"/>
      <point x="834" y="245" type="line"/>
      <point x="834" y="239" type="line"/>
      <point x="921" y="152" type="line"/>
      <point x="921" y="105"/>
      <point x="895" y="20"/>
      <point x="849" y="-51"/>
      <point x="785" y="-101"/>
      <point x="747" y="-111" type="qcurve" smooth="yes"/>
      <point x="726" y="-117"/>
      <point x="684" y="-121"/>
      <point x="663" y="-121" type="qcurve"/>
      <point x="349" y="-122" type="line"/>
      <point x="334" y="-122" type="line" smooth="yes"/>
      <point x="307" y="-122"/>
      <point x="280" y="-116" type="qcurve" smooth="yes"/>
      <point x="216" y="-101"/>
      <point x="172" y="-57" type="qcurve" smooth="yes"/>
      <point x="109" y="5" type="line"/>
      <point x="69" y="33"/>
      <point x="21" y="119"/>
      <point x="21" y="173" type="qcurve" smooth="yes"/>
    </contour>
    <contour>
      <point x="591" y="698" type="line"/>
      <point x="282" y="698" type="line"/>
      <point x="282" y="607" type="line"/>
      <point x="591" y="607" type="line"/>
    </contour>
    <contour>
      <point x="56" y="173" type="line" smooth="yes"/>
      <point x="56" y="141"/>
      <point x="77" y="86"/>
      <point x="115" y="42"/>
      <point x="167" y="12"/>
      <point x="197" y="5" type="qcurve" smooth="yes"/>
      <point x="208" y="3"/>
      <point x="231" y="0"/>
      <point x="244" y="0" type="qcurve" smooth="yes"/>
      <point x="251" y="0"/>
      <point x="289" y="2"/>
      <point x="318" y="2" type="qcurve" smooth="yes"/>
      <point x="382" y="2"/>
      <point x="509" y="1"/>
      <point x="573" y="1" type="qcurve" smooth="yes"/>
      <point x="592" y="1"/>
      <point x="630" y="5"/>
      <point x="649" y="10" type="qcurve" smooth="yes"/>
      <point x="682" y="19"/>
      <point x="737" y="58"/>
      <point x="777" y="112"/>
      <point x="799" y="176"/>
      <point x="799" y="210" type="qcurve"/>
      <point x="729" y="210" type="line"/>
      <point x="729" y="181"/>
      <point x="707" y="131"/>
      <point x="670" y="94"/>
      <point x="619" y="72"/>
      <point x="591" y="72" type="qcurve"/>
      <point x="590" y="551" type="line"/>
      <point x="281" y="551" type="line"/>
      <point x="281" y="466" type="line"/>
      <point x="230" y="466" type="line" smooth="yes"/>
      <point x="189" y="466"/>
      <point x="125" y="437"/>
      <point x="80" y="386"/>
      <point x="56" y="319"/>
      <point x="56" y="280" type="qcurve" smooth="yes"/>
    </contour>
  </outline>
</glyph>
<glyph name="AE" format="2">
  <advance width="1084"/>
  <unicode hex="00C6"/>
  <outline>
    <contour>
      <point x="434" y="174" type="line"/>
      <point x="434" y="241" type="line"/>
      <point x="390" y="174" type="line"/>
    </contour>
    <contour>
      <point x="444" y="730" type="line"/>
      <point x="1095" y="730" type="line"/>
      <point x="1095" y="724" type="line"/>
      <point x="1182" y="637" type="line"/>
      <point x="1182" y="503" type="line"/>
      <point x="1009" y="503" type="line"/>
      <point x="1009" y="452" type="line"/>
      <point x="1095" y="452" type="line"/>
      <point x="1095" y="446" type="line"/>
      <point x="1182" y="359" type="line"/>
      <point x="1182" y="225" type="line"/>
      <point x="1009" y="225" type="line"/>
      <point x="1009" y="104" type="line"/>
      <point x="1095" y="104" type="line"/>
      <point x="1095" y="98" type="line"/>
      <point x="1182" y="11" type="line"/>
      <point x="1182" y="-122" type="line"/>
      <point x="527" y="-122" type="line"/>
      <point x="458" y="-53" type="line"/>
      <point x="244" y="-53" type="line"/>
      <point x="195" y="-122" type="line"/>
      <point x="51" y="-122" type="line"/>
      <point x="-36" y="-35" type="line"/>
      <point x="-45" y="-35" type="line"/>
    </contour>
    <contour>
      <point x="469" y="583" type="line"/>
      <point x="469" y="139" type="line"/>
      <point x="181" y="139" type="line"/>
    </contour>
    <contour>
      <point x="19" y="0" type="line"/>
      <point x="89" y="0" type="line"/>
      <point x="138" y="69" type="line"/>
      <point x="469" y="69" type="line"/>
      <point x="469" y="0" type="line"/>
      <point x="1060" y="0" type="line"/>
      <point x="1060" y="69" type="line"/>
      <point x="887" y="69" type="line"/>
      <point x="887" y="347" type="line"/>
      <point x="1060" y="347" type="line"/>
      <point x="1060" y="417" type="line"/>
      <point x="887" y="417" type="line"/>
      <point x="887" y="625" type="line"/>
      <point x="1060" y="625" type="line"/>
      <point x="1060" y="695" type="line"/>
      <point x="463" y="695" type="line"/>
    </contour>
  </outline>
</glyph>
<glyph name="multiply" format="2">
  <advance width="639"/>
  <unicode hex="00D7"/>
  <outline>
    <contour>
      <point x="533" y="241" type="line"/>
      <point x="621" y="153" type="line"/>
      <point x="534" y="45" type="line"/>
      <point x="365" y="180" type="line"/>
      <point x="197" y="45" type="line"/>
      <point x="109" y="133" type="line"/>
      <point x="107" y="131" type="line"/>
      <point x="16" y="244" type="line"/>
      <point x="150" y="351" type="line"/>
      <point x="110" y="384" type="line"/>
      <point x="37" y="457" type="line"/>
      <point x="16" y="474" type="line"/>
      <point x="107" y="587" type="line"/>
      <point x="275" y="451" type="line"/>
      <point x="444" y="587" type="line"/>
      <point x="461" y="565" type="line"/>
      <point x="534" y="493" type="line"/>
      <point x="621" y="385" type="line"/>
      <point x="489" y="279" type="line"/>
      <point x="535" y="243" type="line"/>
    </contour>
    <contour>
      <point x="486" y="238" type="line"/>
      <point x="335" y="359" type="line"/>
      <point x="486" y="480" type="line"/>
      <point x="439" y="538" type="line"/>
      <point x="275" y="407" type="line"/>
      <point x="112" y="538" type="line"/>
      <point x="65" y="479" type="line"/>
      <point x="215" y="359" type="line"/>
      <point x="65" y="239" type="line"/>
      <point x="112" y="180" type="line"/>
      <point x="275" y="311" type="line"/>
      <point x="439" y="180" type="line"/>
    </contour>
  </outline>
</glyph>
<glyph name="divide" format="2">
  <advance width="673"/>
  <unicode hex="00F7"/>
  <outline>
    <contour>
      <point x="185" y="138" type="qcurve" smooth="yes"/>
      <point x="185" y="151"/>
      <point x="188" y="163" type="qcurve"/>
      <point x="103" y="163" type="line"/>
      <point x="16" y="250" type="line"/>
      <point x="10" y="250" type="line"/>
      <point x="10" y="395" type="line"/>
      <point x="264" y="395" type="line"/>
      <point x="234" y="424" type="line"/>
      <point x="211" y="437"/>
      <point x="185" y="482"/>
      <point x="185" y="511" type="qcurve" smooth="yes"/>
      <point x="185" y="553"/>
      <point x="242" y="611"/>
      <point x="284" y="611" type="qcurve" smooth="yes"/>
      <point x="311" y="611"/>
      <point x="355" y="585"/>
      <point x="369" y="563" type="qcurve"/>
      <point x="443" y="490" type="line"/>
      <point x="456" y="476"/>
      <point x="471" y="441"/>
      <point x="471" y="421" type="qcurve" smooth="yes"/>
      <point x="471" y="414"/>
      <point x="469" y="401"/>
      <point x="467" y="395" type="qcurve"/>
      <point x="559" y="395" type="line"/>
      <point x="559" y="389" type="line"/>
      <point x="646" y="302" type="line"/>
      <point x="646" y="163" type="line"/>
      <point x="397" y="163" type="line"/>
      <point x="443" y="117" type="line"/>
      <point x="456" y="103"/>
      <point x="471" y="68"/>
      <point x="471" y="48" type="qcurve" smooth="yes"/>
      <point x="471" y="7"/>
      <point x="415" y="-48"/>
      <point x="374" y="-48" type="qcurve" smooth="yes"/>
      <point x="354" y="-48"/>
      <point x="319" y="-33"/>
      <point x="306" y="-20" type="qcurve" smooth="yes"/>
      <point x="234" y="51" type="line"/>
      <point x="211" y="64"/>
      <point x="185" y="109"/>
    </contour>
    <contour>
      <point x="220" y="511" type="qcurve" smooth="yes"/>
      <point x="220" y="484"/>
      <point x="257" y="447"/>
      <point x="284" y="447" type="qcurve" smooth="yes"/>
      <point x="311" y="447"/>
      <point x="349" y="484"/>
      <point x="349" y="511" type="qcurve" smooth="yes"/>
      <point x="349" y="538"/>
      <point x="311" y="576"/>
      <point x="284" y="576" type="qcurve" smooth="yes"/>
      <point x="257" y="576"/>
      <point x="220" y="538"/>
    </contour>
    <contour>
      <point x="220" y="138" type="qcurve" smooth="yes"/>
      <point x="220" y="111"/>
      <point x="257" y="74"/>
      <point x="284" y="74" type="qcurve" smooth="yes"/>
      <point x="311" y="74"/>
      <point x="349" y="111"/>
      <point x="349" y="138" type="qcurve" smooth="yes"/>
      <point x="349" y="165"/>
      <point x="311" y="203"/>
      <point x="284" y="203" type="qcurve" smooth="yes"/>
      <point x="257" y="203"/>
      <point x="220" y="165"/>
    </contour>
    <contour>
      <point x="524" y="360" type="line"/>
      <point x="45" y="360" type="line"/>
      <point x="45" y="285" type="line"/>
      <point x="524" y="285" type="line"/>
    </contour>
  </outline>
</glyph>
<glyph name="oslash" format="2">
  <advance width="706"/>
  <unicode hex="00F8"/>
  <outline>
    <contour>
      <point x="105" y="10" type="line"/>
      <point x="59" y="43"/>
      <point x="5" y="146"/>
      <point x="5" y="208" type="qcurve" smooth="yes"/>
      <point x="5" y="486" type="line" smooth="yes"/>
      <point x="5" y="537"/>
      <point x="43" y="626"/>
      <point x="109" y="692"/>
      <point x="197" y="730"/>
      <point x="248" y="730" type="qcurve" smooth="yes"/>
      <point x="457" y="730" type="line" smooth="yes"/>
      <point x="477" y="730"/>
      <point x="514" y="723"/>
      <point x="532" y="718" type="qcurve"/>
      <point x="541" y="764" type="line"/>
      <point x="670" y="764" type="line"/>
      <point x="669" y="758" type="line"/>
      <point x="756" y="671" type="line"/>
      <point x="732" y="548" type="line"/>
      <point x="758" y="517"/>
      <point x="787" y="440"/>
      <point x="787" y="396" type="qcurve" smooth="yes"/>
      <point x="787" y="111" type="line" smooth="yes"/>
      <point x="787" y="70"/>
      <point x="759" y="-2"/>
      <point x="709" y="-61"/>
      <point x="643" y="-104"/>
      <point x="606" y="-114" type="qcurve"/>
      <point x="596" y="-168" type="line"/>
      <point x="474" y="-168" type="line"/>
      <point x="428" y="-122" type="line"/>
      <point x="338" y="-122" type="line" smooth="yes"/>
      <point x="287" y="-122"/>
      <point x="200" y="-84"/>
      <point x="168" y="-52" type="qcurve" smooth="yes"/>
    </contour>
    <contour>
      <point x="665" y="486" type="line" smooth="yes"/>
      <point x="665" y="529"/>
      <point x="648" y="567" type="qcurve" smooth="yes"/>
      <point x="633" y="601"/>
      <point x="609" y="628" type="qcurve"/>
      <point x="628" y="729" type="line"/>
      <point x="570" y="729" type="line"/>
      <point x="558" y="668" type="line"/>
      <point x="549" y="674"/>
      <point x="538" y="678" type="qcurve"/>
      <point x="500" y="695"/>
      <point x="457" y="695" type="qcurve" smooth="yes"/>
      <point x="248" y="695" type="line" smooth="yes"/>
      <point x="205" y="695"/>
      <point x="129" y="662"/>
      <point x="73" y="605"/>
      <point x="40" y="529"/>
      <point x="40" y="486" type="qcurve" smooth="yes"/>
      <point x="40" y="208" type="line" smooth="yes"/>
      <point x="40" y="165"/>
      <point x="73" y="89"/>
      <point x="129" y="33"/>
      <point x="205" y="0"/>
      <point x="248" y="0" type="qcurve" smooth="yes"/>
      <point x="431" y="0" type="line"/>
      <point x="422" y="-46" type="line"/>
      <point x="480" y="-46" type="line"/>
      <point x="489" y="2" type="line"/>
      <point x="512" y="6"/>
      <point x="535" y="16" type="qcurve" smooth="yes"/>
      <point x="573" y="32"/>
      <point x="630" y="86"/>
      <point x="665" y="159"/>
      <point x="665" y="201" type="qcurve" smooth="yes"/>
    </contour>
    <contour>
      <point x="457" y="625" type="line"/>
      <point x="486" y="625"/>
      <point x="511" y="614" type="qcurve" smooth="yes"/>
      <point x="530" y="606"/>
      <point x="544" y="594" type="qcurve"/>
      <point x="457" y="136" type="line"/>
    </contour>
    <contour>
      <point x="596" y="486" type="qcurve" smooth="yes"/>
      <point x="596" y="232" type="line" smooth="yes"/>
      <point x="596" y="199"/>
      <point x="580" y="139"/>
      <point x="546" y="95"/>
      <point x="520" y="82" type="qcurve" smooth="yes"/>
      <point x="512" y="78"/>
      <point x="503" y="75" type="qcurve"/>
      <point x="590" y="528" type="line"/>
      <point x="596" y="508"/>
    </contour>
  </outline>
</glyph>
<glyph name="dcroat" format="2">
  <advance width="706"/>
  <unicode hex="0111"/>
  <outline>
    <contour>
      <point x="621" y="475" type="line"/>
      <point x="621" y="477"/>
      <point x="620" y="477" type="qcurve"/>
    </contour>
    <contour>
      <point x="14" y="-35" type="line"/>
      <point x="8" y="-35" type="line"/>
      <point x="8" y="730" type="line"/>
      <point x="460" y="730" type="line" smooth="yes"/>
      <point x="522" y="730"/>
      <point x="626" y="675"/>
      <point x="659" y="628" type="qcurve"/>
      <point x="721" y="566" type="line" smooth="yes"/>
      <point x="753" y="534"/>
      <point x="791" y="447"/>
      <point x="791" y="397" type="qcurve" smooth="yes"/>
      <point x="791" y="313" type="line" smooth="yes"/>
      <point x="791" y="291"/>
      <point x="792" y="248"/>
      <point x="792" y="225" type="qcurve" smooth="yes"/>
      <point x="792" y="168" type="line" smooth="yes"/>
      <point x="792" y="154"/>
      <point x="791" y="123"/>
      <point x="790" y="109" type="qcurve" smooth="yes"/>
      <point x="787" y="61"/>
      <point x="749" y="-23"/>
      <point x="685" y="-86"/>
      <point x="599" y="-122"/>
      <point x="550" y="-122" type="qcurve" smooth="yes"/>
      <point x="101" y="-122" type="line"/>
    </contour>
    <contour>
      <point x="460" y="626" type="line"/>
      <point x="488" y="626"/>
      <point x="539" y="604"/>
      <point x="577" y="566"/>
      <point x="599" y="515"/>
      <point x="599" y="487" type="qcurve" smooth="yes"/>
      <point x="599" y="227" type="line" smooth="yes"/>
      <point x="599" y="194"/>
      <point x="582" y="136"/>
      <point x="547" y="94"/>
      <point x="495" y="69"/>
      <point x="460" y="69" type="qcurve"/>
      <point x="460" y="307" type="line"/>
      <point x="551" y="307" type="line"/>
      <point x="551" y="381" type="line"/>
      <point x="460" y="381" type="line"/>
    </contour>
    <contour>
      <point x="670" y="315" type="line" smooth="yes"/>
      <point x="670" y="360"/>
      <point x="669" y="444"/>
      <point x="669" y="487" type="qcurve" smooth="yes"/>
      <point x="669" y="530"/>
      <point x="636" y="606"/>
      <point x="579" y="662"/>
      <point x="503" y="695"/>
      <point x="460" y="695" type="qcurve" smooth="yes"/>
      <point x="43" y="695" type="line"/>
      <point x="43" y="0" type="line"/>
      <point x="460" y="0" type="line" smooth="yes"/>
      <point x="503" y="0"/>
      <point x="577" y="31"/>
      <point x="633" y="86"/>
      <point x="666" y="159"/>
      <point x="668" y="201" type="qcurve" smooth="yes"/>
      <point x="669" y="215"/>
      <point x="670" y="244"/>
      <point x="670" y="258" type="qcurve" smooth="yes"/>
      <point x="670" y="264" type="line"/>
      <point x="670" y="266" type="line"/>
      <point x="670" y="273" type="line"/>
      <point x="670" y="275" type="line"/>
      <point x="670" y="277" type="line"/>
      <point x="670" y="279" type="line"/>
      <point x="670" y="281" type="line"/>
      <point x="670" y="282" type="line"/>
      <point x="670" y="284" type="line"/>
      <point x="670" y="286" type="line"/>
    </contour>
  </outline>
</glyph>
<glyph name="uni0123" format="2">
  <advance width="848"/>
  <unicode hex="0123"/>
  <outline>
    <contour>
      <point x="603" y="468" type="line"/>
      <point x="603" y="348" type="line"/>
      <point x="724" y="348" type="line"/>
      <point x="724" y="342" type="line"/>
      <point x="811" y="255" type="line"/>
      <point x="811" y="118" type="line" smooth="yes"/>
      <point x="811" y="68"/>
      <point x="773" y="-19"/>
      <point x="708" y="-84"/>
      <point x="621" y="-122"/>
      <point x="571" y="-122" type="qcurve" smooth="yes"/>
      <point x="362" y="-122" type="line" smooth="yes"/>
      <point x="311" y="-122"/>
      <point x="224" y="-84"/>
      <point x="192" y="-52" type="qcurve" smooth="yes"/>
      <point x="129" y="10" type="line"/>
      <point x="83" y="43"/>
      <point x="29" y="146"/>
      <point x="29" y="208" type="qcurve" smooth="yes"/>
      <point x="29" y="487" type="line" smooth="yes"/>
      <point x="29" y="538"/>
      <point x="67" y="626"/>
      <point x="133" y="692"/>
      <point x="221" y="730"/>
      <point x="272" y="730" type="qcurve" smooth="yes"/>
      <point x="481" y="730" type="line" smooth="yes"/>
      <point x="538" y="730"/>
      <point x="633" y="676"/>
      <point x="667" y="631" type="qcurve"/>
      <point x="729" y="569" type="line" smooth="yes"/>
      <point x="767" y="531"/>
      <point x="811" y="426"/>
      <point x="811" y="365" type="qcurve"/>
      <point x="710" y="365" type="line"/>
      <point x="623" y="452" type="line"/>
      <point x="619" y="452" type="line"/>
    </contour>
    <contour>
      <point x="620" y="487" type="qcurve"/>
      <point x="689" y="487" type="line"/>
      <point x="689" y="530"/>
      <point x="656" y="606"/>
      <point x="600" y="662"/>
      <point x="524" y="695"/>
      <point x="481" y="695" type="qcurve" smooth="yes"/>
      <point x="272" y="695" type="line" smooth="yes"/>
      <point x="229" y="695"/>
      <point x="153" y="662"/>
      <point x="97" y="606"/>
      <point x="64" y="530"/>
      <point x="64" y="487" type="qcurve" smooth="yes"/>
      <point x="64" y="208" type="line" smooth="yes"/>
      <point x="64" y="165"/>
      <point x="97" y="89"/>
      <point x="153" y="33"/>
      <point x="229" y="0"/>
      <point x="272" y="0" type="qcurve" smooth="yes"/>
      <point x="481" y="0" type="line" smooth="yes"/>
      <point x="524" y="0"/>
      <point x="600" y="33"/>
      <point x="656" y="89"/>
      <point x="689" y="165"/>
      <point x="689" y="208" type="qcurve" smooth="yes"/>
      <point x="689" y="313" type="line"/>
      <point x="550" y="313" type="line"/>
      <point x="550" y="243" type="line"/>
      <point x="620" y="243" type="line"/>
      <point x="620" y="208" type="line" smooth="yes"/>
      <point x="620" y="179"/>
      <point x="598" y="129"/>
      <point x="560" y="91"/>
      <point x="509" y="69"/>
      <point x="481" y="69" type="qcurve"/>
      <point x="481" y="625" type="line"/>
      <point x="509" y="625"/>
      <point x="560" y="604"/>
      <point x="598" y="566"/>
      <point x="620" y="516"/>
    </contour>
    <contour>
      <point x="304" y="-107" type="line"/>
      <point x="482" y="-107" type="line"/>
      <point x="482" y="-113" type="line"/>
      <point x="569" y="-200" type="line"/>
      <point x="569" y="-341" type="line"/>
      <point x="397" y="-447" type="line"/>
      <point x="309" y="-359" type="line"/>
      <point x="304" y="-363" type="line"/>
    </contour>
    <contour>
      <point x="339" y="-300" type="line"/>
      <point x="447" y="-233" type="line"/>
      <point x="447" y="-142" type="line"/>
      <point x="339" y="-142" type="line"/>
    </contour>
  </outline>
</glyph>
<glyph name="hbar" format="2">
  <advance width="924"/>
  <unicode hex="0127"/>
  <outline>
    <contour>
      <point x="731" y="730" type="line"/>
      <point x="731" y="724" type="line"/>
      <point x="818" y="637" type="line"/>
      <point x="818" y="495" type="line"/>
      <point x="903" y="410" type="line"/>
      <point x="903" y="271" type="line"/>
      <point x="818" y="271" type="line"/>
      <point x="818" y="-122" type="line"/>
      <point x="685" y="-122" type="line"/>
      <point x="633" y="-70" type="line"/>
      <point x="633" y="-122" type="line"/>
      <point x="194" y="-122" type="line"/>
      <point x="107" y="-35" type="line"/>
      <point x="101" y="-35" type="line"/>
      <point x="101" y="285" type="line"/>
      <point x="28" y="358" type="line"/>
      <point x="22" y="358" type="line"/>
      <point x="22" y="503" type="line"/>
      <point x="101" y="503" type="line"/>
      <point x="101" y="730" type="line"/>
      <point x="546" y="730" type="line"/>
      <point x="546" y="724" type="line"/>
      <point x="592" y="678" type="line"/>
      <point x="592" y="730" type="line"/>
    </contour>
    <contour>
      <point x="627" y="695" type="line"/>
      <point x="627" y="468" type="line"/>
      <point x="511" y="468" type="line"/>
      <point x="511" y="695" type="line"/>
      <point x="136" y="695" type="line"/>
      <point x="136" y="468" type="line"/>
      <point x="57" y="468" type="line"/>
      <point x="57" y="393" type="line"/>
      <point x="136" y="393" type="line"/>
      <point x="136" y="0" type="line"/>
      <point x="511" y="0" type="line"/>
      <point x="511" y="129" type="line"/>
      <point x="627" y="129" type="line"/>
      <point x="627" y="0" type="line"/>
      <point x="696" y="0" type="line"/>
      <point x="696" y="393" type="line"/>
      <point x="784" y="393" type="line"/>
      <point x="784" y="468" type="line"/>
      <point x="696" y="468" type="line"/>
      <point x="696" y="695" type="line"/>
    </contour>
    <contour>
      <point x="511" y="198" type="line"/>
      <point x="511" y="393" type="line"/>
      <point x="627" y="393" type="line"/>
      <point x="627" y="198" type="line"/>
    </contour>
  </outline>
</glyph>
<glyph name="dotlessi" format="2">
  <advance width="641"/>
  <unicode hex="0131"/>
  <outline>
    <contour>
      <point x="522" y="724" type="line"/>
      <point x="609" y="637" type="line"/>
      <point x="609" y="-122" type="line"/>
      <point x="128" y="-122" type="line"/>
      <point x="41" y="-35" type="line"/>
      <point x="35" y="-35" type="line"/>
      <point x="35" y="730" type="line"/>
      <point x="522" y="730" type="line"/>
    </contour>
    <contour>
      <point x="487" y="695" type="line"/>
      <point x="70" y="695" type="line"/>
      <point x="70" y="0" type="line"/>
      <point x="487" y="0" type="line"/>
    </contour>
  </outline>
</glyph>
<glyph name="uni0137" format="2">
  <advance width="842"/>
  <unicode hex="0137"/>
  <outline>
    <contour>
      <point x="40" y="-35" type="line"/>
      <point x="34" y="-35" type="line"/>
      <point x="34" y="730" type="line"/>
      <point x="521" y="730" type="line"/>
      <point x="521" y="724" type="line"/>
      <point x="563" y="681" type="line"/>
      <point x="585" y="730" type="line"/>
      <point x="731" y="730" type="line"/>
      <point x="728" y="724" type="line"/>
      <point x="816" y="637" type="line"/>
      <point x="663" y="296" type="line"/>
      <point x="862" y="-122" type="line"/>
      <point x="711" y="-122" type="line"/>
      <point x="624" y="-35" type="line"/>
      <point x="619" y="-35" type="line"/>
      <point x="608" y="-10" type="line"/>
      <point x="608" y="-122" type="line"/>
      <point x="127" y="-122" type="line"/>
    </contour>
    <contour>
      <point x="538" y="386" type="line"/>
      <point x="677" y="695" type="line"/>
      <point x="608" y="695" type="line"/>
      <point x="486" y="424" type="line"/>
      <point x="486" y="695" type="line"/>
      <point x="69" y="695" type="line"/>
      <point x="69" y="0" type="line"/>
      <point x="486" y="0" type="line"/>
      <point x="486" y="270" type="line"/>
      <point x="503" y="309" type="line"/>
      <point x="642" y="0" type="line"/>
      <point x="712" y="0" type="line"/>
    </contour>
    <contour>
      <point x="304" y="-107" type="line"/>
      <point x="482" y="-107" type="line"/>
      <point x="482" y="-113" type="line"/>
      <point x="569" y="-200" type="line"/>
      <point x="569" y="-341" type="line"/>
      <point x="397" y="-447" type="line"/>
      <point x="309" y="-359" type="line"/>
      <point x="304" y="-363" type="line"/>
    </contour>
    <contour>
      <point x="339" y="-300" type="line"/>
      <point x="447" y="-233" type="line"/>
      <point x="447" y="-142" type="line"/>
      <point x="339" y="-142" type="line"/>
    </contour>
  </outline>
</glyph>
